<svg width="265" height="384" viewBox="0 0 265 384" fill="none" xmlns="http://www.w3.org/2000/svg">
<g clip-path="url(#clip0_308_13638)">
<path d="M31.6188 374.049C31.6188 374.049 31.8 360.001 45.6747 360.001C45.6747 360.001 31.6188 359.82 31.6188 345.936C31.6188 345.936 31.4558 360.001 17.563 360.001C17.563 360.001 31.6188 360.164 31.6188 374.049Z" fill="#FFC107"/>
<path d="M23.341 56.8074C23.341 56.8074 23.5221 42.7416 37.3968 42.7416C37.3968 42.7416 23.341 42.5784 23.341 28.6758C23.341 28.6758 23.1779 42.7416 9.30322 42.7416C9.30322 42.7416 23.341 42.9228 23.341 56.8074Z" fill="#FFC107"/>
<path d="M250.462 99.6931C250.462 99.6931 250.643 85.6273 264.518 85.6273C264.518 85.6273 250.462 85.4461 250.462 71.5615C250.462 71.5615 250.299 85.6273 236.406 85.6273C236.388 85.6454 250.462 85.8267 250.462 99.6931Z" fill="#FFC107"/>
<path d="M240.446 300.893C240.446 300.893 240.627 286.845 254.502 286.845C254.502 286.845 240.446 286.664 240.446 272.779C240.446 272.779 240.283 286.845 226.408 286.845C226.408 286.809 240.446 286.972 240.446 300.893Z" fill="#FFC107"/>
<path d="M121.986 384C121.986 384 122.076 375.735 130.227 375.735C130.227 375.735 121.986 375.626 121.986 367.487C121.986 367.487 121.877 375.735 113.726 375.735C113.726 375.735 121.986 375.843 121.986 384Z" fill="#FFC107"/>
<path d="M15.0995 204.299C15.0995 204.299 15.0995 196.052 23.341 196.052C23.341 196.052 15.0995 195.943 15.0995 187.786C15.0995 187.786 14.9908 196.052 6.83984 196.052C6.83984 196.052 15.0995 196.142 15.0995 204.299Z" fill="#FFC107"/>
<path d="M60.0926 28.6749C60.0926 28.6749 60.1832 20.4276 68.3342 20.4276C68.3342 20.4276 60.0926 20.3188 60.0926 12.1621C60.0926 12.1621 59.984 20.4276 51.833 20.4276C51.833 20.4276 60.0926 20.5182 60.0926 28.6749Z" fill="#FFC107"/>
<path d="M232.204 156.337C232.204 156.337 232.313 148.09 240.446 148.09C240.446 148.09 232.204 147.981 232.204 139.824C232.204 139.824 232.096 148.09 223.945 148.09C223.945 148.09 232.204 148.18 232.204 156.337Z" fill="#FFC107"/>
<path d="M227.169 354.001C227.169 354.001 227.278 345.754 235.429 345.754C235.429 345.754 227.169 345.645 227.169 337.488C227.169 337.488 227.169 345.754 218.928 345.754C218.928 345.754 227.169 345.844 227.169 354.001Z" fill="#FFC107"/>
<path d="M20.4248 158.802C17.2507 158.802 14.1479 157.86 11.5088 156.095C8.86969 154.331 6.81273 151.823 5.59808 148.888C4.38342 145.954 4.06561 142.724 4.68484 139.609C5.30406 136.494 6.83252 133.632 9.07691 131.386C11.3213 129.14 14.1808 127.611 17.2939 126.991C20.407 126.372 23.6337 126.69 26.5662 127.905C29.4986 129.121 32.005 131.179 33.7684 133.82C35.5319 136.461 36.4731 139.566 36.4731 142.742C36.4731 147.002 34.7823 151.086 31.7726 154.098C28.763 157.11 24.681 158.802 20.4248 158.802ZM20.4248 131.613C18.2108 131.613 16.0466 132.27 14.2057 133.501C12.3649 134.732 10.9301 136.481 10.0829 138.528C9.23566 140.575 9.01398 142.827 9.4459 145C9.87782 147.173 10.9439 149.169 12.5094 150.736C14.075 152.302 16.0695 153.369 18.2409 153.801C20.4124 154.234 22.6631 154.012 24.7085 153.164C26.7539 152.316 28.5022 150.88 29.7322 149.038C30.9622 147.196 31.6187 145.03 31.6187 142.815C31.6283 141.338 31.3458 139.873 30.7875 138.506C30.2293 137.138 29.4062 135.895 28.3658 134.847C27.3254 133.799 26.0882 132.967 24.7253 132.4C23.3625 131.832 21.9009 131.54 20.4248 131.54V131.613Z" fill="#A866A7"/>
<path d="M240.445 234.659C237.272 234.656 234.171 233.711 231.534 231.944C228.897 230.177 226.843 227.668 225.631 224.733C224.42 221.798 224.104 218.57 224.726 215.456C225.347 212.341 226.877 209.482 229.122 207.237C231.367 204.993 234.227 203.466 237.339 202.847C240.452 202.229 243.678 202.548 246.609 203.764C249.54 204.98 252.046 207.039 253.808 209.679C255.571 212.32 256.512 215.424 256.512 218.6C256.507 222.861 254.812 226.945 251.8 229.957C248.787 232.968 244.703 234.659 240.445 234.659ZM240.445 207.47C238.232 207.474 236.07 208.134 234.231 209.367C232.393 210.6 230.961 212.351 230.116 214.398C229.272 216.445 229.053 218.697 229.487 220.869C229.921 223.04 230.988 225.035 232.554 226.6C234.121 228.164 236.115 229.229 238.286 229.66C240.457 230.091 242.707 229.868 244.751 229.02C246.796 228.171 248.543 226.735 249.772 224.894C251.001 223.052 251.657 220.887 251.657 218.672C251.664 217.194 251.38 215.729 250.819 214.362C250.259 212.994 249.434 211.751 248.393 210.703C247.351 209.656 246.112 208.824 244.749 208.257C243.385 207.69 241.922 207.398 240.445 207.398V207.47Z" fill="#A866A7"/>
<path d="M31.6185 294.295C25.4595 294.298 19.4378 292.474 14.3151 289.052C9.19231 285.631 5.19864 280.766 2.83921 275.073C0.479782 269.379 -0.13941 263.114 1.05995 257.069C2.25932 251.023 5.22336 245.47 9.57716 241.11C13.931 236.751 19.4789 233.781 25.5193 232.578C31.5597 231.374 37.8212 231.99 43.5117 234.348C49.2022 236.705 54.0661 240.699 57.4883 245.824C60.9104 250.948 62.737 256.973 62.737 263.136C62.7274 271.394 59.4464 279.311 53.6131 285.152C47.7799 290.992 39.8704 294.28 31.6185 294.295ZM31.6185 236.853C26.4189 236.85 21.335 238.39 17.0101 241.278C12.6852 244.167 9.31378 248.274 7.3223 253.081C5.33082 257.888 4.80881 263.177 5.82234 268.281C6.83587 273.384 9.33938 278.072 13.0161 281.752C16.6928 285.431 21.3775 287.936 26.4775 288.951C31.5774 289.965 36.8634 289.443 41.6666 287.45C46.4698 285.457 50.5743 282.083 53.4608 277.755C56.3474 273.427 57.8862 268.34 57.8826 263.136C57.8731 256.169 55.1029 249.489 50.1795 244.562C45.2561 239.635 38.5813 236.863 31.6185 236.853Z" fill="url(#paint0_linear_308_13638)"/>
<path d="M161.092 62.281C154.937 62.281 148.921 60.4546 143.803 57.0329C138.686 53.6111 134.697 48.7476 132.342 43.0575C129.987 37.3673 129.37 31.106 130.571 25.0653C131.772 19.0246 134.736 13.4759 139.088 9.12085C143.44 4.76578 148.984 1.79993 155.021 0.59837C161.057 -0.603193 167.314 0.0134926 173 2.37044C178.686 4.72739 183.546 8.71875 186.966 13.8398C190.385 18.9608 192.21 24.9815 192.21 31.1405C192.2 39.3965 188.919 47.3117 183.085 53.1496C177.251 58.9875 169.342 62.2714 161.092 62.281ZM161.092 4.85779C155.897 4.85779 150.819 6.39924 146.5 9.28722C142.181 12.1752 138.815 16.28 136.827 21.0825C134.839 25.8851 134.319 31.1697 135.332 36.268C136.346 41.3664 138.847 46.0495 142.52 49.7252C146.193 53.4009 150.873 55.9041 155.968 56.9182C161.062 57.9323 166.343 57.4119 171.142 55.4226C175.942 53.4333 180.043 50.0646 182.929 45.7424C185.815 41.4202 187.356 36.3387 187.356 31.1405C187.346 24.1728 184.576 17.4933 179.653 12.5664C174.729 7.63952 168.054 4.86738 161.092 4.85779Z" fill="url(#paint1_linear_308_13638)"/>
<path opacity="0.1" d="M187.972 59.8164H60.0019C55.9309 59.9397 52.0745 61.6722 49.2771 64.6346C46.4797 67.597 44.9694 71.5479 45.0766 75.6223V329.894C44.9694 333.969 46.4797 337.92 49.2771 340.882C52.0745 343.844 55.9309 345.577 60.0019 345.7H187.972C192.043 345.577 195.899 343.844 198.697 340.882C201.494 337.92 203.004 333.969 202.897 329.894V75.6586C203.014 71.578 201.508 67.6177 198.71 64.6474C195.911 61.6771 192.049 59.9396 187.972 59.8164Z" fill="#30336B"/>
<path d="M206.538 62.6979V317.006C206.626 320.744 205.234 324.366 202.666 327.082C200.097 329.798 196.561 331.389 192.826 331.507H64.8562C61.1215 331.389 57.5848 329.798 55.0166 327.082C52.4484 324.366 51.0566 320.744 51.1445 317.006V62.6979C51.0371 58.9455 52.4196 55.3034 54.9894 52.5687C57.5592 49.834 61.107 48.2296 64.8562 48.1064H192.826C196.575 48.2296 200.123 49.834 202.693 52.5687C205.263 55.3034 206.645 58.9455 206.538 62.6979Z" fill="#F6F6F6"/>
<path d="M112.186 99.9473H74.2753C68.6533 99.9473 64.0957 104.508 64.0957 110.134V148.072C64.0957 153.698 68.6533 158.259 74.2753 158.259H112.186C117.808 158.259 122.366 153.698 122.366 148.072V110.134C122.366 104.508 117.808 99.9473 112.186 99.9473Z" fill="#A866A7"/>
<path d="M145.514 99.9473H183.443C186.148 99.9473 188.742 101.022 190.654 102.936C192.567 104.85 193.641 107.446 193.641 110.152V148.072C193.641 149.411 193.377 150.737 192.864 151.974C192.352 153.212 191.6 154.335 190.653 155.281C189.706 156.228 188.582 156.978 187.344 157.488C186.107 157.999 184.782 158.261 183.443 158.259H145.514C142.816 158.254 140.229 157.179 138.321 155.27C136.413 153.36 135.339 150.772 135.334 148.072V110.152C135.332 108.813 135.594 107.486 136.104 106.248C136.615 105.01 137.364 103.885 138.31 102.937C139.255 101.989 140.378 101.237 141.614 100.724C142.851 100.211 144.176 99.9473 145.514 99.9473Z" fill="#A866A7"/>
<path d="M112.186 169.605H74.2753C68.6533 169.605 64.0957 174.166 64.0957 179.792V217.73C64.0957 223.356 68.6533 227.917 74.2753 227.917H112.186C117.808 227.917 122.366 223.356 122.366 217.73V179.792C122.366 174.166 117.808 169.605 112.186 169.605Z" fill="#A866A7"/>
<path d="M112.186 239.245H74.2753C68.6533 239.245 64.0957 243.806 64.0957 249.432V287.37C64.0957 292.996 68.6533 297.557 74.2753 297.557H112.186C117.808 297.557 122.366 292.996 122.366 287.37V249.432C122.366 243.806 117.808 239.245 112.186 239.245Z" fill="#A866A7"/>
<path d="M145.514 239.264H183.443C186.148 239.264 188.742 240.339 190.654 242.253C192.567 244.166 193.641 246.762 193.641 249.469V287.388C193.641 290.09 192.568 292.681 190.659 294.591C188.75 296.502 186.161 297.575 183.461 297.575H145.514C142.816 297.57 140.229 296.496 138.321 294.586C136.413 292.677 135.339 290.089 135.334 287.388V249.45C135.334 248.113 135.598 246.788 136.109 245.552C136.621 244.316 137.371 243.193 138.316 242.247C139.261 241.301 140.383 240.551 141.619 240.039C142.854 239.527 144.177 239.264 145.514 239.264Z" fill="#A866A7"/>
<path d="M112.983 139.825C112.983 137.23 112.473 134.661 111.481 132.264C110.488 129.867 109.034 127.689 107.201 125.854C105.367 124.02 103.191 122.564 100.795 121.571C98.4001 120.578 95.8327 120.067 93.24 120.067C90.6472 120.067 88.0799 120.578 85.6845 121.571C83.2891 122.564 81.1126 124.02 79.2793 125.854C77.4459 127.689 75.9917 129.867 74.9995 132.264C74.0073 134.661 73.4966 137.23 73.4966 139.825H112.983Z" fill="white"/>
<path d="M95.0693 118.998C95.2042 118.997 95.3369 118.963 95.4554 118.898C95.5739 118.833 95.6744 118.74 95.748 118.627C95.8216 118.514 95.866 118.384 95.8772 118.249C95.8883 118.115 95.8659 117.98 95.8119 117.856C95.5897 117.356 95.2276 116.932 94.7695 116.635C94.3114 116.337 93.7769 116.179 93.2308 116.179C92.6846 116.179 92.1501 116.337 91.6921 116.635C91.234 116.932 90.8719 117.356 90.6496 117.856C90.595 117.981 90.5727 118.118 90.5847 118.254C90.5967 118.39 90.6427 118.521 90.7184 118.635C90.7942 118.748 90.8972 118.841 91.0181 118.904C91.139 118.968 91.2739 119 91.4104 118.998H95.0693Z" fill="white"/>
<path d="M115.627 141.329H70.8516V142.743H115.627V141.329Z" fill="white"/>
<path d="M112.983 205.93C112.983 203.336 112.473 200.766 111.481 198.369C110.488 195.972 109.034 193.794 107.201 191.96C105.367 190.125 103.191 188.67 100.795 187.677C98.4001 186.684 95.8327 186.173 93.24 186.173C90.6472 186.173 88.0799 186.684 85.6845 187.677C83.2891 188.67 81.1126 190.125 79.2793 191.96C77.4459 193.794 75.9917 195.972 74.9995 198.369C74.0073 200.766 73.4966 203.336 73.4966 205.93H112.983Z" fill="white"/>
<path d="M95.0694 185.085C95.2037 185.088 95.3365 185.056 95.4554 184.994C95.5743 184.931 95.6755 184.84 95.7496 184.728C95.8237 184.615 95.8683 184.486 95.8792 184.352C95.8901 184.218 95.867 184.084 95.812 183.961C95.5898 183.462 95.2277 183.038 94.7696 182.74C94.3115 182.443 93.7771 182.284 93.2309 182.284C92.6847 182.284 92.1503 182.443 91.6922 182.74C91.2341 183.038 90.872 183.462 90.6498 183.961C90.5991 184.086 90.5798 184.22 90.5938 184.354C90.6077 184.488 90.6544 184.616 90.7296 184.727C90.8049 184.838 90.9064 184.929 91.0252 184.991C91.144 185.054 91.2763 185.086 91.4105 185.085H95.0694Z" fill="white"/>
<path d="M115.627 207.416H70.8516V208.83H115.627V207.416Z" fill="white"/>
<path d="M184.204 139.825C184.204 134.585 182.124 129.559 178.421 125.854C174.719 122.149 169.697 120.067 164.461 120.067C159.224 120.067 154.203 122.149 150.5 125.854C146.797 129.559 144.717 134.585 144.717 139.825H184.204Z" fill="white"/>
<path d="M166.29 118.998C166.425 118.997 166.558 118.963 166.677 118.898C166.795 118.833 166.896 118.74 166.969 118.627C167.043 118.514 167.087 118.384 167.098 118.249C167.11 118.115 167.087 117.98 167.033 117.856C166.811 117.356 166.449 116.932 165.991 116.635C165.533 116.337 164.998 116.179 164.452 116.179C163.906 116.179 163.371 116.337 162.913 116.635C162.455 116.932 162.093 117.356 161.871 117.856C161.816 117.981 161.794 118.118 161.806 118.254C161.818 118.39 161.864 118.521 161.94 118.635C162.015 118.748 162.118 118.841 162.239 118.904C162.36 118.968 162.495 119 162.632 118.998H166.29Z" fill="white"/>
<path d="M186.849 141.329H142.073V142.743H186.849V141.329Z" fill="white"/>
<path d="M112.983 278.779C112.983 273.539 110.903 268.514 107.201 264.808C103.498 261.103 98.4763 259.021 93.24 259.021C88.0037 259.021 82.9819 261.103 79.2793 264.808C75.5767 268.514 73.4966 273.539 73.4966 278.779H112.983Z" fill="white"/>
<path d="M95.0695 257.952C95.2044 257.951 95.3371 257.917 95.4556 257.852C95.5741 257.787 95.6746 257.694 95.7482 257.581C95.8219 257.468 95.8662 257.338 95.8774 257.203C95.8885 257.069 95.8661 256.934 95.8121 256.81C95.5899 256.311 95.2278 255.886 94.7697 255.589C94.3116 255.291 93.7771 255.133 93.231 255.133C92.6848 255.133 92.1503 255.291 91.6923 255.589C91.2342 255.886 90.8721 256.311 90.6498 256.81C90.6 256.935 90.5813 257.071 90.5954 257.205C90.6095 257.339 90.6559 257.468 90.7308 257.581C90.8056 257.693 90.9065 257.785 91.025 257.85C91.1434 257.915 91.2757 257.95 91.4106 257.952H95.0695Z" fill="white"/>
<path d="M115.627 280.283H70.8516V281.697H115.627V280.283Z" fill="white"/>
<path d="M184.204 278.779C184.204 273.539 182.124 268.514 178.421 264.808C174.719 261.103 169.697 259.021 164.461 259.021C159.224 259.021 154.203 261.103 150.5 264.808C146.797 268.514 144.717 273.539 144.717 278.779H184.204Z" fill="white"/>
<path d="M166.29 257.952C166.425 257.951 166.558 257.917 166.676 257.852C166.795 257.787 166.895 257.694 166.969 257.581C167.043 257.468 167.087 257.338 167.098 257.203C167.109 257.069 167.087 256.934 167.033 256.81C166.811 256.311 166.448 255.886 165.99 255.589C165.532 255.291 164.998 255.133 164.452 255.133C163.906 255.133 163.371 255.291 162.913 255.589C162.455 255.886 162.093 256.311 161.871 256.81C161.821 256.935 161.802 257.071 161.816 257.205C161.83 257.339 161.877 257.468 161.951 257.581C162.026 257.693 162.127 257.785 162.246 257.85C162.364 257.915 162.496 257.95 162.631 257.952H166.29Z" fill="white"/>
<path d="M186.849 280.283H142.073V281.697H186.849V280.283Z" fill="white"/>
<path d="M140.714 164.802H188.189C190.889 164.802 193.478 165.875 195.387 167.785C197.296 169.696 198.369 172.287 198.369 174.989V222.497C198.369 225.199 197.296 227.79 195.387 229.7C193.478 231.611 190.889 232.684 188.189 232.684H140.714C138.016 232.679 135.43 231.604 133.521 229.695C131.613 227.785 130.539 225.197 130.535 222.497V175.007C130.535 172.303 131.607 169.71 133.515 167.797C135.424 165.884 138.013 164.807 140.714 164.802Z" fill="#EAD4EC"/>
<path d="M189.946 237.016H138.976C135.613 237.016 132.388 235.679 130.01 233.3C127.632 230.92 126.296 227.693 126.296 224.328V173.249C126.296 169.884 127.632 166.656 130.01 164.277C132.388 161.897 135.613 160.561 138.976 160.561H189.946C193.302 160.584 196.513 161.929 198.886 164.303C201.258 166.677 202.602 169.891 202.625 173.249V224.255C202.621 227.626 201.286 230.858 198.911 233.248C196.536 235.638 193.314 236.992 189.946 237.016ZM138.976 162.917C136.237 162.917 133.611 164.005 131.675 165.943C129.739 167.881 128.651 170.509 128.651 173.249V224.255C128.651 226.996 129.739 229.624 131.675 231.561C133.611 233.499 136.237 234.587 138.976 234.587H189.946C192.684 234.587 195.311 233.499 197.247 231.561C199.183 229.624 200.271 226.996 200.271 224.255V173.249C200.266 170.51 199.177 167.885 197.241 165.948C195.306 164.012 192.683 162.922 189.946 162.917H138.976Z" fill="url(#paint2_linear_308_13638)"/>
<g opacity="0.4">
<mask id="mask0_308_13638" style="mask-type:luminance" maskUnits="userSpaceOnUse" x="51" y="48" width="156" height="284">
<path d="M206.538 62.6979V317.006C206.626 320.744 205.234 324.366 202.666 327.082C200.097 329.798 196.561 331.389 192.826 331.507H64.8562C61.1215 331.389 57.5848 329.798 55.0166 327.082C52.4484 324.366 51.0566 320.744 51.1445 317.006V62.6979C51.0371 58.9455 52.4196 55.3034 54.9894 52.5687C57.5592 49.834 61.107 48.2296 64.8562 48.1064H192.826C196.575 48.2296 200.123 49.834 202.693 52.5687C205.263 55.3034 206.645 58.9455 206.538 62.6979Z" fill="white"/>
</mask>
<g mask="url(#mask0_308_13638)">
<path d="M235.288 57.1744L189.143 33.5342L42.6065 319.971L88.751 343.611L235.288 57.1744Z" fill="white"/>
<path d="M179.775 28.7435L163.685 20.5L17.148 306.937L33.2389 315.181L179.775 28.7435Z" fill="white"/>
</g>
</g>
<path d="M187.446 210.824C187.278 204.833 184.782 199.144 180.488 194.966C176.194 190.788 170.441 188.45 164.452 188.45C158.463 188.45 152.709 190.788 148.415 194.966C144.121 199.144 141.625 204.833 141.457 210.824H187.446Z" fill="white"/>
<path d="M166.58 186.571C166.737 186.571 166.892 186.532 167.031 186.458C167.169 186.384 167.288 186.277 167.376 186.146C167.463 186.015 167.517 185.865 167.533 185.709C167.549 185.552 167.527 185.394 167.467 185.248C167.207 184.668 166.785 184.176 166.251 183.831C165.718 183.485 165.096 183.302 164.461 183.302C163.825 183.302 163.204 183.485 162.67 183.831C162.137 184.176 161.714 184.668 161.454 185.248C161.395 185.392 161.372 185.549 161.387 185.704C161.402 185.859 161.455 186.008 161.541 186.139C161.626 186.269 161.742 186.376 161.879 186.452C162.015 186.527 162.168 186.568 162.323 186.571H166.58Z" fill="white"/>
<path d="M190.526 212.582H138.378V214.232H190.526V212.582Z" fill="white"/>
<path d="M77.3184 75.3857H64.0957V88.6177H77.3184V75.3857Z" fill="#A866A7"/>
<path d="M193.587 75.3857H86.6284V88.6177H193.587V75.3857Z" fill="#A866A7"/>
<path d="M192.826 332.794H64.8564C60.7886 332.67 56.935 330.94 54.1381 327.982C51.3413 325.023 49.8287 321.077 49.9311 317.006V62.6975C49.8238 58.6231 51.3342 54.6722 54.1316 51.7098C56.929 48.7474 60.7854 47.0149 64.8564 46.8916H192.826C196.899 47.0101 200.758 48.7412 203.557 51.7046C206.355 54.6681 207.864 58.6218 207.752 62.6975V317.006C207.859 321.078 206.348 325.027 203.55 327.987C200.752 330.946 196.896 332.675 192.826 332.794ZM64.8564 49.3205C61.429 49.4434 58.1898 50.9199 55.8476 53.4269C53.5053 55.9338 52.2507 59.2672 52.3583 62.6975V317.006C52.2556 320.433 53.5124 323.762 55.8541 326.265C58.1959 328.768 61.4323 330.242 64.8564 330.365H192.826C196.252 330.246 199.491 328.774 201.834 326.27C204.177 323.766 205.432 320.434 205.325 317.006V62.6975C205.432 59.2672 204.178 55.9338 201.835 53.4269C199.493 50.9199 196.254 49.4434 192.826 49.3205H64.8564Z" fill="#30336B"/>
<path d="M206.538 315.393V317.024C206.626 320.762 205.234 324.384 202.666 327.1C200.097 329.816 196.561 331.406 192.826 331.525H64.8562C61.1215 331.406 57.5849 329.816 55.0166 327.1C52.4484 324.384 51.0567 320.762 51.1445 317.024V315.393H206.538Z" fill="#30336B"/>
<path d="M51.2172 64.3111V62.6979C51.1098 58.9455 52.4923 55.3034 55.0621 52.5687C57.6319 49.834 61.1797 48.2296 64.9289 48.1064H192.899C196.648 48.2296 200.196 49.834 202.766 52.5687C205.335 55.3034 206.718 58.9455 206.61 62.6979V64.3111H51.2172Z" fill="#30336B"/>
<path d="M223.945 108.756C223.941 98.7442 221.415 88.8947 216.598 80.1192C211.782 71.3436 204.832 63.9255 196.39 58.5514C187.949 53.1772 178.289 50.0205 168.305 49.3735C158.321 48.7264 148.335 50.6099 139.272 54.8497C130.208 59.0894 122.359 65.5484 116.452 73.629C110.545 81.7096 106.77 91.1507 105.476 101.079C104.183 111.007 105.413 121.101 109.052 130.427C112.691 139.753 118.622 148.01 126.296 154.434C138.752 165 148.901 178.019 156.111 192.68L158.828 198.118C159.349 199.164 160.152 200.044 161.145 200.659C162.139 201.274 163.284 201.599 164.452 201.599C165.62 201.599 166.765 201.274 167.758 200.659C168.752 200.044 169.554 199.164 170.076 198.118L173.137 192.009C180.508 177.442 190.719 164.499 203.169 153.944C209.687 148.36 214.92 141.43 218.506 133.629C222.093 125.828 223.948 117.343 223.945 108.756Z" fill="#A866A7"/>
<path d="M164.461 159.872C192.681 159.872 215.558 136.978 215.558 108.738C215.558 80.4978 192.681 57.6045 164.461 57.6045C136.241 57.6045 113.364 80.4978 113.364 108.738C113.364 136.978 136.241 159.872 164.461 159.872Z" fill="#A866A7"/>
<path d="M164.461 157.171C191.191 157.171 212.859 135.487 212.859 108.738C212.859 81.9898 191.191 60.3057 164.461 60.3057C137.731 60.3057 116.062 81.9898 116.062 108.738C116.062 135.487 137.731 157.171 164.461 157.171Z" fill="white"/>
<path d="M160.277 86.8414C141.584 89.5422 121.985 102.049 121.985 114.465C121.985 126.882 124.829 136.887 156.165 136.942C179.006 136.942 206.882 117.348 206.882 104.931C206.882 92.5148 193.442 82.0199 160.277 86.8414ZM172.177 126.719C156.98 132.156 135.462 133.625 130.643 119.994C125.825 106.363 138.16 99.6927 153.194 94.0374C168.228 88.3821 187.465 87.7477 193.895 94.4181C201.249 102.031 196.739 117.982 172.177 126.719Z" fill="#EAD4EC"/>
<path d="M192.301 98.4064C185.871 91.736 166.689 92.3161 151.601 98.0258C136.513 103.735 124.25 110.37 129.104 124C133.959 137.631 155.441 136.127 170.638 130.707C195.145 121.97 199.637 106.019 192.301 98.4064Z" fill="#30336B"/>
<path d="M193.895 94.419C187.465 87.7486 168.283 88.3105 153.195 94.0384C138.106 99.7662 125.844 106.364 130.644 119.995C135.444 133.626 156.98 132.121 172.177 126.72C196.739 117.983 201.249 102.032 193.895 94.419ZM169.352 122.152C157.705 126.303 141.276 128.025 137.599 117.584C133.922 107.143 144.138 102.141 155.712 97.7723C167.287 93.4039 181.94 92.9508 186.867 98.0442C192.5 103.881 188.153 115.463 169.352 122.152Z" fill="#E87658"/>
<path d="M169.351 122.151C157.704 126.302 141.276 128.024 137.599 117.584C133.922 107.143 144.138 102.14 155.712 97.7719C167.286 93.4036 181.94 92.9504 186.867 98.0438C192.5 103.88 188.153 115.463 169.351 122.151Z" fill="#EFA147"/>
<path d="M167.323 103.681C167.323 104.351 166.272 104.895 164.968 104.895C163.664 104.895 162.631 104.351 162.631 103.681C162.631 103.01 163.682 102.484 164.968 102.484C166.254 102.484 167.323 103.028 167.323 103.681Z" fill="#E87658"/>
<path d="M174.894 100.273C174.894 100.926 173.843 101.469 172.557 101.469C171.271 101.469 170.203 100.926 170.203 100.273C170.203 99.6205 171.253 99.0586 172.557 99.0586C173.861 99.0586 174.894 99.693 174.894 100.273Z" fill="#FFC483"/>
<path d="M163.519 99.0772C163.519 99.7297 162.468 100.273 161.182 100.273C159.896 100.273 158.846 99.7297 158.846 99.0772C158.846 98.4246 159.896 97.8809 161.092 97.8809C162.287 97.8809 163.519 98.4065 163.519 99.0772Z" fill="#FFC483"/>
<path d="M157.94 108.357C157.94 109.028 156.908 109.554 155.604 109.554C154.3 109.554 153.267 109.028 153.267 108.357C153.267 107.687 154.318 107.161 155.604 107.161C156.89 107.161 157.94 107.687 157.94 108.357Z" fill="#E87658"/>
<path d="M155.441 103.953C155.441 104.605 154.39 105.149 153.104 105.149C151.818 105.149 150.84 104.605 150.84 103.953C150.84 103.3 151.872 102.738 153.176 102.738C154.481 102.738 155.441 103.318 155.441 103.953Z" fill="#E87658"/>
<path d="M147.743 113.143C147.743 113.796 146.692 114.339 145.406 114.339C144.12 114.339 143.051 113.796 143.051 113.143C143.051 112.491 144.102 111.929 145.406 111.929C146.71 111.929 147.743 112.472 147.743 113.143Z" fill="#FFC483"/>
<path d="M146.021 109.772C146.021 110.442 144.971 110.968 143.667 110.968C142.363 110.968 141.33 110.442 141.33 109.772C141.33 109.101 142.381 108.575 143.667 108.575C144.953 108.575 146.021 109.101 146.021 109.772Z" fill="#E87658"/>
<path d="M170.764 110.388C170.764 111.058 169.714 111.584 168.427 111.584C167.141 111.584 166.073 111.058 166.073 110.388C166.073 109.717 167.123 109.191 168.427 109.191C169.732 109.191 170.764 109.717 170.764 110.388Z" fill="#FFC483"/>
<path d="M180.346 105.585C180.346 106.237 179.295 106.781 178.009 106.781C176.723 106.781 175.673 106.237 175.673 105.585C175.673 104.932 176.723 104.37 178.009 104.37C179.295 104.37 180.346 104.914 180.346 105.585Z" fill="#E87658"/>
<path d="M175.963 115.463C177.253 115.463 178.299 114.927 178.299 114.267C178.299 113.606 177.253 113.07 175.963 113.07C174.672 113.07 173.626 113.606 173.626 114.267C173.626 114.927 174.672 115.463 175.963 115.463Z" fill="#E87658"/>
<path d="M163.935 113.85C163.935 114.52 162.885 115.064 161.599 115.064C160.313 115.064 159.244 114.52 159.244 113.85C159.244 113.179 160.295 112.653 161.599 112.653C162.903 112.653 163.935 113.197 163.935 113.85Z" fill="#FFC483"/>
<path d="M164.606 120.847C165.896 120.847 166.942 120.311 166.942 119.65C166.942 118.99 165.896 118.454 164.606 118.454C163.315 118.454 162.269 118.99 162.269 119.65C162.269 120.311 163.315 120.847 164.606 120.847Z" fill="#FFC483"/>
<path d="M152.524 121.879C152.524 122.532 151.492 123.076 150.188 123.076C148.884 123.076 147.851 122.532 147.851 121.879C147.851 121.227 148.902 120.665 150.188 120.665C151.474 120.665 152.524 121.209 152.524 121.879Z" fill="#FFC483"/>
<path d="M155.73 118.726C157.021 118.726 158.067 118.19 158.067 117.529C158.067 116.869 157.021 116.333 155.73 116.333C154.44 116.333 153.394 116.869 153.394 117.529C153.394 118.19 154.44 118.726 155.73 118.726Z" fill="#E87658"/>
<mask id="mask1_308_13638" style="mask-type:luminance" maskUnits="userSpaceOnUse" x="129" y="89" width="69" height="42">
<path d="M193.895 94.419C187.465 87.7486 168.283 88.3105 153.195 94.0384C138.106 99.7662 125.844 106.364 130.644 119.995C135.444 133.626 156.98 132.121 172.177 126.72C196.739 117.983 201.249 102.032 193.895 94.419Z" fill="white"/>
</mask>
<g mask="url(#mask1_308_13638)">
<path d="M163.302 110.098L153.774 98.479C153.915 97.9968 153.946 97.4891 153.864 96.9934C153.783 96.4977 153.591 96.0267 153.303 95.6151C153 95.364 152.642 95.1861 152.259 95.0949C151.876 95.0038 151.477 95.0019 151.093 95.0894C151.048 95.0949 151.002 95.0829 150.965 95.056C150.928 95.0292 150.903 94.9893 150.894 94.9444C150.892 94.9215 150.894 94.8983 150.901 94.8764C150.908 94.8545 150.92 94.8343 150.935 94.8172C150.95 94.8 150.969 94.7864 150.99 94.7771C151.011 94.7678 151.034 94.763 151.057 94.7632C151.491 94.6595 151.944 94.6596 152.378 94.7635C152.813 94.8675 153.216 95.0722 153.557 95.3613C153.877 95.8024 154.094 96.3102 154.191 96.8469C154.289 97.3835 154.264 97.9352 154.118 98.4609L163.374 109.717L184.874 96.6483C184.657 93.9294 184.874 91.4099 188.334 91.0655C188.381 91.0647 188.427 91.0806 188.464 91.1105C188.5 91.1404 188.525 91.1822 188.533 91.2286C188.534 91.2737 188.517 91.3172 188.487 91.3508C188.457 91.3843 188.415 91.4053 188.37 91.4098C185.4 91.6999 184.965 93.7481 185.219 96.7208V96.8295L163.302 110.098Z" fill="#E84D4F"/>
<path d="M175.89 125.451C175.869 125.449 175.848 125.442 175.829 125.432C175.81 125.421 175.794 125.407 175.78 125.391C175.767 125.374 175.757 125.354 175.751 125.334C175.745 125.313 175.743 125.291 175.746 125.27C175.857 124.72 175.85 124.152 175.725 123.605C175.6 123.059 175.36 122.544 175.021 122.098C174.636 121.765 174.186 121.517 173.699 121.371C173.212 121.224 172.7 121.181 172.195 121.246L163.447 110.152L138.505 119.741C138.065 119.347 137.541 119.059 136.972 118.899C136.404 118.739 135.807 118.711 135.226 118.817C134.013 119.125 132.926 120.376 131.966 122.442C131.936 122.469 131.897 122.483 131.857 122.483C131.817 122.483 131.778 122.469 131.749 122.442C131.722 122.412 131.707 122.373 131.707 122.333C131.707 122.293 131.722 122.254 131.749 122.224C132.763 119.959 133.904 118.599 135.244 118.327C135.858 118.214 136.488 118.24 137.09 118.403C137.692 118.566 138.25 118.862 138.722 119.27L163.41 109.663L172.25 120.901C172.79 120.84 173.338 120.894 173.856 121.06C174.374 121.225 174.851 121.499 175.256 121.862C175.626 122.343 175.89 122.897 176.031 123.487C176.171 124.078 176.185 124.691 176.072 125.288C176.064 125.331 176.042 125.371 176.009 125.4C175.976 125.43 175.934 125.448 175.89 125.451Z" fill="#E84D4F"/>
</g>
<path d="M226.577 69.307C229.334 57.5535 222.047 45.7889 210.302 43.03C198.557 40.2711 186.801 47.5626 184.044 59.3161C181.287 71.0696 188.573 82.8342 200.318 85.5931C212.063 88.352 223.82 81.0605 226.577 69.307Z" fill="#55B938"/>
<path d="M221.01 57.0793L202.499 75.6223L189.638 62.7528L193.714 58.6744L202.499 67.4656L216.935 53.001L221.01 57.0793Z" fill="white"/>
</g>
<defs>
<linearGradient id="paint0_linear_308_13638" x1="0.500108" y1="263.136" x2="62.737" y2="263.136" gradientUnits="userSpaceOnUse">
<stop stop-color="#9B4D9C"/>
<stop offset="1" stop-color="#E1C9E6"/>
</linearGradient>
<linearGradient id="paint1_linear_308_13638" x1="161.092" y1="17.3466" x2="161.092" y2="46.5114" gradientUnits="userSpaceOnUse">
<stop stop-color="#9B4D9C"/>
<stop offset="1" stop-color="#E1C9E6"/>
</linearGradient>
<linearGradient id="paint2_linear_308_13638" x1="164.461" y1="160.561" x2="164.461" y2="237.016" gradientUnits="userSpaceOnUse">
<stop stop-color="#9B4D9C"/>
<stop offset="1" stop-color="#722B79"/>
</linearGradient>
<clipPath id="clip0_308_13638">
<rect width="264" height="384" fill="white" transform="translate(0.5)"/>
</clipPath>
</defs>
</svg>
