<svg width="44" height="19" viewBox="0 0 44 19" fill="none" xmlns="http://www.w3.org/2000/svg">
<g clip-path="url(#clip0_308_88384)">
<path d="M8.1728 2.72104C7.659 3.32903 6.83693 3.80857 6.01485 3.74007C5.9121 2.91799 6.31457 2.04454 6.78555 1.50505C7.29935 0.879934 8.19849 0.434644 8.92637 0.400391C9.012 1.25672 8.67803 2.09592 8.1728 2.72104ZM8.91781 3.90277C7.72751 3.83426 6.70848 4.57927 6.1433 4.57927C5.56956 4.57927 4.70467 3.93702 3.76271 3.95415C2.53817 3.97128 1.39925 4.6649 0.774131 5.76956C-0.51036 7.97889 0.440163 11.2501 1.68184 13.0483C2.28983 13.9389 3.01771 14.9151 3.9768 14.8809C4.8845 14.8466 5.24416 14.29 6.34026 14.29C7.44492 14.29 7.76176 14.8809 8.72085 14.8638C9.71419 14.8466 10.3393 13.9732 10.9473 13.0826C11.6409 12.0721 11.9235 11.0874 11.9406 11.036C11.9235 11.0188 10.0225 10.291 10.0053 8.09877C9.98821 6.26623 11.5039 5.39278 11.5724 5.3414C10.7161 4.07403 9.38022 3.93702 8.91781 3.90277ZM15.7941 1.41942V14.7696H17.8664V10.2053H20.7351C23.3555 10.2053 25.1966 8.40705 25.1966 5.80382C25.1966 3.20058 23.3897 1.41942 20.8036 1.41942H15.7941ZM17.8664 3.16633H20.2556C22.0539 3.16633 23.0815 4.12541 23.0815 5.81238C23.0815 7.49934 22.0539 8.46699 20.247 8.46699H17.8664V3.16633ZM28.9816 14.8723C30.2832 14.8723 31.4906 14.213 32.0386 13.1682H32.0815V14.7696H33.9996V8.12446C33.9996 6.19773 32.4582 4.95605 30.0862 4.95605C27.8855 4.95605 26.2584 6.21485 26.1985 7.94463H28.0653C28.2194 7.12256 28.9816 6.58307 30.0263 6.58307C31.2936 6.58307 32.0044 7.17394 32.0044 8.26148V8.99792L29.4183 9.15206C27.012 9.29763 25.7104 10.2824 25.7104 11.9951C25.7104 13.7248 27.0548 14.8723 28.9816 14.8723ZM29.5382 13.2881C28.4335 13.2881 27.7313 12.7572 27.7313 11.9437C27.7313 11.1045 28.4078 10.6164 29.7009 10.5393L32.0044 10.3937V11.1473C32.0044 12.3975 30.9425 13.2881 29.5382 13.2881ZM36.5601 18.4004C38.581 18.4004 39.5315 17.6297 40.3622 15.2919L44.0015 5.0845H41.895L39.4544 12.9713H39.4116L36.9711 5.0845H34.8046L38.3155 14.8038L38.1271 15.3947C37.8103 16.3966 37.2965 16.7819 36.3802 16.7819C36.2175 16.7819 35.9007 16.7648 35.7722 16.7477V18.349C35.8921 18.3833 36.4059 18.4004 36.5601 18.4004Z" fill="#121212"/>
</g>
<defs>
<clipPath id="clip0_308_88384">
<rect width="43.844" height="18" fill="white" transform="translate(0.15625 0.400391)"/>
</clipPath>
</defs>
</svg>
