<svg width="141" height="140" viewBox="0 0 141 140" fill="none" xmlns="http://www.w3.org/2000/svg">
<path d="M124.1 59.9999H16.9001C15.47 59.9877 14.0538 60.2825 12.7473 60.8643C11.4408 61.4461 10.2743 62.3013 9.32649 63.3723C8.37867 64.4434 7.67162 65.7052 7.25305 67.0728C6.83448 68.4404 6.71412 69.8818 6.90009 71.2999L14.2001 126.3C14.5174 128.721 15.7095 130.942 17.5516 132.545C19.3937 134.147 21.7585 135.021 24.2001 135H116.6C119.042 135.021 121.406 134.147 123.249 132.545C125.091 130.942 126.283 128.721 126.6 126.3L133.9 71.2999C134.084 69.8985 133.969 68.4741 133.562 67.1206C133.155 65.767 132.466 64.5151 131.54 63.4474C130.614 62.3796 129.472 61.5203 128.19 60.926C126.907 60.3318 125.513 60.0161 124.1 59.9999Z" stroke="#722B79" stroke-width="8" stroke-linecap="round" stroke-linejoin="round"/>
<path d="M45.5 85V110" stroke="#722B79" stroke-width="8" stroke-linecap="round" stroke-linejoin="round"/>
<path d="M70.5 85V110" stroke="#722B79" stroke-width="8" stroke-linecap="round" stroke-linejoin="round"/>
<path d="M95.5 85V110" stroke="#722B79" stroke-width="8" stroke-linecap="round" stroke-linejoin="round"/>
<path d="M95.3 15.3999C101.29 16.4348 106.779 19.3978 110.93 23.8383C115.082 28.2787 117.67 33.9537 118.3 39.9999L120.5 59.9999" stroke="#722B79" stroke-width="8" stroke-linecap="round" stroke-linejoin="round"/>
<path d="M20.5 60.0001L22.7 40.0001C23.3712 33.9897 25.9772 28.3602 30.1255 23.9594C34.2738 19.5586 39.7397 16.6249 45.7 15.6001" stroke="#722B79" stroke-width="8" stroke-linecap="round" stroke-linejoin="round"/>
<path d="M95.5 17.5C95.5 19.1415 95.1767 20.767 94.5485 22.2835C93.9203 23.8001 92.9996 25.1781 91.8388 26.3388C90.6781 27.4996 89.3001 28.4203 87.7835 29.0485C86.267 29.6767 84.6415 30 83 30H58C54.6848 30 51.5054 28.683 49.1612 26.3388C46.817 23.9946 45.5 20.8152 45.5 17.5C45.5 14.1848 46.817 11.0054 49.1612 8.66117C51.5054 6.31696 54.6848 5 58 5H83C86.3152 5 89.4946 6.31696 91.8388 8.66117C94.183 11.0054 95.5 14.1848 95.5 17.5V17.5Z" stroke="#722B79" stroke-width="8" stroke-linecap="round" stroke-linejoin="round"/>
</svg>
