<svg width="24" height="24" viewBox="0 0 24 24" fill="none" xmlns="http://www.w3.org/2000/svg">
<g clip-path="url(#clip0_308_22943)">
<path d="M21.1885 10.2862H2.81136C2.56619 10.2841 2.32343 10.3346 2.09946 10.4344C1.87549 10.5341 1.67551 10.6807 1.51303 10.8643C1.35055 11.0479 1.22934 11.2643 1.15758 11.4987C1.08583 11.7331 1.06519 11.9802 1.09708 12.2233L2.3485 21.6519C2.4029 22.0669 2.60726 22.4477 2.92305 22.7224C3.23884 22.9972 3.64423 23.1469 4.06279 23.1433H19.9028C20.3213 23.1469 20.7267 22.9972 21.0425 22.7224C21.3583 22.4477 21.5627 22.0669 21.6171 21.6519L22.8685 12.2233C22.9 11.9831 22.8803 11.7389 22.8105 11.5069C22.7408 11.2749 22.6226 11.0602 22.4639 10.8772C22.3051 10.6941 22.1094 10.5468 21.8895 10.445C21.6697 10.3431 21.4308 10.289 21.1885 10.2862Z" stroke="#F6F6F6" stroke-linecap="round" stroke-linejoin="round"/>
<path d="M7.71436 14.5713V18.857" stroke="#F6F6F6" stroke-linecap="round" stroke-linejoin="round"/>
<path d="M12 14.5713V18.857" stroke="#F6F6F6" stroke-linecap="round" stroke-linejoin="round"/>
<path d="M16.2856 14.5713V18.857" stroke="#F6F6F6" stroke-linecap="round" stroke-linejoin="round"/>
<path d="M16.2515 2.64062C17.2784 2.81803 18.2192 3.32598 18.9309 4.0872C19.6427 4.84843 20.0863 5.82127 20.1943 6.85777L20.5715 10.2863" stroke="#F6F6F6" stroke-linecap="round" stroke-linejoin="round"/>
<path d="M3.42871 10.2862L3.80585 6.85766C3.92092 5.82731 4.36766 4.86225 5.0788 4.10783C5.78993 3.35341 6.72695 2.85048 7.74871 2.6748" stroke="#F6F6F6" stroke-linecap="round" stroke-linejoin="round"/>
<path d="M16.2858 3.00028C16.2858 3.28168 16.2304 3.56033 16.1227 3.82031C16.015 4.0803 15.8571 4.31652 15.6582 4.51551C15.4592 4.71449 15.2229 4.87233 14.963 4.98002C14.703 5.08771 14.4243 5.14314 14.1429 5.14314H9.85721C9.28889 5.14314 8.74385 4.91737 8.34198 4.51551C7.94012 4.11364 7.71436 3.5686 7.71436 3.00028C7.71436 2.43196 7.94012 1.88691 8.34198 1.48505C8.74385 1.08319 9.28889 0.857422 9.85721 0.857422H14.1429C14.7112 0.857422 15.2563 1.08319 15.6582 1.48505C16.06 1.88691 16.2858 2.43196 16.2858 3.00028V3.00028Z" stroke="#F6F6F6" stroke-linecap="round" stroke-linejoin="round"/>
</g>
<defs>
<clipPath id="clip0_308_22943">
<rect width="24" height="24" fill="white"/>
</clipPath>
</defs>
</svg>
