<svg width="24" height="24" viewBox="0 0 24 24" fill="none" xmlns="http://www.w3.org/2000/svg">
<g clip-path="url(#clip0_308_90104)">
<path d="M5.99972 12.8572C6.47311 12.8572 6.85686 12.4735 6.85686 12.0001C6.85686 11.5267 6.47311 11.1429 5.99972 11.1429C5.52633 11.1429 5.14258 11.5267 5.14258 12.0001C5.14258 12.4735 5.52633 12.8572 5.99972 12.8572Z" stroke="#722B79" stroke-linecap="round" stroke-linejoin="round"/>
<path d="M11.571 12.8572C12.0444 12.8572 12.4282 12.4735 12.4282 12.0001C12.4282 11.5267 12.0444 11.1429 11.571 11.1429C11.0976 11.1429 10.7139 11.5267 10.7139 12.0001C10.7139 12.4735 11.0976 12.8572 11.571 12.8572Z" stroke="#722B79" stroke-linecap="round" stroke-linejoin="round"/>
<path d="M17.1428 12.8572C17.6162 12.8572 17.9999 12.4735 17.9999 12.0001C17.9999 11.5267 17.6162 11.1429 17.1428 11.1429C16.6694 11.1429 16.2856 11.5267 16.2856 12.0001C16.2856 12.4735 16.6694 12.8572 17.1428 12.8572Z" stroke="#722B79" stroke-linecap="round" stroke-linejoin="round"/>
<path d="M11.9998 0.85718C9.9842 0.857807 8.00653 1.40513 6.27741 2.44086C4.54828 3.47659 3.13247 4.96193 2.18076 6.73868C1.22906 8.51543 0.777101 10.5171 0.873029 12.5304C0.968958 14.5437 1.60918 16.4932 2.7255 18.1715L0.856934 23.1429L7.11408 22.0115C8.62078 22.7477 10.2742 23.1344 11.9512 23.1428C13.6281 23.1511 15.2853 22.7807 16.7993 22.0594C18.3132 21.3381 19.6448 20.2844 20.6948 18.9768C21.7447 17.6692 22.486 16.1415 22.8634 14.5075C23.2408 12.8736 23.2445 11.1755 22.8743 9.53991C22.504 7.90432 21.7694 6.37338 20.7251 5.06123C19.6808 3.74908 18.3539 2.68956 16.8431 1.96164C15.3323 1.23372 13.6768 0.85619 11.9998 0.85718V0.85718Z" stroke="#722B79" stroke-linecap="round" stroke-linejoin="round"/>
</g>
<defs>
<clipPath id="clip0_308_90104">
<rect width="24" height="24" fill="white"/>
</clipPath>
</defs>
</svg>
