<svg width="343" height="343" viewBox="0 0 343 343" fill="none" xmlns="http://www.w3.org/2000/svg">
<path d="M32.571 143.463L67.3032 143.298L102.035 143.237L171.5 143.12L240.964 143.237L275.696 143.298L310.428 143.463L275.696 143.635L240.964 143.696L171.5 143.806L102.035 143.69L67.3032 143.635L32.571 143.463Z" fill="#EBEBEB"/>
<path d="M32.571 167.192L67.3032 167.02L102.035 166.965L171.5 166.849L240.964 166.958L275.696 167.02L310.428 167.192L275.696 167.356L240.964 167.418L171.5 167.535L102.035 167.418L67.3032 167.356L32.571 167.192Z" fill="#EBEBEB"/>
<path d="M32.571 119.762L67.3032 119.597L102.035 119.536L171.5 119.419L240.964 119.536L275.696 119.597L310.428 119.762L275.696 119.927L240.964 119.988L171.5 120.105L102.035 119.988L67.3032 119.927L32.571 119.762Z" fill="#EBEBEB"/>
<path d="M32.571 190.913L67.3032 190.749L102.035 190.687L171.5 190.57L240.964 190.687L275.696 190.749L310.428 190.913L275.696 191.085L240.964 191.14L171.5 191.256L102.035 191.14L67.3032 191.085L32.571 190.913Z" fill="#EBEBEB"/>
<path d="M32.571 214.643L67.3032 214.471L102.035 214.41L171.5 214.3L240.964 214.41L275.696 214.471L310.428 214.643L275.696 214.807L240.964 214.869L171.5 214.979L102.035 214.869L67.3032 214.807L32.571 214.643Z" fill="#EBEBEB"/>
<path d="M32.571 238.364L67.3032 238.2L102.035 238.138L171.5 238.021L240.964 238.138L275.696 238.2L310.428 238.364L275.696 238.529L240.964 238.591L171.5 238.707L102.035 238.591L67.3032 238.529L32.571 238.364Z" fill="#EBEBEB"/>
<path d="M195.222 95.7314L195.393 116.359L195.455 136.994L195.565 178.25L195.455 219.506L195.393 240.141L195.222 260.769L195.057 240.141L194.996 219.506L194.879 178.25L194.996 136.994L195.057 116.359L195.222 95.7314Z" fill="#EBEBEB"/>
<path d="M171.5 95.7314L171.664 116.359L171.726 136.994L171.843 178.25L171.726 219.506L171.671 240.141L171.5 260.769L171.328 240.141L171.273 219.506L171.157 178.25L171.273 136.994L171.335 116.359L171.5 95.7314Z" fill="#EBEBEB"/>
<path d="M147.778 95.7314L147.943 116.359L148.004 136.994L148.114 178.25L148.004 219.506L147.943 240.141L147.778 260.769L147.607 240.141L147.545 219.506L147.435 178.25L147.545 136.994L147.607 116.359L147.778 95.7314Z" fill="#EBEBEB"/>
<path d="M124.049 95.7314L124.214 116.359L124.275 136.994L124.392 178.25L124.275 219.506L124.221 240.141L124.049 260.769L123.884 240.141L123.823 219.506L123.706 178.25L123.823 136.994L123.884 116.359L124.049 95.7314Z" fill="#EBEBEB"/>
<path d="M266.401 95.7314L266.566 116.359L266.628 136.994L266.744 178.25L266.628 219.506L266.566 240.141L266.401 260.769L266.23 240.141L266.168 219.506L266.058 178.25L266.175 136.994L266.23 116.359L266.401 95.7314Z" fill="#EBEBEB"/>
<path d="M242.673 95.7314L242.844 116.359L242.899 136.994L243.016 178.25L242.899 219.506L242.844 240.141L242.673 260.769L242.508 240.141L242.446 219.506L242.33 178.25L242.446 136.994L242.508 116.359L242.673 95.7314Z" fill="#EBEBEB"/>
<path d="M218.95 95.7314L219.115 116.359L219.177 136.994L219.293 178.25L219.177 219.506L219.115 240.141L218.95 260.769L218.779 240.141L218.724 219.506L218.607 178.25L218.724 136.994L218.786 116.359L218.95 95.7314Z" fill="#EBEBEB"/>
<path d="M290.123 95.7314L290.287 116.359L290.349 136.994L290.466 178.25L290.349 219.506L290.294 240.141L290.123 260.769L289.958 240.141L289.896 219.506L289.78 178.25L289.896 136.994L289.958 116.359L290.123 95.7314Z" fill="#EBEBEB"/>
<path d="M266.401 95.7314L266.566 116.359L266.628 136.994L266.744 178.25L266.628 219.506L266.566 240.141L266.401 260.769L266.23 240.141L266.168 219.506L266.058 178.25L266.175 136.994L266.23 116.359L266.401 95.7314Z" fill="#EBEBEB"/>
<path d="M100.327 95.7314L100.492 116.359L100.554 136.994L100.67 178.25L100.554 219.506L100.492 240.141L100.327 260.769L100.156 240.141L100.094 219.506L99.9844 178.25L100.101 136.994L100.156 116.359L100.327 95.7314Z" fill="#EBEBEB"/>
<path d="M76.5986 95.7314L76.7701 116.359L76.825 136.994L76.9416 178.25L76.8319 219.506L76.7701 240.141L76.5986 260.769L76.434 240.141L76.3722 219.506L76.2556 178.25L76.3722 136.994L76.434 116.359L76.5986 95.7314Z" fill="#EBEBEB"/>
<path d="M52.8767 95.7314L53.0413 116.359L53.1031 136.994L53.2197 178.25L53.1031 219.506L53.0413 240.141L52.8767 260.769L52.7052 240.141L52.6503 219.506L52.5337 178.25L52.6503 136.994L52.7052 116.359L52.8767 95.7314Z" fill="#EBEBEB"/>
<path d="M141.823 39.5889H32.0635V48.0335H141.823V39.5889Z" fill="#EBEBEB"/>
<path d="M128.426 126.176C127.44 126.126 126.474 125.873 125.591 125.431C124.708 124.99 123.926 124.37 123.295 123.61C120.338 120.386 118.767 114.761 119.179 108.923C119.467 104.979 121.305 99.9091 123.082 95.0111C124.859 90.1131 126.587 85.3522 126.629 82.1006L127.116 43.6846H129.469V44.5832H128.014L127.541 82.1006C127.493 85.5306 125.771 90.264 123.939 95.3061C122.183 100.149 120.372 105.15 120.091 108.978C119.679 114.576 121.161 119.954 123.96 122.986C124.508 123.656 125.189 124.205 125.96 124.597C126.731 124.989 127.576 125.216 128.44 125.264L128.426 126.176Z" fill="#EBEBEB"/>
<path d="M130.518 125.826C129.858 126.063 129.161 126.181 128.46 126.176V125.277C129.324 125.249 130.173 125.043 130.953 124.671C131.734 124.299 132.429 123.77 132.994 123.116C135.869 120.139 137.488 114.816 137.22 109.211C137.042 105.376 135.354 100.327 133.722 95.4431C132.02 90.353 130.422 85.551 130.463 82.1484L130.943 44.6379H129.489V43.7393H131.835L131.348 82.1553C131.307 85.4069 132.885 90.1403 134.558 95.1481C136.232 100.156 137.92 105.205 138.105 109.163C138.386 115.001 136.671 120.585 133.632 123.734C132.769 124.662 131.703 125.378 130.518 125.826Z" fill="#EBEBEB"/>
<path d="M128.426 126.176C127.942 126.149 127.469 126.022 127.036 125.802C126.604 125.583 126.222 125.275 125.915 124.9C123.405 122.225 121.957 115.824 122.321 108.978C122.526 105.047 123.741 99.9846 124.921 95.0865C126.101 90.1885 127.26 85.3865 127.301 82.1074L127.788 43.6914H129.482V44.5901H128.694L128.213 82.1074C128.165 85.4825 127.027 90.2434 125.812 95.2786C124.639 100.142 123.432 105.164 123.233 108.999C122.89 115.522 124.269 121.799 126.581 124.269C126.81 124.552 127.094 124.785 127.416 124.955C127.738 125.125 128.091 125.227 128.453 125.257L128.426 126.176Z" fill="#EBEBEB"/>
<path d="M129.421 126.011C129.102 126.127 128.765 126.183 128.426 126.176H127.98L129.03 43.7119H131.17L130.683 82.1279C130.642 85.4001 131.65 90.1404 132.741 95.1619C133.832 100.183 134.881 105.184 134.984 109.115C135.169 115.975 133.564 122.334 130.985 124.948C130.553 125.419 130.017 125.783 129.421 126.011ZM128.892 125.229C129.447 125.073 129.946 124.764 130.333 124.338C132.707 121.93 134.25 115.687 134.072 109.163C133.969 105.308 132.892 100.245 131.842 95.3677C130.765 90.305 129.736 85.5168 129.784 82.1416L130.264 44.6243H129.921L128.892 125.229Z" fill="#EBEBEB"/>
<path d="M125.641 41.9143L125.256 72.2424L132.974 72.3384L133.365 41.8389L125.641 41.9143Z" fill="#A6A6A6"/>
<path d="M88.5761 63.5576H85.3176V104.745H88.5761V63.5576Z" fill="#EBEBEB"/>
<path d="M95.7655 102.948H78.1216L77.2229 127.596H96.671L95.7655 102.948ZM83.246 124.674H81.4144V106.467H83.246V124.674ZM87.8559 124.674H86.038V106.467H87.8559V124.674ZM92.4658 124.674H90.6411V106.467H92.4658V124.674Z" fill="#EBEBEB"/>
<path d="M83.6369 41.9143L83.2458 72.2424L90.9702 72.3384L91.3612 41.8389L83.6369 41.9143Z" fill="#A6A6A6"/>
<path d="M46.2294 82.9237V63.1943H41.0981V123.418H65.8559V82.9443L46.2294 82.9237ZM60.8755 90.0169C60.5835 90.0169 60.2981 89.9303 60.0554 89.7679C59.8127 89.6055 59.6237 89.3748 59.5123 89.1049C59.4008 88.835 59.372 88.5381 59.4295 88.2518C59.487 87.9655 59.6281 87.7027 59.8351 87.4967C60.042 87.2907 60.3055 87.1508 60.592 87.0946C60.8786 87.0385 61.1753 87.0687 61.4447 87.1814C61.7141 87.2941 61.944 87.4842 62.1052 87.7276C62.2664 87.9711 62.3518 88.2569 62.3504 88.5489C62.3504 88.7423 62.3122 88.9337 62.238 89.1123C62.1638 89.2908 62.0551 89.453 61.918 89.5894C61.781 89.7258 61.6183 89.8338 61.4394 89.9072C61.2605 89.9805 61.0689 90.0178 60.8755 90.0169Z" fill="#EBEBEB"/>
<path d="M40.3778 41.9143L39.9868 72.2424L47.7112 72.3384L48.1022 41.8389L40.3778 41.9143Z" fill="#A6A6A6"/>
<path d="M202.61 123.288H314.201L317.796 39.5889H199.015L202.61 123.288Z" fill="#EBEBEB"/>
<path d="M256.036 115.598H210.904L207.961 47.6836H256.036V115.598ZM211.562 114.912H255.35V48.3696H208.702L211.562 114.912Z" fill="#DBDBDB"/>
<path d="M251.961 93.1173H247.275V68.5996H251.961V93.1173ZM247.961 92.4313H251.275V69.2856H247.961V92.4313Z" fill="#DBDBDB"/>
<path d="M305.908 115.598H260.776V47.6836H308.851L305.908 115.598ZM261.462 114.912H305.27L308.151 48.3696H261.503L261.462 114.912Z" fill="#DBDBDB"/>
<path d="M269.536 93.1173H264.851V68.5996H269.536V93.1173ZM265.537 92.4313H268.85V69.2856H265.537V92.4313Z" fill="#DBDBDB"/>
<path d="M171.5 304.063C247.152 304.063 308.48 299.993 308.48 294.973C308.48 289.953 247.152 285.884 171.5 285.884C95.8478 285.884 34.5195 289.953 34.5195 294.973C34.5195 299.993 95.8478 304.063 171.5 304.063Z" fill="#EBEBEB"/>
<path d="M30.3281 262.697L65.6228 262.532L100.911 262.47L171.5 262.354L242.083 262.47L277.377 262.532L312.672 262.697L277.377 262.868L242.083 262.923L171.5 263.039L100.911 262.923L65.6228 262.861L30.3281 262.697Z" fill="#263238"/>
<path d="M147.579 144.664C143.463 142.743 131.547 143.374 126.519 148.355C121.491 153.335 119.714 162.809 121.443 164.133C123.171 165.457 131.616 166.602 138.003 164.723C144.389 162.843 149.617 145.617 147.579 144.664Z" fill="#263238"/>
<path d="M147.586 144.697C147.737 144.697 147.806 144.457 147.641 144.416C143.854 143.476 139.484 143.86 135.622 144.1C132.501 144.299 129.27 144.636 126.464 146.104C125.117 146.789 123.934 147.759 122.997 148.945C122.06 150.132 121.392 151.508 121.038 152.977C120.174 156.311 119.748 160.482 120.743 163.823C120.743 163.919 120.942 163.933 120.935 163.823C120.585 157.086 120.77 148.992 128.035 146.062C134.202 143.579 141.151 144.67 147.586 144.697Z" fill="#263238"/>
<path d="M122.437 162.637C118.52 162.28 107.023 167.336 103.758 174.217C100.492 181.097 104.005 193.095 105.699 194.282C107.393 195.469 117.361 190.392 121.216 185.899C123.802 182.901 123.233 178.607 123.274 174.47C123.343 168.372 123.048 162.692 122.437 162.637Z" fill="#263238"/>
<path d="M123.699 185.495C126.443 178.367 123.905 170.135 122.862 162.911C122.862 162.836 122.725 162.843 122.725 162.911C122.725 169.614 125.284 176.206 123.912 182.915C123.096 186.901 120.852 190.461 117.052 192.197C113.752 193.679 109.979 193.857 106.433 194.296C106.2 194.296 106.275 194.673 106.501 194.653C113.519 193.974 120.846 192.855 123.699 185.495Z" fill="#263238"/>
<path d="M121.463 163.138C121.676 163.083 121.614 162.754 121.401 162.802C115.42 164.174 108.072 166.465 103.956 171.308C99.5043 176.556 101.274 183.471 102.879 189.453C102.879 189.528 103.017 189.508 102.996 189.453C101.453 183.395 100.033 176 104.883 170.999C109.074 166.698 115.804 164.51 121.463 163.138Z" fill="#263238"/>
<path d="M106.172 194.186C108.23 196.244 110.549 201.636 109.815 206.883C108.559 215.87 112.305 215.198 120.921 220.391C128.2 224.774 127.095 234.111 121.545 237.163C121.545 237.163 125.661 232.492 121.209 228.163C115.858 222.984 99.2572 225.11 94.8188 213.874C89.0907 199.331 106.172 194.186 106.172 194.186Z" fill="#263238"/>
<path d="M108.292 199.18C108.223 199.036 108.477 198.912 108.553 199.063C109.281 200.472 109.746 202.001 109.925 203.577C110.158 205.635 109.582 207.604 109.671 209.655C109.904 214.868 115.612 216.481 119.618 218.052C124.989 220.164 128.364 224.912 126.889 230.804C126.885 230.822 126.873 230.838 126.857 230.848C126.841 230.857 126.822 230.86 126.804 230.856C126.785 230.851 126.77 230.84 126.76 230.824C126.75 230.807 126.748 230.788 126.752 230.77C127.191 228.948 127.121 227.041 126.552 225.256C125.982 223.471 124.934 221.876 123.521 220.645C120.736 218.278 116.887 217.859 113.8 216.014C111.694 214.745 109.726 213.064 109.362 210.526C109.283 209.112 109.352 207.693 109.568 206.293C109.754 203.852 109.315 201.404 108.292 199.18Z" fill="#263238"/>
<path d="M104.402 194.769C104.471 194.769 104.519 194.844 104.457 194.871C100.382 196.971 96.1154 199.029 93.8104 203.241C91.334 207.775 92.3081 213.4 95.1824 217.516C98.4135 222.119 103.469 221.982 108.511 222.545C112.161 222.956 115.797 223.642 118.801 225.879C118.891 225.947 118.801 226.098 118.685 226.043C113.643 223.08 108.155 223.135 102.543 222.325C97.9607 221.639 94.9972 219.074 93.2548 214.779C89.4269 205.395 95.8959 198.048 104.402 194.769Z" fill="#263238"/>
<path d="M145.123 139.944C144.259 138.14 141.474 139.525 142.345 141.316C143.216 143.106 145.994 141.741 145.123 139.944Z" fill="#A866A7"/>
<path d="M145.734 142.763C144.863 140.966 142.078 142.352 142.949 144.135C143.82 145.919 146.605 144.574 145.734 142.763Z" fill="#A866A7"/>
<path d="M146.804 145.473C145.933 143.669 143.148 145.055 144.019 146.845C144.89 148.635 147.703 147.284 146.804 145.473Z" fill="#A866A7"/>
<path d="M148.238 147.943C147.367 146.139 144.582 147.524 145.453 149.315C146.324 151.105 149.102 149.754 148.238 147.943Z" fill="#A866A7"/>
<path d="M150.083 150.186C149.212 148.382 146.434 149.767 147.298 151.558C148.162 153.348 150.954 151.99 150.083 150.186Z" fill="#A866A7"/>
<path d="M152.223 151.99C151.352 150.185 148.567 151.571 149.438 153.362C150.309 155.152 153.095 153.794 152.223 151.99Z" fill="#A866A7"/>
<path d="M159.488 176.645C171.624 191.051 181.715 209.443 187.086 213.881C189.899 216.207 230.558 219.554 235.175 220.439C242.213 221.811 231.745 255.302 226.984 253.999C223.897 253.155 177.914 249.519 169.264 239.846C162.61 232.396 151.977 200.209 149.109 186.043C145.926 170.307 154.645 170.896 159.488 176.645Z" fill="#C95F50"/>
<path d="M223.855 218.965C237.85 216.097 253.278 214.979 266.875 221.125C268.403 221.766 269.67 222.905 270.469 224.357C276.643 227.004 277.213 230.702 277.213 230.702C282.179 234.914 282.268 238.776 282.268 238.776C282.268 238.776 289.444 241.966 288.237 246.624C286.899 251.851 277.082 246.35 269.838 246.624C253.23 247.269 229.803 252.798 225.035 253.484L223.855 218.965Z" fill="#C95F50"/>
<path d="M251.961 235.072C256.852 234.983 261.654 234.763 266.531 235.339C271.882 235.964 276.931 237.466 282.104 238.865C282.136 238.874 282.17 238.87 282.2 238.855C282.229 238.839 282.251 238.813 282.262 238.781C282.273 238.749 282.271 238.715 282.256 238.684C282.242 238.654 282.217 238.631 282.186 238.618C273.227 234.605 261.606 233.336 251.954 234.852C251.721 234.886 251.714 235.079 251.961 235.072Z" fill="#263238"/>
<path d="M250.116 225.104C254.883 225.282 263.252 225.646 277.158 230.846C277.199 230.846 277.247 230.791 277.199 230.77C268.617 226.188 259.761 224.425 250.129 224.877C249.827 224.891 249.8 225.097 250.116 225.104Z" fill="#263238"/>
<path d="M249.231 219.733C257.319 220.337 262.34 221.743 270.428 224.384C270.476 224.384 270.517 224.322 270.462 224.302C261.585 220.337 257.915 219.904 249.196 219.452C248.908 219.438 248.915 219.706 249.231 219.733Z" fill="#263238"/>
<path d="M247.797 246.164C245.739 247.207 246.247 248.304 250.301 249.134C254.355 249.965 271.101 249.82 270.662 255.665C270.223 261.51 246.583 261.386 239.942 259.486C233.302 257.586 223.218 252.18 223.218 252.18C227.821 251.282 238.783 248.037 247.797 246.164Z" fill="#C95F50"/>
<path d="M219.794 216.09L214.224 255.356C214.224 255.356 172.46 248.496 165.594 240.71C158.727 232.924 151.606 201.8 148.176 186.139C144.746 170.478 153.431 165.497 163.131 178.476C172.831 191.456 183.917 211.26 186.455 212.413C188.993 213.565 219.794 216.09 219.794 216.09Z" fill="#EBEBEB"/>
<path d="M224.685 215.672C224.589 215.452 212.728 213.47 212.728 213.47C212.728 213.47 202.164 232.41 202.191 234.674C202.219 236.938 202.068 254.136 202.246 254.348C202.425 254.561 216.687 258.204 216.975 257.778C217.263 257.353 218.107 238.845 218.148 237.425C218.189 236.005 224.685 215.672 224.685 215.672Z" fill="#A866A7"/>
<path d="M203.255 253.285C190.379 250.678 170.183 245.883 165.594 240.683C158.734 232.918 151.613 201.801 148.19 186.139C146.447 178.154 147.847 172.948 150.934 171.486C158.233 182.641 188.074 228.273 203.255 253.285Z" fill="#C7C7C7"/>
<path d="M165.326 262.697L163.988 238.145C163.988 238.145 176.933 225.653 175.081 213.449C174.148 207.275 164.455 181.049 157.128 171.603C150.268 162.747 135.65 165.834 129.496 169.422C105.815 183.231 79.9121 217.071 64.3879 262.718L165.326 262.697Z" fill="#EBEBEB"/>
<path d="M134.415 169.661C134.574 171.393 134.98 173.094 135.622 174.71C136.244 176.326 137.047 177.865 138.017 179.299C139.97 182.142 142.433 184.598 145.281 186.544C148.139 188.469 151.234 190.018 154.487 191.154L155.715 191.572L156.326 191.778H156.36C156.36 191.778 156.36 191.778 156.552 191.867C156.631 191.923 156.698 191.993 156.751 192.073C156.796 192.133 156.835 192.198 156.868 192.265L157.039 192.58C157.444 193.397 157.78 194.199 158.109 195.023C158.795 196.655 159.358 198.302 159.914 199.969C161.027 203.303 161.943 206.7 162.658 210.142C163.391 213.595 163.8 217.109 163.879 220.638C164.002 224.223 163.452 227.799 162.26 231.182C161.63 232.887 160.716 234.473 159.557 235.874C158.384 237.283 156.946 238.448 155.324 239.304L155.64 238.851C155.338 240.847 155.036 242.844 154.7 244.833L153.719 250.808C153.404 252.797 153.033 254.787 152.697 256.776C152.361 258.766 152.011 260.748 151.606 262.731C151.791 260.721 152.018 258.718 152.237 256.708C152.457 254.698 152.676 252.695 152.923 250.691L153.657 244.682C153.891 242.679 154.158 240.683 154.439 238.686L154.481 238.385L154.755 238.234C156.228 237.452 157.533 236.39 158.597 235.106C159.654 233.803 160.486 232.333 161.059 230.756C162.158 227.525 162.647 224.117 162.5 220.706C162.342 213.846 160.819 206.986 158.72 200.408C158.194 198.757 157.616 197.126 156.984 195.516C156.669 194.714 156.333 193.911 155.969 193.163L155.832 192.896L155.777 192.807C155.777 192.807 155.736 192.807 155.873 192.896C156.01 192.985 155.997 192.944 155.99 192.951H155.949L155.324 192.731L154.083 192.292C150.761 191.045 147.621 189.358 144.746 187.278C141.865 185.213 139.418 182.602 137.543 179.594C136.621 178.085 135.878 176.473 135.327 174.792C134.76 173.139 134.453 171.408 134.415 169.661Z" fill="#263238"/>
<path d="M133.962 192.813C132.467 198.672 130.896 204.51 129.318 210.341L124.516 227.82L119.542 245.258L117.004 253.957L114.391 262.641L116.675 253.867L119.035 245.114L123.837 227.635L128.81 210.204C130.498 204.427 132.192 198.596 133.962 192.813Z" fill="#263238"/>
<path d="M138.133 202.37C138.133 202.788 138.009 203.196 137.777 203.544C137.545 203.891 137.215 204.162 136.829 204.322C136.443 204.482 136.018 204.524 135.608 204.442C135.198 204.36 134.822 204.159 134.526 203.864C134.231 203.568 134.029 203.192 133.948 202.782C133.866 202.372 133.908 201.947 134.068 201.561C134.228 201.175 134.499 200.845 134.846 200.613C135.194 200.381 135.602 200.257 136.02 200.257C136.58 200.257 137.118 200.479 137.514 200.876C137.91 201.272 138.133 201.809 138.133 202.37Z" fill="#263238"/>
<path d="M158.315 203.454C158.315 203.872 158.191 204.28 157.959 204.628C157.727 204.975 157.397 205.246 157.011 205.406C156.625 205.566 156.2 205.608 155.79 205.526C155.38 205.444 155.004 205.243 154.708 204.948C154.413 204.652 154.211 204.276 154.13 203.866C154.048 203.456 154.09 203.031 154.25 202.645C154.41 202.259 154.681 201.929 155.028 201.697C155.376 201.465 155.784 201.341 156.202 201.341C156.763 201.341 157.3 201.563 157.696 201.96C158.093 202.356 158.315 202.893 158.315 203.454Z" fill="#263238"/>
<path d="M131.849 220.878C133.016 220.878 133.962 219.932 133.962 218.765C133.962 217.598 133.016 216.652 131.849 216.652C130.682 216.652 129.736 217.598 129.736 218.765C129.736 219.932 130.682 220.878 131.849 220.878Z" fill="#263238"/>
<path d="M129.455 235.476C129.455 235.894 129.331 236.303 129.099 236.65C128.867 236.997 128.537 237.268 128.151 237.428C127.765 237.588 127.34 237.63 126.93 237.548C126.52 237.467 126.144 237.266 125.848 236.97C125.553 236.675 125.352 236.298 125.27 235.888C125.189 235.478 125.23 235.054 125.39 234.668C125.55 234.282 125.821 233.952 126.169 233.719C126.516 233.487 126.924 233.363 127.342 233.363C127.903 233.363 128.44 233.586 128.836 233.982C129.233 234.378 129.455 234.916 129.455 235.476Z" fill="#263238"/>
<path d="M122.705 256.831C123.872 256.831 124.818 255.885 124.818 254.718C124.818 253.551 123.872 252.605 122.705 252.605C121.538 252.605 120.592 253.551 120.592 254.718C120.592 255.885 121.538 256.831 122.705 256.831Z" fill="#263238"/>
<path d="M154.954 221.996C156.121 221.996 157.067 221.05 157.067 219.883C157.067 218.716 156.121 217.771 154.954 217.771C153.787 217.771 152.841 218.716 152.841 219.883C152.841 221.05 153.787 221.996 154.954 221.996Z" fill="#263238"/>
<path d="M148.114 257.861C149.281 257.861 150.227 256.915 150.227 255.748C150.227 254.581 149.281 253.635 148.114 253.635C146.947 253.635 146.001 254.581 146.001 255.748C146.001 256.915 146.947 257.861 148.114 257.861Z" fill="#263238"/>
<path d="M150.728 239.702C151.895 239.702 152.841 238.756 152.841 237.589C152.841 236.423 151.895 235.477 150.728 235.477C149.561 235.477 148.615 236.423 148.615 237.589C148.615 238.756 149.561 239.702 150.728 239.702Z" fill="#263238"/>
<path d="M174.69 211.912C173.804 208.662 172.617 205.502 171.143 202.473C170.924 201.979 170.697 201.492 170.457 201.005C170.438 200.167 170.326 199.334 170.121 198.521C169.91 197.62 169.616 196.741 169.243 195.894C169.243 195.846 169.14 195.894 169.154 195.894C169.408 196.758 169.641 197.636 169.84 198.521C169.956 199.091 170.039 199.653 170.128 200.222C169.655 199.173 169.188 198.123 168.701 197.074C168.276 196.168 167.857 195.27 167.439 194.364C167.02 193.458 166.561 192.505 166.149 191.572C166.149 191.531 166.053 191.572 166.074 191.572C166.76 193.177 167.35 194.81 167.981 196.429C168.612 198.048 169.229 199.619 169.874 201.231C171.223 204.263 172.407 207.366 173.421 210.526C174.313 213.634 174.422 216.915 173.736 220.075C173.013 223.16 171.829 226.118 170.224 228.849C169.325 230.441 168.283 231.943 167.274 233.48C166.266 235.016 165.154 236.464 164.201 238.014C164.197 238.027 164.197 238.04 164.201 238.053C164.205 238.065 164.213 238.076 164.224 238.084C164.234 238.092 164.247 238.096 164.26 238.095C164.274 238.095 164.286 238.091 164.297 238.083C165.47 236.896 166.499 235.586 167.569 234.317C168.616 233.045 169.592 231.717 170.492 230.338C172.337 227.632 173.727 224.643 174.608 221.488C175.427 218.352 175.455 215.062 174.69 211.912Z" fill="#263238"/>
<path d="M124.578 169.442C107.853 175.616 53.3983 204.894 50.9081 219.884C49.0559 231.024 59.5037 238.207 71.0216 237.294C81.0441 236.498 117.478 197.259 127.562 186.187C137.2 175.616 141.007 163.426 124.578 169.442Z" fill="#C95F50"/>
<path d="M124.578 169.442C107.853 175.616 53.3983 204.894 50.9081 219.884C49.0559 231.024 59.5037 238.207 71.0216 237.294C81.0441 236.498 117.478 197.259 127.562 186.187C137.2 175.616 141.007 163.426 124.578 169.442Z" fill="#EBEBEB"/>
<path d="M125.181 189.446C125.243 189.363 125.14 189.253 125.065 189.336C122.492 192.121 119.892 194.886 117.244 197.602C114.596 200.319 111.989 203.09 109.328 205.8C104.032 211.205 98.5805 216.449 92.9736 221.53C91.4026 222.957 89.8111 224.349 88.2264 225.756C86.6418 227.162 84.9679 228.541 83.4244 230.002C83.3764 230.043 83.4244 230.118 83.493 230.084C85.0503 229 86.5389 227.793 88.0275 226.606C89.5161 225.419 90.9567 224.239 92.3973 223.018C95.2785 220.576 98.1323 218.107 100.911 215.548C103.689 212.989 106.488 210.314 109.197 207.611C111.4 205.422 113.567 203.193 115.66 200.895C116.044 200.614 116.428 200.339 116.805 200.051C117.567 199.461 118.321 198.857 119.083 198.254C120.564 197.081 121.957 195.798 123.411 194.591C123.501 194.515 123.37 194.357 123.281 194.426C121.792 195.599 120.256 196.703 118.795 197.904L116.97 199.427C119.803 196.196 122.54 192.834 125.181 189.446Z" fill="#263238"/>
<path d="M156.95 173.18C156.95 173.18 153.157 185.885 150.81 185.295C143.587 183.477 139.203 171.102 139.313 169.435C139.313 169.009 143.326 159.508 146.447 152.127C148.451 147.38 150.097 143.518 150.097 143.518L164.352 160.064L157.444 172.302L156.95 173.18Z" fill="#C95F50"/>
<path d="M164.352 160.064L157.444 172.302C154.3 169.898 151.698 166.86 149.807 163.383C147.916 159.907 146.778 156.072 146.468 152.127C148.471 147.38 150.117 143.518 150.117 143.518L151.949 145.507L164.352 160.064Z" fill="#263238"/>
<path d="M189.075 149.822C179.732 172.645 165.004 169.627 160.085 167.603C155.619 165.771 140.644 158.959 147.579 135.285C154.515 111.612 168.084 108.744 178.525 112.4C188.966 116.057 198.426 126.992 189.075 149.822Z" fill="#C95F50"/>
<path d="M186.29 144.622C185.813 144.298 185.355 143.948 184.918 143.572C184.396 143.264 183.989 142.795 183.759 142.235C183.721 142.044 183.748 141.846 183.835 141.673C183.922 141.499 184.064 141.359 184.239 141.274C184.608 141.159 185.002 141.144 185.379 141.23C185.757 141.317 186.104 141.503 186.386 141.768C187.038 142.22 187.5 142.897 187.683 143.668C187.711 143.843 187.689 144.022 187.619 144.185C187.549 144.347 187.435 144.487 187.289 144.587C187.143 144.687 186.971 144.743 186.794 144.749C186.618 144.756 186.443 144.711 186.29 144.622Z" fill="#263238"/>
<path d="M170.643 139.402C171.098 139.74 171.572 140.051 172.063 140.335C172.518 140.739 173.095 140.981 173.702 141.021C173.894 140.997 174.072 140.909 174.209 140.773C174.345 140.636 174.433 140.458 174.457 140.266C174.451 139.878 174.342 139.499 174.14 139.168C173.939 138.836 173.653 138.564 173.311 138.38C172.675 137.906 171.886 137.683 171.095 137.756C170.916 137.782 170.749 137.86 170.613 137.98C170.478 138.1 170.38 138.257 170.332 138.431C170.284 138.606 170.288 138.79 170.343 138.963C170.398 139.135 170.502 139.288 170.643 139.402Z" fill="#263238"/>
<path d="M172.138 144.8C172.138 144.739 171.987 144.8 171.96 144.883C171.274 146.426 170.286 148.086 168.674 147.949C168.626 147.949 168.591 148.025 168.674 148.045C170.437 148.587 171.761 146.371 172.138 144.8Z" fill="#263238"/>
<path d="M171.5 142.579C169.14 141.255 166.664 146.077 168.852 147.305C171.04 148.533 173.503 143.69 171.5 142.579Z" fill="#263238"/>
<path d="M170.443 142.351C169.881 142.406 169.222 142.674 168.687 142.468C168.152 142.262 167.885 141.487 167.754 140.808C167.754 140.733 167.672 140.753 167.638 140.808C167.151 141.72 167.02 142.866 167.94 143.497C168.859 144.128 169.847 143.607 170.56 142.811C170.69 142.688 170.67 142.324 170.443 142.351Z" fill="#263238"/>
<path d="M180.651 148.698C180.692 148.65 180.726 148.828 180.699 148.89C179.869 150.351 179.169 152.169 180.26 153.362C180.294 153.404 180.26 153.472 180.205 153.445C178.682 152.354 179.636 149.953 180.651 148.698Z" fill="#263238"/>
<path d="M182.791 147.839C185.282 148.91 182.956 153.808 180.651 152.813C178.346 151.818 180.706 146.941 182.791 147.839Z" fill="#263238"/>
<path d="M183.663 148.642C183.923 149.088 184.081 149.74 184.534 150.014C184.987 150.289 185.7 149.959 186.283 149.616C186.345 149.575 186.359 149.616 186.331 149.705C185.913 150.652 185.144 151.482 184.157 151.235C183.169 150.988 183.038 149.918 183.258 148.882C183.299 148.67 183.553 148.464 183.663 148.642Z" fill="#263238"/>
<path d="M165.792 156.407C165.943 156.949 166.026 157.615 166.526 157.965C167.077 158.26 167.681 158.439 168.303 158.493C168.318 158.493 168.332 158.499 168.342 158.509C168.352 158.519 168.358 158.533 168.358 158.548C168.358 158.562 168.352 158.576 168.342 158.587C168.332 158.597 168.318 158.603 168.303 158.603C167.932 158.771 167.522 158.835 167.117 158.788C166.712 158.741 166.328 158.584 166.005 158.335C165.751 158.089 165.576 157.773 165.503 157.427C165.43 157.081 165.461 156.721 165.594 156.394C165.642 156.298 165.772 156.332 165.792 156.407Z" fill="#263238"/>
<path d="M174.786 154.11C174.786 154.11 173.977 156.511 173.448 157.54C173.4 157.636 173.119 157.54 172.762 157.396C172.762 157.396 172.762 157.396 172.721 157.396C171.73 157.109 170.836 156.555 170.139 155.794C169.442 155.032 168.969 154.094 168.77 153.081C168.767 153.052 168.774 153.023 168.79 152.999C168.806 152.975 168.83 152.957 168.858 152.949C168.885 152.941 168.915 152.943 168.942 152.955C168.968 152.966 168.99 152.987 169.003 153.013C169.888 154.612 171.271 155.878 172.941 156.621C173.16 156.367 174.189 152.464 174.361 152.505C175.147 152.988 175.864 153.574 176.494 154.247C178.326 149.294 179.348 144.095 181.241 139.197C181.256 139.162 181.283 139.133 181.317 139.116C181.351 139.098 181.39 139.093 181.427 139.101C181.464 139.11 181.498 139.13 181.521 139.16C181.545 139.19 181.557 139.227 181.557 139.265C180.871 144.794 178.888 150.536 177.132 155.695C176.899 156.408 175.115 154.501 174.786 154.11Z" fill="#263238"/>
<path d="M172.461 156.675C171.531 157.219 170.478 157.514 169.401 157.533C168.815 157.523 168.247 157.331 167.775 156.984C166.746 156.216 167.144 155.152 167.72 154.336C168.033 153.905 168.394 153.511 168.797 153.163C169.612 154.695 170.895 155.926 172.461 156.675Z" fill="#263238"/>
<path d="M169.401 157.533C168.815 157.523 168.247 157.331 167.775 156.984C166.746 156.216 167.144 155.152 167.72 154.336C168.9 154.96 169.778 156.291 169.401 157.533Z" fill="#FF9CBD"/>
<path d="M185.357 121.045C185.357 121.045 184.596 124.839 182.243 126.704C177.441 130.532 172.035 126.265 169.01 127.233C166.17 128.145 164.969 132.309 162.314 133.311C158.637 134.683 155.832 132.083 154.59 133.619C153.348 135.156 149.507 140.088 146.962 139.704C144.417 139.32 152.216 97.817 180.432 113.053C180.432 113.053 185.172 113.375 189.789 119.453C194.886 126.169 192.382 138.73 192.382 138.73C192.382 138.73 192.313 138.504 191.751 137.159C190.962 135.252 190.982 133.853 190.379 132.563C189.391 130.505 188.279 130.58 187.209 128.55C185.556 125.463 185.357 121.045 185.357 121.045Z" fill="#263238"/>
<path d="M185.7 119.233C185.446 120.879 185.004 122.49 184.383 124.035C183.859 125.582 182.925 126.957 181.68 128.014C180.324 128.871 178.703 129.207 177.118 128.961C175.499 128.796 173.922 128.199 172.165 128.069C171.255 127.993 170.342 128.169 169.524 128.577C168.767 129.039 168.111 129.651 167.597 130.374C166.568 131.698 165.539 133.001 164.05 133.571C163.302 133.867 162.498 133.997 161.695 133.951C160.892 133.905 160.108 133.684 159.399 133.303C157.945 132.617 156.545 131.403 154.816 131.348C156.531 131.547 157.759 132.789 159.221 133.646C159.974 134.091 160.816 134.365 161.687 134.451C162.558 134.536 163.437 134.43 164.263 134.14C165.991 133.585 167.13 132.082 168.152 130.827C168.62 130.189 169.207 129.648 169.881 129.235C170.58 128.914 171.352 128.783 172.117 128.858C173.709 128.947 175.321 129.544 177.043 129.681C177.911 129.774 178.788 129.732 179.643 129.558C180.524 129.418 181.354 129.051 182.051 128.494C183.332 127.327 184.267 125.83 184.753 124.166C185.258 122.564 185.576 120.908 185.7 119.233Z" fill="#263238"/>
<path d="M185.611 120.818C185.219 122.334 185.034 123.897 185.062 125.463C185.042 127.09 185.506 128.687 186.393 130.052C186.874 130.683 187.414 131.266 188.005 131.794C188.515 132.287 188.879 132.912 189.055 133.599C189.115 134.381 189.255 135.156 189.473 135.91C189.753 136.653 190.198 137.322 190.777 137.865C190.336 137.246 190.019 136.547 189.844 135.807C189.71 135.054 189.648 134.289 189.659 133.523C189.531 132.684 189.142 131.906 188.547 131.3C187.998 130.783 187.495 130.218 187.045 129.613C186.237 128.361 185.765 126.922 185.673 125.435C185.549 123.899 185.528 122.357 185.611 120.818Z" fill="#263238"/>
<path d="M150.488 138.523C150.488 138.523 149.226 129.214 145.24 129.324C141.254 129.434 139.752 141.213 142.695 144.416C143.044 144.858 143.479 145.224 143.974 145.493C144.468 145.761 145.012 145.927 145.572 145.98C146.133 146.032 146.698 145.971 147.234 145.799C147.77 145.627 148.265 145.348 148.691 144.979L150.488 138.523Z" fill="#C95F50"/>
<path d="M144.89 132.714C144.835 132.679 144.78 132.755 144.822 132.803C146.845 135.149 146.976 138.215 146.653 141.158C146.379 139.786 145.61 138.771 143.875 139.025C143.786 139.025 143.793 139.176 143.875 139.196C144.393 139.283 144.873 139.527 145.248 139.895C145.624 140.263 145.877 140.738 145.974 141.254C146.123 142.131 146.176 143.021 146.132 143.909C146.132 144.197 146.612 144.287 146.66 143.978C146.66 143.978 146.66 143.93 146.66 143.909C148.409 140.706 148.224 134.84 144.89 132.714Z" fill="#263238"/>
<path d="M145.254 144.533C145.173 144.684 145.048 144.807 144.897 144.887C144.745 144.967 144.574 145.001 144.403 144.983C144.233 144.965 144.071 144.897 143.94 144.787C143.808 144.678 143.712 144.531 143.664 144.367C143.615 144.203 143.617 144.028 143.668 143.864C143.72 143.701 143.818 143.556 143.952 143.449C144.086 143.342 144.248 143.277 144.419 143.262C144.59 143.247 144.761 143.284 144.911 143.367C145.01 143.42 145.098 143.493 145.169 143.581C145.24 143.669 145.293 143.77 145.325 143.878C145.357 143.987 145.367 144.1 145.355 144.213C145.342 144.325 145.308 144.434 145.254 144.533Z" fill="white"/>
<path d="M143.854 142.064C143.784 142.189 143.666 142.282 143.528 142.322C143.389 142.362 143.24 142.345 143.114 142.276C143.02 142.224 142.945 142.145 142.896 142.05C142.847 141.955 142.828 141.847 142.841 141.741C142.853 141.635 142.896 141.535 142.966 141.453C143.035 141.371 143.127 141.312 143.229 141.283C143.332 141.253 143.441 141.255 143.543 141.287C143.645 141.32 143.735 141.381 143.802 141.465C143.869 141.548 143.909 141.65 143.919 141.756C143.928 141.863 143.906 141.97 143.854 142.064Z" fill="white"/>
<path d="M146.729 124.296C146.523 124.015 140.171 112.024 139.217 110.878C138.264 109.732 129.476 109.506 128.481 105.514C127.486 101.521 128.269 93.9338 133.283 91.3065C138.298 88.6791 143.47 88.1851 143.875 87.7324C144.28 87.2796 144.232 75.892 151.462 73.2166C158.693 70.5412 166.554 81.38 167.062 81.4486C167.569 81.5172 171.226 75.6451 176.192 76.0635C181.159 76.482 184.692 84.858 185.954 84.9815C187.216 85.105 191.579 83.3351 196.073 87.9313C200.566 92.5275 196.491 102.461 194.907 103.517C193.322 104.574 192.567 117.642 192.567 117.642L146.729 124.296Z" fill="#EBEBEB"/>
<path d="M151.88 119.892C151.441 119.382 151.092 118.799 150.851 118.17C150.556 117.546 150.255 116.928 149.932 116.318C149.276 115.098 148.526 113.93 147.689 112.826C147.044 111.941 146.255 110.96 145.151 110.658C144.757 110.578 144.351 110.576 143.956 110.654C143.562 110.732 143.187 110.887 142.853 111.111C142.67 111.329 142.5 111.558 142.345 111.797C142.29 111.859 142.407 111.948 142.448 111.873C142.611 111.557 142.884 111.313 143.216 111.187C143.487 111.095 143.768 111.038 144.053 111.015C144.659 110.991 145.253 111.191 145.72 111.578C146.581 112.364 147.3 113.292 147.847 114.322C148.492 115.323 149.141 116.325 149.795 117.326C150.378 118.239 150.851 119.425 151.764 120.07C151.839 120.05 151.949 119.967 151.88 119.892Z" fill="#C7C7C7"/>
<path d="M154.631 120.049C153.369 117.511 152.1 114.966 150.817 112.435C149.422 109.914 148.32 107.242 147.531 104.47C147.531 104.388 147.387 104.409 147.408 104.47C147.967 107.305 148.846 110.066 150.028 112.702C151.319 115.298 152.815 117.787 154.501 120.145C154.514 120.163 154.533 120.174 154.554 120.177C154.575 120.181 154.597 120.175 154.614 120.163C154.631 120.15 154.643 120.131 154.646 120.11C154.649 120.088 154.644 120.067 154.631 120.049Z" fill="#C7C7C7"/>
<path d="M161.951 116.62C161.224 114.301 160.256 112.045 159.317 109.801C158.497 107.823 157.42 105.962 156.113 104.265C156.065 104.204 155.969 104.265 156.017 104.348C157.231 106.159 157.855 108.278 158.672 110.288C159.557 112.484 160.442 114.706 161.532 116.812C161.563 116.858 161.61 116.892 161.663 116.907C161.716 116.922 161.773 116.917 161.823 116.894C161.874 116.871 161.914 116.831 161.938 116.781C161.961 116.73 161.966 116.674 161.951 116.62Z" fill="#C7C7C7"/>
<path d="M174.999 97.5968C174.732 97.3455 174.413 97.1561 174.065 97.0422C173.716 96.9284 173.347 96.8928 172.984 96.938C172.62 96.9832 172.271 97.1081 171.961 97.3038C171.651 97.4995 171.388 97.7612 171.191 98.0701C170.176 99.6136 170.183 101.788 170.183 103.558C170.174 105.491 170.405 107.417 170.869 109.293C171.41 111.411 172.229 113.448 173.304 115.35C173.313 115.364 173.327 115.374 173.342 115.378C173.358 115.383 173.374 115.381 173.389 115.375C173.404 115.368 173.416 115.357 173.423 115.342C173.43 115.328 173.432 115.311 173.428 115.296C172.114 112.13 171.38 108.754 171.26 105.328C171.177 103.644 171.253 101.956 171.486 100.286C171.678 98.9139 172.755 96.7119 174.518 97.6311C176.172 98.4886 176.316 100.807 177.262 102.234C177.262 102.234 177.338 102.234 177.31 102.193C176.398 100.711 176.357 98.8385 174.999 97.5968Z" fill="#C7C7C7"/>
<path d="M191.6 99.0852C189.49 101.004 188.082 103.573 187.601 106.384C187.303 107.937 187.165 109.516 187.189 111.097C187.125 112.731 187.224 114.367 187.484 115.981C187.489 115.995 187.497 116.007 187.509 116.016C187.521 116.024 187.535 116.029 187.549 116.029C187.564 116.029 187.578 116.024 187.589 116.016C187.601 116.007 187.61 115.995 187.614 115.981C187.8 114.458 187.614 112.894 187.8 111.371C187.932 109.832 188.182 108.304 188.547 106.803C188.888 105.485 189.326 104.194 189.858 102.941C190.395 101.669 191.064 100.457 191.854 99.3253C191.964 99.1675 191.758 98.948 191.6 99.0852Z" fill="#C7C7C7"/>
<path d="M183.347 108.388C183.213 105.936 182.906 103.497 182.428 101.089C182.42 101.039 182.393 100.996 182.352 100.967C182.312 100.938 182.261 100.926 182.212 100.934C182.163 100.942 182.119 100.97 182.09 101.01C182.061 101.051 182.05 101.101 182.058 101.15C182.305 103.565 182.408 106 182.504 108.422C182.6 110.843 182.545 113.224 182.799 115.632C182.803 115.645 182.812 115.657 182.824 115.666C182.835 115.674 182.849 115.679 182.864 115.679C182.878 115.679 182.892 115.674 182.904 115.666C182.916 115.657 182.924 115.645 182.929 115.632C183.384 113.246 183.524 110.81 183.347 108.388Z" fill="#C7C7C7"/>
<path d="M147.943 130.189C148.451 128.577 166.348 115.467 192.128 124.44C192.897 124.708 194.488 113.938 193.24 112.833C191.991 111.729 157.286 103.915 144.005 121.292C143.107 122.471 147.943 130.189 147.943 130.189Z" fill="#A866A7"/>
<path d="M141.522 163.872C141.522 162.239 133.29 168.42 133.18 169.517C133.07 170.615 137.2 188.122 151.194 190.351C153.033 190.639 158.102 180.233 158.329 178.387C158.555 176.542 156.957 173.181 156.957 173.181C156.957 173.181 152.573 182.099 151.187 182.181C149.802 182.263 141.316 173.873 141.522 163.872Z" fill="#A866A7"/>
<path d="M53.9882 230.242C45.6739 219.815 58.3031 210.273 67.6122 210.664C89.4544 211.59 127.116 219.349 144.122 229.433C149.61 232.678 148.306 268.501 141.542 267.815C129.531 266.6 70.8569 251.405 53.9882 230.242Z" fill="#C95F50"/>
<path d="M129.812 229.021C132.556 228.293 148.786 220.356 154.117 219.773C159.447 219.19 177.996 223.999 182.05 226.194C186.105 228.389 197.142 241.286 198.055 245.306C198.741 248.53 192.347 250.931 185.021 245.196C178.161 239.839 176.789 238.22 174.45 237.184C172.11 236.148 162.589 237.108 161.134 240.545C160.277 242.603 162.506 248.455 166.128 250.019C169.75 251.583 173.86 249.662 179.162 250.431C184.465 251.199 188.609 255.137 187.923 257.03C186.784 260.165 184.431 258.985 176.947 260.748C172.145 261.887 165.923 264.933 157.053 267.478C147.641 270.187 133.591 266.195 133.591 266.195L129.812 229.021Z" fill="#C95F50"/>
<path d="M191.051 257.421C191.051 257.421 190.941 253.202 188.774 251.336C186.946 249.65 184.537 248.736 182.051 248.784C179.423 248.722 175.541 249.223 174.951 248.517C175.623 249.351 176.177 250.275 176.597 251.261C177.114 252.582 177.757 253.85 178.518 255.047C181.166 258.587 184.692 259.225 186.318 258.978C187.944 258.731 190.523 257.332 191.051 257.421Z" fill="#455A64"/>
<path d="M155.722 218.793C162.26 218.381 175.616 219.788 183.642 224.967C189.069 228.472 193.123 251.2 189.563 253.052C186.002 254.904 183.903 252.043 181.331 247.433C180.384 245.753 177.359 235.435 174.628 235.298C170.704 235.092 160.428 238.687 160.428 238.687L155.722 218.793Z" fill="#C95F50"/>
<path d="M190.475 251.762C192.396 247.186 190.907 241.3 189.055 235.716C189.055 235.627 188.89 235.661 188.918 235.751C189.384 237.177 191.374 247.035 190.386 251.755C190.372 251.762 190.461 251.762 190.475 251.762Z" fill="#263238"/>
<path d="M155.722 218.793C162.26 218.381 175.616 219.788 183.642 224.967C189.069 228.472 188.287 249.368 184.726 251.213C181.166 253.059 177.907 249.155 176.172 243.427C175.609 241.582 175.486 234.125 172.742 233.981C168.818 233.775 159.138 233.35 159.138 233.35L155.722 218.793Z" fill="#C95F50"/>
<path d="M178.051 247.893C176.906 245.992 176.542 243.269 176.302 241.094C176.096 239.194 176.062 237.04 175.053 235.353C174.637 234.592 173.984 233.988 173.194 233.631C172.327 233.36 171.42 233.242 170.512 233.281C169.476 233.247 168.454 233.281 167.404 233.281C166.355 233.281 166.032 233.343 164.962 233.397C164.53 233.397 164.592 233.713 165.065 233.699C166.788 233.659 168.51 233.78 170.21 234.063C171.12 234.111 172.017 234.296 172.872 234.612C173.28 234.823 173.641 235.114 173.935 235.467C174.228 235.821 174.448 236.23 174.58 236.67C175.218 238.481 175.191 240.491 175.664 242.35C176.137 244.209 176.707 246.514 177.948 247.989C177.989 248.064 178.099 247.968 178.051 247.893Z" fill="#263238"/>
<path d="M187.456 248.085C188.287 245.917 188.376 243.379 188.355 241.081C188.315 238.648 188.086 236.221 187.669 233.823C187.463 232.589 187.223 231.361 186.949 230.139C186.791 228.942 186.424 227.781 185.865 226.71C184.061 223.966 180.171 222.943 178.799 222.388C178.717 222.388 178.648 222.477 178.731 222.511C179.849 222.985 183.533 224.466 184.685 226.12C185.351 227.176 185.786 228.361 185.961 229.598C186.174 230.661 186.386 231.724 186.578 232.787C187.34 237.13 187.834 241.815 186.99 246.178C186.523 248.6 185.323 250.98 182.744 251.577C182.654 251.577 182.682 251.728 182.744 251.728C184.918 251.824 186.736 249.972 187.456 248.085Z" fill="#263238"/>
<path d="M148.8 221.104C151.613 220.281 161.073 214.56 164.935 213.86C168.797 213.16 183.731 212.426 186.379 216.055C189.706 220.61 178.312 223.128 173.263 223.78C168.214 224.431 163.33 229.569 163.33 229.569L148.8 221.104Z" fill="#C95F50"/>
<path d="M181.104 222.134C179.417 222.277 177.739 222.506 176.076 222.82C174.474 223.012 172.889 223.326 171.335 223.759C169.819 224.26 165.943 227.011 165.402 227.58C162.904 230.201 158.027 236.101 152.614 241.108C150.545 242.977 148.258 244.589 145.802 245.91C145.185 246.24 144.863 246.679 145.802 246.281C154.851 242.508 164.29 230.029 166.136 228.273C167.825 226.776 169.74 225.554 171.809 224.651C174.855 223.636 178.079 223.279 181.138 222.284C181.289 222.305 181.228 222.12 181.104 222.134Z" fill="#263238"/>
<path d="M127.315 219.17L119.014 242.117L116.394 264.186C116.394 264.186 48.0543 241.596 51.2236 222.436C52.2869 215.973 59.1332 207.762 73.697 208.338C88.2608 208.915 127.315 219.17 127.315 219.17Z" fill="#EBEBEB"/>
<path d="M127.466 219.74C125.991 219.205 124.55 218.608 123.062 218.107C121.573 217.606 120.153 217.14 118.685 216.687C115.742 215.781 112.737 214.992 109.767 214.258C103.84 212.814 97.8431 211.669 91.8005 210.828C89.6259 209.95 87.3621 209.278 85.1532 208.503C85.0846 208.503 85.064 208.578 85.1532 208.606C86.9573 209.292 88.7478 210.019 90.5657 210.664C89.1937 210.479 87.7668 210.293 86.3605 210.136C84.6592 209.944 82.9305 209.882 81.2498 209.724C81.1881 209.724 81.1744 209.827 81.2498 209.834C82.759 210.026 84.2614 210.321 85.7637 210.575C87.266 210.828 88.837 211.055 90.3668 211.316C93.4126 211.837 96.4447 212.399 99.47 213.024C105.486 214.272 111.496 215.644 117.423 217.297C119.076 217.757 120.743 218.182 122.403 218.669C124.063 219.157 125.785 219.548 127.459 220.041C127.596 220.096 127.644 219.808 127.466 219.74Z" fill="#263238"/>
<path d="M114.686 263.472C111.845 262.409 109.04 261.236 106.213 260.145C103.387 259.054 100.513 257.908 97.7002 256.715C92.0475 254.307 86.4909 251.686 80.9206 249.107C77.6895 247.612 74.3967 246.246 71.1725 244.751C71.0902 244.751 71.0147 244.84 71.1039 244.881C72.5171 245.567 73.9165 246.356 75.316 247.104C76.7154 247.852 78.1011 248.517 79.48 249.244C82.224 250.699 85.0709 252.064 87.8835 253.436C93.4016 256.139 99.0548 258.557 104.821 260.68C108.045 261.86 111.324 262.813 114.631 263.726C114.775 263.733 114.816 263.52 114.686 263.472Z" fill="#263238"/>
<path d="M128.872 219.156C128.79 218.909 116.524 215.623 116.524 215.623C116.524 215.623 103.957 236.025 103.806 238.577C103.655 241.129 102.098 260.529 102.269 260.741C102.441 260.954 117.039 266.366 117.361 265.948C117.683 265.53 120.105 244.716 120.242 243.118C120.379 241.52 128.872 219.156 128.872 219.156Z" fill="#A866A7"/>
<path d="M222.388 290.926C222.134 291.097 217.538 294.054 214.876 295.042C211 296.476 194.358 297.347 189.542 297.347C184.726 297.347 168.077 296.476 164.201 295.042C161.54 294.047 156.943 291.09 156.655 290.926C157.026 291.001 169.003 293.464 189.508 293.464C210.012 293.464 222.017 291.001 222.388 290.926Z" fill="#C7C7C7"/>
<path d="M189.542 294.939C218.984 294.939 242.851 289.764 242.851 283.38C242.851 276.996 218.984 271.821 189.542 271.821C160.1 271.821 136.233 276.996 136.233 283.38C136.233 289.764 160.1 294.939 189.542 294.939Z" fill="#DBDBDB"/>
<path d="M189.542 288.594C209.012 288.594 224.796 285.716 224.796 282.166C224.796 278.616 209.012 275.738 189.542 275.738C170.072 275.738 154.289 278.616 154.289 282.166C154.289 285.716 170.072 288.594 189.542 288.594Z" fill="#C7C7C7"/>
<path d="M189.542 287.18C204.208 287.18 216.097 285.135 216.097 282.612C216.097 280.088 204.208 278.043 189.542 278.043C174.876 278.043 162.987 280.088 162.987 282.612C162.987 285.135 174.876 287.18 189.542 287.18Z" fill="#A866A7"/>
<path opacity="0.1" d="M189.542 287.18C204.208 287.18 216.097 285.135 216.097 282.612C216.097 280.088 204.208 278.043 189.542 278.043C174.876 278.043 162.987 280.088 162.987 282.612C162.987 285.135 174.876 287.18 189.542 287.18Z" fill="black"/>
<path d="M207.899 281.507C201.039 283.778 192.965 284.114 189.542 284.114C186.119 284.114 178.017 283.778 171.178 281.507L172.323 270.01H206.754L207.899 281.507Z" fill="#A866A7"/>
<path d="M189.542 272.651C199.051 272.651 206.76 271.469 206.76 270.01C206.76 268.552 199.051 267.369 189.542 267.369C180.032 267.369 172.323 268.552 172.323 270.01C172.323 271.469 180.032 272.651 189.542 272.651Z" fill="#A866A7"/>
<path opacity="0.1" d="M206.712 270.189H206.76C206.76 270.189 205.992 272.247 204.963 272.315C204.332 272.377 203.66 271.876 203.214 272.754C202.768 273.632 204.455 277.062 202.843 277.062C201.231 277.062 202.247 274.188 202 273.577C201.896 273.261 201.68 272.994 201.394 272.825C201.107 272.656 200.769 272.597 200.442 272.658C199.791 272.83 198.885 274.414 197.877 273.914C196.868 273.413 195.956 273.577 195.647 274.167C195.339 274.757 196.333 276.376 195.044 276.411C193.754 276.445 195.551 273.667 193.857 273.262C192.745 273.001 192.183 273.948 190.996 273.996C189.809 274.044 189.357 273.31 188.252 273.385C187.148 273.461 186.949 274.984 185.693 274.984C184.719 274.984 184.321 273.385 183.711 273.433C183.1 273.481 182.661 274.119 181.557 273.975C180.452 273.831 180.377 272.912 179.375 272.658C178.634 272.466 177.743 272.596 177.503 273.111C176.995 274.222 178.038 277.062 176.734 277.062C175.431 277.062 175.932 275.004 175.966 273.934C176 272.864 175.616 271.657 174.594 271.321L174.402 271.266C173.928 271.176 173.585 272.219 172.81 271.828C172.46 271.65 172.33 270.189 172.33 270.189H172.371C172.345 270.133 172.331 270.072 172.33 270.01C172.33 268.549 180.034 267.369 189.549 267.369C199.063 267.369 206.767 268.549 206.767 270.01C206.761 270.073 206.743 270.133 206.712 270.189Z" fill="black"/>
<path d="M172.92 269.873C175.658 270.41 178.422 270.802 181.2 271.046L183.258 271.218L185.316 271.355C186.688 271.403 188.102 271.458 189.494 271.437C190.887 271.417 192.272 271.403 193.665 271.369C195.058 271.334 196.443 271.204 197.829 271.06C198.515 270.984 199.201 270.943 199.887 270.847L201.945 270.559C203.317 270.401 204.689 270.079 206.061 269.873C205.375 270.058 204.689 270.237 204.003 270.408C203.317 270.58 202.631 270.765 201.945 270.888L199.887 271.279C199.201 271.403 198.515 271.478 197.829 271.581C195.048 271.947 192.245 272.128 189.439 272.123C186.632 272.112 183.828 271.929 181.043 271.574C179.671 271.382 178.264 271.163 176.892 270.888C175.52 270.614 174.244 270.285 172.92 269.873Z" fill="#A866A7"/>
<path d="M195.126 259.809C195.126 259.809 193.555 260.982 193.452 261.798C193.363 262.484 192.368 261.888 192.389 261.037C192.398 260.827 192.462 260.624 192.574 260.447C193.322 260.327 194.014 259.974 194.55 259.438C194.606 259.441 194.662 259.453 194.715 259.473C194.803 259.496 194.886 259.538 194.957 259.596C195.028 259.654 195.086 259.727 195.126 259.809Z" fill="#455A64"/>
<path d="M195.126 259.81C195.126 259.81 193.555 260.983 193.452 261.799C193.363 262.485 192.368 261.888 192.389 261.038C192.561 261.058 192.736 261.038 192.9 260.981C193.064 260.924 193.213 260.831 193.336 260.708C193.768 260.379 194.708 260.105 194.708 259.474C194.798 259.496 194.882 259.538 194.954 259.596C195.026 259.654 195.085 259.727 195.126 259.81Z" fill="#37474F"/>
<path d="M192.265 261.421C192.061 261.202 191.897 260.949 191.778 260.673L191.744 260.605C191.483 260.103 191.373 259.535 191.428 258.972C191.593 258.506 192.8 258.012 193.068 258.019C193.336 258.025 192.945 258.663 192.725 259.391C192.505 260.118 192.403 260.667 192.725 261.03C193.363 261.826 195.023 261.469 195.469 261.599C195.843 261.693 196.19 261.872 196.484 262.121C196.5 262.144 196.512 262.169 196.519 262.196C196.525 262.34 194.708 263.802 192.265 261.421Z" fill="#455A64"/>
<path d="M192.265 261.422C192.061 261.202 191.897 260.949 191.778 260.674C192.133 261.027 192.543 261.319 192.993 261.538C193.688 261.91 194.479 262.066 195.263 261.984C195.669 261.908 196.087 261.948 196.471 262.101C196.486 262.124 196.498 262.149 196.505 262.176C196.525 262.341 194.708 263.802 192.265 261.422Z" fill="#37474F"/>
<path d="M196.642 263.74C196.433 263.898 196.193 264.01 195.938 264.069C195.682 264.129 195.417 264.133 195.16 264.083C194.665 263.969 194.199 263.752 193.794 263.446C193.388 263.14 193.052 262.751 192.807 262.306C192.533 261.806 191.01 260.756 190.358 259.953L190.324 259.912C190.191 259.765 190.101 259.585 190.063 259.391C189.995 258.616 190.804 257.552 191.065 257.662C191.195 257.724 191.188 258.019 191.175 258.389C191.147 258.758 191.182 259.129 191.277 259.487C191.716 260.42 192.375 261.232 193.198 261.854C194.611 263.054 196.628 263.527 196.676 263.658C196.683 263.678 196.676 263.706 196.642 263.74Z" fill="#455A64"/>
<path d="M196.642 263.74C196.433 263.898 196.193 264.01 195.938 264.069C195.683 264.128 195.418 264.133 195.16 264.083C194.665 263.969 194.2 263.752 193.794 263.446C193.389 263.14 193.052 262.751 192.807 262.306C192.533 261.805 191.01 260.756 190.358 259.953C191.333 260.838 192.512 261.462 193.493 262.34C193.94 262.83 194.475 263.231 195.071 263.52C195.569 263.722 196.108 263.797 196.642 263.74Z" fill="#37474F"/>
<path d="M190.811 269.42C189.163 269.726 187.476 269.76 185.817 269.523C185.47 269.475 185.128 269.395 184.795 269.283C184.658 269.242 184.529 269.174 184.418 269.084C183.944 268.645 183.643 267.554 183.938 265.112C184.233 262.67 186.092 260.084 188.177 259.81C188.829 259.746 189.487 259.838 190.097 260.076C190.707 260.314 191.253 260.693 191.689 261.182L191.868 261.38C191.97 261.454 192.081 261.516 192.197 261.566C193.041 261.97 195.167 262.938 195.243 264.996C195.339 267.486 193.452 268.913 190.811 269.42Z" fill="#C95F50"/>
<path d="M190.262 261.483C190.214 261.414 190.084 261.449 190.022 261.483C189.96 261.517 189.837 261.579 189.837 261.675C189.835 261.7 189.841 261.725 189.853 261.747C189.865 261.769 189.883 261.787 189.905 261.799C189.928 261.813 189.954 261.821 189.981 261.821C190.008 261.821 190.034 261.813 190.056 261.799C190.137 261.751 190.205 261.685 190.255 261.606C190.261 261.575 190.261 261.542 190.255 261.51L190.262 261.483Z" fill="#A866A7"/>
<path d="M188.856 260.358C188.831 260.328 188.8 260.304 188.764 260.288C188.728 260.273 188.689 260.266 188.65 260.269C188.568 260.269 188.479 260.331 188.479 260.427C188.482 260.447 188.489 260.466 188.5 260.483C188.511 260.5 188.525 260.515 188.542 260.527C188.558 260.538 188.577 260.546 188.597 260.55C188.617 260.554 188.637 260.554 188.657 260.551C188.699 260.549 188.741 260.538 188.779 260.52C188.817 260.501 188.85 260.474 188.876 260.441C188.883 260.435 188.888 260.427 188.89 260.419C188.893 260.411 188.893 260.402 188.891 260.393C188.889 260.385 188.884 260.377 188.878 260.371C188.872 260.365 188.864 260.361 188.856 260.358Z" fill="#A866A7"/>
<path d="M188.472 261.545C188.475 261.534 188.475 261.522 188.472 261.511C188.399 261.483 188.318 261.483 188.245 261.511C188.184 261.545 188.115 261.607 188.129 261.682C188.131 261.702 188.139 261.721 188.15 261.737C188.161 261.754 188.176 261.767 188.193 261.777C188.21 261.787 188.229 261.793 188.249 261.795C188.269 261.796 188.289 261.793 188.307 261.785C188.388 261.758 188.46 261.708 188.513 261.641C188.517 261.623 188.515 261.604 188.508 261.586C188.5 261.569 188.488 261.555 188.472 261.545Z" fill="#A866A7"/>
<path d="M188.472 263.37C188.472 263.37 188.472 263.328 188.472 263.315C188.472 263.301 188.293 263.315 188.232 263.315C188.17 263.315 188.046 263.472 188.074 263.569C188.101 263.665 188.238 263.678 188.321 263.623C188.406 263.57 188.467 263.487 188.492 263.39C188.486 263.382 188.479 263.375 188.472 263.37Z" fill="#A866A7"/>
<path d="M186.688 263.678C186.679 263.672 186.668 263.669 186.657 263.669C186.646 263.669 186.636 263.672 186.627 263.678C186.592 263.675 186.557 263.679 186.524 263.689C186.491 263.7 186.461 263.717 186.434 263.74C186.404 263.762 186.38 263.791 186.363 263.825C186.346 263.858 186.338 263.895 186.338 263.932C186.339 263.95 186.344 263.967 186.353 263.982C186.362 263.997 186.374 264.01 186.389 264.019C186.404 264.029 186.421 264.034 186.438 264.036C186.456 264.038 186.473 264.035 186.489 264.028C186.556 263.998 186.612 263.951 186.654 263.891C186.675 263.823 186.743 263.726 186.688 263.678Z" fill="#A866A7"/>
<path d="M187.237 265.667C187.235 265.654 187.229 265.642 187.219 265.633C187.208 265.624 187.195 265.619 187.182 265.619C187.179 265.611 187.175 265.604 187.169 265.598C187.163 265.592 187.156 265.588 187.148 265.585C186.983 265.585 186.791 265.839 186.887 265.983C186.983 266.127 187.065 265.983 187.127 265.983C187.166 265.941 187.196 265.891 187.215 265.836C187.234 265.782 187.241 265.725 187.237 265.667Z" fill="#A866A7"/>
<path d="M189.123 265.346C189.128 265.332 189.128 265.318 189.123 265.304C189.041 265.229 188.938 265.304 188.869 265.352C188.801 265.4 188.712 265.517 188.767 265.613C188.801 265.645 188.846 265.663 188.893 265.663C188.941 265.663 188.986 265.645 189.02 265.613C189.059 265.581 189.088 265.54 189.106 265.493C189.125 265.446 189.13 265.395 189.123 265.346Z" fill="#A866A7"/>
<path d="M184.87 264.035C184.87 264 184.87 263.959 184.829 263.952C184.778 263.943 184.725 263.954 184.68 263.982C184.636 264.01 184.604 264.053 184.589 264.103C184.555 264.192 184.479 264.33 184.589 264.405C184.699 264.48 184.774 264.405 184.822 264.309C184.871 264.226 184.888 264.129 184.87 264.035Z" fill="#A866A7"/>
<path d="M185.453 266.25C185.457 266.235 185.457 266.218 185.453 266.202C185.405 266.12 185.296 266.147 185.241 266.202C185.206 266.241 185.179 266.287 185.162 266.336C185.146 266.386 185.14 266.438 185.145 266.49C185.149 266.511 185.159 266.53 185.174 266.546C185.189 266.561 185.207 266.572 185.228 266.578C185.248 266.584 185.27 266.583 185.29 266.578C185.311 266.572 185.329 266.561 185.344 266.545C185.417 266.465 185.457 266.359 185.453 266.25Z" fill="#A866A7"/>
<path d="M190.262 263.225C190.118 263.225 189.899 263.376 189.988 263.52C190.012 263.552 190.048 263.573 190.088 263.579C190.127 263.586 190.167 263.577 190.201 263.555C190.233 263.528 190.261 263.495 190.283 263.459C190.313 263.419 190.34 263.378 190.365 263.335C190.371 263.32 190.373 263.304 190.37 263.289C190.368 263.273 190.36 263.258 190.349 263.247C190.339 263.235 190.325 263.227 190.309 263.223C190.294 263.219 190.277 263.22 190.262 263.225Z" fill="#A866A7"/>
<path d="M191.943 262.588C191.943 262.54 191.854 262.519 191.826 262.588C191.77 262.618 191.722 262.663 191.689 262.718C191.655 262.78 191.634 262.876 191.689 262.924C191.744 262.972 191.984 262.698 191.943 262.588Z" fill="#A866A7"/>
<path d="M193.919 263.576C193.923 263.477 193.888 263.381 193.823 263.308C193.823 263.274 193.74 263.308 193.713 263.308C193.705 263.305 193.697 263.303 193.689 263.303C193.68 263.303 193.672 263.305 193.665 263.308C193.641 263.341 193.625 263.38 193.619 263.421C193.613 263.461 193.617 263.503 193.63 263.541C193.63 263.617 193.706 263.706 193.788 263.713C193.871 263.72 193.919 263.658 193.919 263.576Z" fill="#A866A7"/>
<path d="M194.9 265.441C194.9 265.352 194.859 265.222 194.749 265.222C194.738 265.222 194.728 265.226 194.72 265.232C194.711 265.238 194.705 265.246 194.701 265.256C194.66 265.3 194.631 265.352 194.614 265.409C194.597 265.466 194.594 265.527 194.605 265.585C194.605 265.674 194.715 265.764 194.811 265.695C194.872 265.625 194.904 265.534 194.9 265.441Z" fill="#A866A7"/>
<path d="M192.766 264.605C192.76 264.596 192.753 264.589 192.744 264.584C192.735 264.58 192.725 264.577 192.715 264.577C192.704 264.577 192.694 264.58 192.685 264.584C192.676 264.589 192.669 264.596 192.663 264.605C192.582 264.663 192.52 264.744 192.485 264.838C192.473 264.858 192.465 264.879 192.462 264.902C192.459 264.925 192.461 264.948 192.468 264.97C192.474 264.992 192.485 265.012 192.5 265.03C192.515 265.047 192.533 265.061 192.553 265.071C192.766 265.16 192.828 264.728 192.766 264.605Z" fill="#A866A7"/>
<path d="M190.921 264.831C190.833 264.863 190.757 264.921 190.701 264.996C190.67 265.032 190.648 265.075 190.637 265.122C190.627 265.168 190.627 265.217 190.64 265.263C190.688 265.373 190.818 265.345 190.887 265.263C190.946 265.17 190.984 265.064 190.996 264.954C191.013 264.944 191.024 264.928 191.029 264.91C191.033 264.891 191.03 264.871 191.02 264.855C191.01 264.839 190.994 264.827 190.976 264.822C190.957 264.818 190.937 264.821 190.921 264.831Z" fill="#A866A7"/>
<path d="M193.452 266.086C193.45 266.072 193.444 266.058 193.435 266.047C193.426 266.036 193.414 266.028 193.4 266.024C193.386 266.02 193.372 266.019 193.358 266.023C193.344 266.027 193.332 266.034 193.322 266.045C193.24 266.078 193.171 266.135 193.123 266.21C193.093 266.241 193.077 266.283 193.077 266.326C193.077 266.369 193.093 266.411 193.123 266.443C193.336 266.594 193.452 266.21 193.452 266.086Z" fill="#A866A7"/>
<path d="M193.493 267.801C193.463 267.78 193.427 267.77 193.39 267.77C193.354 267.77 193.318 267.78 193.288 267.801C193.252 267.824 193.223 267.855 193.202 267.892C193.182 267.929 193.171 267.971 193.171 268.013C193.171 268.123 193.301 268.151 193.39 268.109C193.477 268.059 193.544 267.982 193.582 267.89C193.584 267.878 193.582 267.866 193.578 267.855C193.574 267.843 193.567 267.833 193.559 267.825C193.55 267.816 193.54 267.81 193.529 267.805C193.517 267.801 193.505 267.8 193.493 267.801Z" fill="#A866A7"/>
<path d="M191.593 268.487C191.593 268.418 191.47 268.418 191.408 268.432C191.346 268.446 191.236 268.507 191.223 268.597C191.209 268.686 191.332 268.741 191.422 268.734C191.47 268.729 191.516 268.713 191.557 268.687C191.597 268.661 191.631 268.625 191.655 268.583C191.659 268.573 191.661 268.561 191.66 268.55C191.659 268.539 191.656 268.528 191.65 268.518C191.644 268.509 191.635 268.501 191.625 268.496C191.616 268.49 191.604 268.487 191.593 268.487Z" fill="#A866A7"/>
<path d="M191.799 266.854C191.803 266.843 191.803 266.831 191.799 266.82C191.799 266.82 191.799 266.751 191.758 266.758C191.67 266.763 191.585 266.797 191.518 266.854C191.463 266.902 191.394 266.985 191.422 267.067C191.449 267.149 191.82 267.019 191.799 266.854Z" fill="#A866A7"/>
<path d="M189.83 267.143C189.734 267.139 189.64 267.173 189.57 267.239C189.508 267.294 189.425 267.396 189.508 267.472C189.59 267.547 189.94 267.369 189.961 267.218C189.981 267.067 189.878 267.101 189.83 267.143Z" fill="#A866A7"/>
<path d="M189.7 268.762V268.72C189.665 268.696 189.626 268.679 189.585 268.671C189.543 268.663 189.501 268.663 189.459 268.672C189.377 268.672 189.288 268.768 189.295 268.858C189.302 268.947 189.432 268.967 189.514 268.947C189.597 268.926 189.7 268.858 189.7 268.762Z" fill="#A866A7"/>
<path d="M187.964 267.301C187.955 267.294 187.944 267.291 187.933 267.291C187.922 267.291 187.911 267.294 187.902 267.301C187.897 267.298 187.891 267.296 187.885 267.296C187.879 267.296 187.873 267.298 187.868 267.301C187.824 267.304 187.782 267.315 187.743 267.336C187.704 267.356 187.67 267.383 187.642 267.417C187.612 267.45 187.595 267.493 187.595 267.537C187.595 267.582 187.612 267.624 187.642 267.657C187.765 267.76 188.012 267.451 187.964 267.301Z" fill="#A866A7"/>
<path d="M187.642 268.912C187.642 268.912 187.642 268.871 187.642 268.864C187.642 268.782 187.518 268.775 187.456 268.789C187.395 268.803 187.278 268.878 187.285 268.967C187.292 269.056 187.395 269.098 187.477 269.084C187.559 269.07 187.649 269.001 187.642 268.912Z" fill="#A866A7"/>
<path d="M186.05 268.947C186.05 268.947 185.899 268.947 185.838 268.947C185.776 268.947 185.68 269.016 185.728 269.098C185.776 269.18 185.851 269.16 185.913 269.146C185.975 269.132 186.071 269.112 186.091 269.036C186.098 269.028 186.102 269.019 186.103 269.009C186.104 268.999 186.103 268.988 186.098 268.979C186.094 268.97 186.087 268.962 186.079 268.956C186.07 268.951 186.06 268.948 186.05 268.947Z" fill="#A866A7"/>
<path d="M186.16 267.685C186.081 267.697 186.009 267.736 185.954 267.794C185.941 267.807 185.93 267.823 185.923 267.84C185.915 267.857 185.912 267.875 185.912 267.894C185.912 267.912 185.915 267.931 185.923 267.948C185.93 267.965 185.941 267.98 185.954 267.993C186.023 268.055 186.098 267.993 186.146 267.952C186.194 267.911 186.208 267.767 186.16 267.685Z" fill="#A866A7"/>
<path d="M184.424 267.541C184.418 267.533 184.41 267.528 184.401 267.524C184.392 267.52 184.382 267.518 184.373 267.518C184.363 267.518 184.353 267.52 184.344 267.524C184.336 267.528 184.328 267.533 184.321 267.541C184.321 267.541 184.266 267.541 184.26 267.541C184.221 267.616 184.198 267.697 184.191 267.781C184.191 267.849 184.246 267.925 184.321 267.911C184.397 267.898 184.534 267.657 184.424 267.541Z" fill="#A866A7"/>
<g opacity="0.2">
<path opacity="0.2" d="M189.233 265.641C189.13 265.709 189.048 265.799 188.945 265.854C188.886 265.881 188.824 265.9 188.76 265.908C188.705 265.908 188.664 265.908 188.616 265.908V265.943C188.65 266.073 188.87 266.032 188.966 265.998C189.115 265.944 189.241 265.839 189.322 265.703C189.336 265.661 189.267 265.613 189.233 265.641Z" fill="white"/>
<path opacity="0.2" d="M191.154 265.25C191.151 265.244 191.147 265.239 191.142 265.236C191.136 265.232 191.13 265.23 191.123 265.23C191.117 265.23 191.111 265.232 191.105 265.236C191.1 265.239 191.095 265.244 191.092 265.25C191.01 265.318 190.99 265.435 190.921 265.517C190.883 265.565 190.833 265.603 190.777 265.626C190.721 265.65 190.659 265.66 190.599 265.655C190.59 265.658 190.582 265.664 190.577 265.672C190.571 265.68 190.568 265.69 190.568 265.699C190.568 265.709 190.571 265.718 190.577 265.726C190.582 265.734 190.59 265.74 190.599 265.744C190.666 265.776 190.743 265.788 190.817 265.777C190.892 265.766 190.961 265.733 191.017 265.682C191.086 265.579 191.209 265.387 191.154 265.25Z" fill="white"/>
<path opacity="0.2" d="M191.25 264.996H191.195C191.195 264.996 191.195 265.098 191.243 265.071C191.251 265.061 191.257 265.048 191.258 265.035C191.259 265.021 191.256 265.008 191.25 264.996Z" fill="white"/>
<path opacity="0.2" d="M188.094 267.596C188.012 267.644 187.943 267.713 187.854 267.754C187.76 267.78 187.664 267.796 187.566 267.802C187.552 267.802 187.538 267.808 187.527 267.818C187.517 267.828 187.511 267.842 187.511 267.857C187.511 267.871 187.517 267.885 187.527 267.896C187.538 267.906 187.552 267.912 187.566 267.912C187.689 267.96 187.825 267.964 187.95 267.923C188.076 267.882 188.183 267.797 188.252 267.685C188.232 267.617 188.156 267.541 188.094 267.596Z" fill="white"/>
<path opacity="0.2" d="M186.86 264.001C186.859 263.993 186.857 263.984 186.852 263.976C186.848 263.969 186.842 263.962 186.834 263.958C186.827 263.953 186.819 263.95 186.81 263.949C186.801 263.949 186.792 263.95 186.784 263.953C186.716 263.994 186.674 264.07 186.613 264.118C186.58 264.153 186.539 264.179 186.493 264.194C186.448 264.208 186.399 264.21 186.352 264.2C186.342 264.192 186.329 264.188 186.316 264.189C186.303 264.191 186.292 264.197 186.283 264.207C186.275 264.217 186.271 264.23 186.273 264.243C186.274 264.256 186.28 264.268 186.29 264.276C186.421 264.502 186.887 264.214 186.86 264.001Z" fill="white"/>
<path opacity="0.2" d="M185.563 266.539C185.433 266.621 185.309 266.793 185.131 266.704C185.083 266.704 185.035 266.752 185.083 266.786C185.179 266.839 185.292 266.853 185.398 266.825C185.504 266.797 185.595 266.729 185.652 266.635C185.66 266.622 185.663 266.608 185.661 266.593C185.659 266.579 185.653 266.565 185.643 266.554C185.633 266.543 185.62 266.536 185.606 266.533C185.591 266.531 185.576 266.533 185.563 266.539Z" fill="white"/>
<path opacity="0.2" d="M187.114 266.216C187.087 266.21 187.058 266.21 187.031 266.216C187.031 266.216 186.976 266.216 186.949 266.216C186.943 266.219 186.938 266.224 186.935 266.229C186.931 266.235 186.93 266.241 186.93 266.247C186.93 266.254 186.931 266.26 186.935 266.266C186.938 266.271 186.943 266.275 186.949 266.278C186.964 266.295 186.984 266.308 187.005 266.315C187.027 266.323 187.05 266.324 187.073 266.319C187.095 266.322 187.118 266.316 187.136 266.304C187.155 266.291 187.169 266.272 187.175 266.251C187.175 266.244 187.173 266.237 187.169 266.231C187.166 266.225 187.16 266.22 187.154 266.216C187.148 266.213 187.141 266.211 187.134 266.211C187.127 266.211 187.12 266.213 187.114 266.216Z" fill="white"/>
<path opacity="0.2" d="M187.414 266.072C187.415 266.06 187.412 266.049 187.406 266.039C187.4 266.029 187.391 266.022 187.38 266.018C187.333 266.018 187.299 266.065 187.326 266.106C187.353 266.147 187.421 266.106 187.421 266.106L187.414 266.072Z" fill="white"/>
<path opacity="0.2" d="M188.691 263.534C188.609 263.589 188.575 263.692 188.52 263.767C188.481 263.821 188.426 263.861 188.364 263.883C188.302 263.905 188.234 263.908 188.17 263.891C188.136 263.891 188.108 263.925 188.17 263.946C188.228 263.969 188.29 263.978 188.353 263.972C188.415 263.966 188.474 263.945 188.527 263.911C188.656 263.841 188.756 263.727 188.808 263.589C188.787 263.541 188.726 263.5 188.691 263.534Z" fill="white"/>
<path opacity="0.2" d="M190.42 263.562C190.351 263.61 190.31 263.692 190.242 263.74C190.201 263.77 190.151 263.786 190.101 263.786C190.05 263.786 190.001 263.77 189.96 263.74C189.926 263.74 189.892 263.774 189.919 263.802C189.964 263.832 190.016 263.848 190.07 263.848C190.124 263.848 190.177 263.832 190.221 263.802C190.33 263.75 190.416 263.66 190.461 263.548C190.461 263.548 190.441 263.541 190.42 263.562Z" fill="white"/>
<path opacity="0.2" d="M192.011 262.992H191.957C191.902 263.026 191.867 263.075 191.806 263.095C191.745 263.112 191.681 263.112 191.62 263.095C191.62 263.095 191.572 263.129 191.62 263.143C191.656 263.171 191.697 263.19 191.742 263.197C191.786 263.204 191.832 263.2 191.874 263.184C191.922 263.15 192.018 263.081 192.011 262.992Z" fill="white"/>
<path opacity="0.2" d="M192.08 262.739C192.039 262.739 192.025 262.794 192.08 262.801C192.128 262.808 192.135 262.739 192.08 262.739Z" fill="white"/>
<path opacity="0.2" d="M190.221 261.875C190.136 261.923 190.035 261.938 189.94 261.916C189.934 261.919 189.929 261.925 189.926 261.931C189.923 261.937 189.921 261.943 189.921 261.95C189.921 261.957 189.923 261.964 189.926 261.97C189.929 261.975 189.934 261.981 189.94 261.984C189.997 262.023 190.067 262.04 190.136 262.032C190.205 262.025 190.269 261.993 190.317 261.943C190.331 261.902 190.269 261.847 190.221 261.875Z" fill="white"/>
<path opacity="0.2" d="M190.501 261.826C190.501 261.816 190.497 261.806 190.491 261.797C190.485 261.789 190.477 261.782 190.467 261.778C190.427 261.778 190.393 261.826 190.42 261.86C190.425 261.868 190.432 261.875 190.44 261.88C190.448 261.885 190.458 261.888 190.467 261.888C190.477 261.888 190.487 261.885 190.495 261.88C190.503 261.875 190.51 261.868 190.515 261.86L190.501 261.826Z" fill="white"/>
<path opacity="0.2" d="M192.821 265.092C192.783 265.151 192.731 265.2 192.671 265.234C192.61 265.269 192.541 265.288 192.471 265.29C192.464 265.294 192.457 265.299 192.453 265.306C192.449 265.312 192.446 265.32 192.446 265.328C192.446 265.336 192.449 265.344 192.453 265.351C192.457 265.357 192.464 265.363 192.471 265.366C192.514 265.379 192.56 265.383 192.605 265.377C192.65 265.37 192.693 265.354 192.731 265.329C192.769 265.304 192.801 265.271 192.825 265.233C192.849 265.194 192.864 265.15 192.869 265.105C192.869 265.105 192.835 265.071 192.821 265.092Z" fill="white"/>
<path opacity="0.2" d="M192.931 264.845C192.922 264.845 192.913 264.848 192.906 264.855C192.9 264.861 192.896 264.87 192.896 264.879C192.896 264.888 192.9 264.897 192.906 264.903C192.913 264.909 192.922 264.913 192.931 264.913C192.958 264.92 192.972 264.852 192.931 264.845Z" fill="white"/>
<path opacity="0.2" d="M191.812 267.129C191.752 267.195 191.675 267.243 191.588 267.267C191.502 267.291 191.411 267.291 191.325 267.266C191.284 267.266 191.25 267.314 191.325 267.335C191.426 267.387 191.542 267.4 191.651 267.371C191.76 267.341 191.854 267.272 191.915 267.177C191.915 267.129 191.847 267.095 191.812 267.129Z" fill="white"/>
<path opacity="0.2" d="M193.322 266.512C193.253 266.56 193.178 266.642 193.089 266.608C193 266.574 193.02 266.642 193.089 266.663C193.145 266.685 193.207 266.689 193.265 266.673C193.323 266.657 193.375 266.622 193.411 266.574C193.452 266.539 193.363 266.491 193.322 266.512Z" fill="white"/>
<path opacity="0.2" d="M189.816 267.541C189.755 267.57 189.69 267.593 189.624 267.61C189.549 267.622 189.472 267.61 189.405 267.575C189.371 267.575 189.343 267.61 189.371 267.637C189.398 267.664 189.782 267.781 189.871 267.603C189.874 267.595 189.874 267.586 189.873 267.578C189.871 267.57 189.867 267.562 189.862 267.556C189.856 267.55 189.849 267.545 189.841 267.543C189.833 267.54 189.825 267.539 189.816 267.541Z" fill="white"/>
<path opacity="0.2" d="M186.133 268.09C186.088 268.127 186.033 268.148 185.975 268.151C185.916 268.147 185.86 268.128 185.81 268.096C185.81 268.096 185.762 268.096 185.776 268.138C185.802 268.167 185.833 268.19 185.869 268.206C185.904 268.222 185.943 268.23 185.982 268.23C186.021 268.23 186.059 268.222 186.095 268.206C186.13 268.19 186.162 268.167 186.188 268.138C186.215 268.117 186.174 268.062 186.133 268.09Z" fill="white"/>
<path opacity="0.2" d="M186.023 269.207L185.865 269.283C185.808 269.29 185.751 269.29 185.694 269.283C185.694 269.283 185.652 269.324 185.694 269.338C185.759 269.357 185.829 269.357 185.895 269.337C185.961 269.318 186.019 269.28 186.064 269.228C186.064 269.228 186.05 269.194 186.023 269.207Z" fill="white"/>
<path opacity="0.2" d="M193.78 263.946C193.739 263.946 193.712 263.946 193.671 263.946C193.63 263.946 193.63 263.946 193.671 263.987C193.686 264.004 193.705 264.017 193.726 264.026C193.748 264.034 193.771 264.037 193.793 264.035C193.793 264.035 193.814 263.953 193.78 263.946Z" fill="white"/>
</g>
<path d="M305.826 260.289V289.594C305.826 291.694 305.044 293.402 304.09 293.402H292.812H281.521C280.567 293.402 279.792 291.714 279.792 289.615V260.289C279.792 258.189 280.567 256.502 281.521 256.502H282.563V253.758H292.812H303.047V256.502H304.09C305.044 256.502 305.826 258.189 305.826 260.289Z" fill="#A866A7"/>
<path d="M303.761 249.244H281.829V254.176H303.761V249.244Z" fill="#37474F"/>
<path d="M305.819 266.504H279.792V285.019H305.819V266.504Z" fill="#EBEBEB"/>
<path d="M276.904 288.236C276.904 292.078 275.463 293.402 274.729 293.409H262.217C261.483 293.409 260.035 292.092 260.028 288.25C260.028 283.695 263.287 280.958 263.28 278.468C263.28 276.842 261.716 271.807 262.388 271.807H274.496C275.182 271.807 273.618 276.849 273.618 278.475C273.625 280.958 276.897 283.681 276.904 288.236Z" fill="#C7C7C7"/>
<path d="M263.304 268.441L273.519 268.427C273.91 268.427 274.285 268.581 274.562 268.858C274.839 269.134 274.995 269.509 274.996 269.9L275 272.898C275 272.925 274.989 272.951 274.97 272.971C274.951 272.99 274.925 273.001 274.897 273.001L261.946 273.019C261.918 273.019 261.892 273.008 261.873 272.989C261.854 272.97 261.843 272.943 261.843 272.916L261.838 269.918C261.838 269.528 261.992 269.154 262.267 268.877C262.541 268.6 262.914 268.444 263.304 268.441Z" fill="#37474F"/>
<path d="M121.223 290.459C121.092 291.512 120.743 292.526 120.2 293.438C119.657 294.349 118.931 295.139 118.067 295.755C114.377 298.678 108.216 299.919 101.994 299C97.7824 298.383 92.4934 296.016 87.3758 293.725C82.2582 291.433 77.2916 289.204 73.8136 288.923L32.6536 285.376L32.8731 282.852L33.8335 282.934L33.6963 284.491L73.8959 287.955C77.5386 288.271 82.512 290.5 87.7737 292.853C92.8295 295.117 98.0637 297.456 102.132 298.06C108.1 298.938 113.979 297.772 117.464 295.014C118.224 294.477 118.865 293.788 119.347 292.991C119.829 292.195 120.14 291.307 120.263 290.384L121.223 290.459Z" fill="#A6A6A6"/>
<path d="M121.01 288.188C121.214 288.927 121.286 289.696 121.223 290.459L120.263 290.37C120.3 289.44 120.144 288.513 119.805 287.646C119.466 286.78 118.952 285.993 118.294 285.335C115.33 282.021 109.746 279.847 103.716 279.709C99.6003 279.607 94.0437 281.02 88.6723 282.385C83.0882 283.805 77.8061 285.129 74.1634 284.834L33.9706 281.404L33.8334 282.954L32.873 282.872L33.0857 280.354L74.2457 283.901C77.7237 284.203 82.9305 282.879 88.4391 281.479C93.9476 280.08 99.4837 278.674 103.744 278.783C110.027 278.941 115.879 281.219 119.021 284.724C119.939 285.712 120.62 286.897 121.01 288.188Z" fill="#A6A6A6"/>
<path d="M121.223 290.459C121.154 290.976 120.979 291.472 120.71 291.918C120.441 292.364 120.083 292.75 119.659 293.052C116.593 295.529 109.609 296.578 102.289 295.652C98.098 295.124 92.7609 293.423 87.6022 291.77C82.4434 290.116 77.3808 288.504 73.8822 288.202L32.7222 284.649L32.8799 282.838L33.8403 282.92L33.7649 283.771L73.9645 287.201C77.5797 287.516 82.5944 289.115 87.904 290.816C93.0216 292.449 98.3106 294.143 102.42 294.665C109.383 295.543 116.222 294.555 119.055 292.264C119.379 292.043 119.654 291.757 119.863 291.426C120.071 291.094 120.21 290.723 120.269 290.336L121.223 290.459Z" fill="#A6A6A6"/>
<path d="M121.12 289.375C121.219 289.727 121.254 290.094 121.223 290.459L121.182 290.939L32.825 283.318L33.0239 281.02L74.1839 284.566C77.6962 284.875 82.8549 284.155 88.3155 283.4C93.7761 282.645 99.2366 281.891 103.462 282.09C110.83 282.433 117.525 284.655 120.125 287.626C120.585 288.126 120.925 288.724 121.12 289.375ZM120.242 289.883C120.118 289.277 119.826 288.718 119.398 288.271C116.997 285.527 110.425 283.386 103.414 283.064C99.2983 282.865 93.776 283.626 88.4527 284.367C82.9647 285.129 77.7168 285.849 74.1016 285.54L33.9088 282.076V282.44L120.242 289.883Z" fill="#A6A6A6"/>
<path d="M30.6367 286.816L63.1257 289.615L63.8391 281.342L31.1649 278.522L30.6367 286.816Z" fill="#37474F"/>
<path d="M254.623 112.847C254.16 117.29 252.472 121.517 249.746 125.056C247.021 128.595 243.365 131.307 239.187 132.889C235.009 134.471 230.474 134.86 226.088 134.014C221.702 133.168 217.637 131.119 214.348 128.097L202.288 129.867L208.325 119.44C206.942 116.046 206.35 112.382 206.596 108.725C206.841 105.069 207.917 101.517 209.742 98.3386C211.566 95.1604 214.091 92.4401 217.125 90.3844C220.159 88.3287 223.621 86.9917 227.249 86.4751C230.878 85.9585 234.576 86.2759 238.063 87.4031C241.549 88.5303 244.734 90.4377 247.373 92.9802C250.012 95.5228 252.036 98.6336 253.293 102.076C254.549 105.519 255.004 109.202 254.623 112.847Z" fill="white"/>
<path d="M254.623 112.847C254.158 117.29 252.475 121.518 249.759 125.065C248.434 126.857 246.84 128.433 245.033 129.737C243.255 131.083 241.296 132.173 239.215 132.975C237.134 133.788 234.95 134.31 232.726 134.525C231.612 134.621 230.494 134.642 229.378 134.587C228.259 134.56 227.144 134.443 226.044 134.237C221.597 133.423 217.466 131.385 214.115 128.351L214.403 128.44L202.37 130.285L201.499 130.423L201.938 129.654L207.941 119.207V119.618C206.526 116.163 205.924 112.428 206.18 108.703C206.437 104.978 207.546 101.361 209.422 98.1326C211.3 94.9182 213.879 92.1697 216.968 90.0927C220.058 88.035 223.578 86.7136 227.258 86.2305C230.915 85.7266 234.638 86.0694 238.141 87.2327C241.644 88.396 244.832 90.3485 247.461 92.9396C250.083 95.5003 252.089 98.6222 253.33 102.07C254.57 105.519 255.012 109.203 254.623 112.847ZM254.623 112.847C255.005 109.218 254.55 105.55 253.292 102.125C252.033 98.6997 250.006 95.609 247.365 93.0908C244.724 90.5726 241.54 88.694 238.059 87.5998C234.578 86.5056 230.892 86.2249 227.286 86.7793C223.712 87.3154 220.308 88.6598 217.332 90.7101C214.386 92.7784 211.926 95.4634 210.122 98.5785C208.34 101.702 207.294 105.191 207.062 108.779C206.838 112.363 207.417 115.951 208.757 119.282L208.846 119.495L208.729 119.694L202.658 130.1L202.226 129.462L214.3 127.775H214.464L214.588 127.891C217.815 130.883 221.81 132.918 226.126 133.77C227.204 133.992 228.299 134.125 229.399 134.168C230.497 134.244 231.6 134.244 232.698 134.168C234.899 133.995 237.064 133.517 239.133 132.748C241.216 131.997 243.177 130.94 244.95 129.613C246.756 128.324 248.354 126.767 249.691 124.996C252.422 121.478 254.129 117.274 254.623 112.847Z" fill="#263238"/>
<path d="M240.868 114.885C238.163 118.506 234.709 121.503 230.743 123.672C226.778 121.501 223.325 118.505 220.618 114.885C217.057 110.165 217.229 102.784 222.333 101.165C227.972 99.3948 230.743 107.887 230.743 107.887C230.743 107.887 233.556 99.3399 239.16 101.165C244.216 102.839 244.436 110.165 240.868 114.885Z" fill="#A866A7"/>
</svg>
