<svg width="141" height="140" viewBox="0 0 141 140" fill="none" xmlns="http://www.w3.org/2000/svg">
<path fill-rule="evenodd" clip-rule="evenodd" d="M70.4998 0C31.8402 0 0.5 31.3402 0.5 69.9998C0.5 108.659 31.8402 140 70.4998 140C109.159 140 140.5 108.659 140.5 69.9998C140.5 31.3402 109.16 0 70.4998 0ZM70.4998 126C39.6217 126 14.5001 100.878 14.5001 69.9998C14.5001 39.1213 39.6213 14.0001 70.4998 14.0001C101.378 14.0001 126.5 39.1213 126.5 69.9998C126.5 100.878 101.378 126 70.4998 126ZM96.8601 44.9905L106.759 54.889L63.4999 98.3288L37.5509 72.3797L47.4491 62.4812L63.4999 78.5321L96.8601 44.9905Z" fill="#722B79"/>
</svg>
