<svg width="16" height="16" viewBox="0 0 16 16" fill="none" xmlns="http://www.w3.org/2000/svg">
<g clip-path="url(#clip0_308_90321)">
<path d="M3.42822 7.99997V4.99426C3.43715 4.40344 3.56257 3.82018 3.79729 3.27792C4.03202 2.73565 4.37144 2.24503 4.79611 1.83417C5.22077 1.4233 5.72233 1.10027 6.27206 0.883584C6.82178 0.666896 7.40886 0.560808 7.99965 0.5714V0.5714C8.59044 0.560808 9.17752 0.666896 9.72725 0.883584C10.277 1.10027 10.7785 1.4233 11.2032 1.83417C11.6279 2.24503 11.9673 2.73565 12.202 3.27792C12.4367 3.82018 12.5622 4.40344 12.5711 4.99426V7.99997" stroke="#F6F6F6" stroke-linecap="round" stroke-linejoin="round"/>
<path d="M1.71415 6.28564H2.857C3.00856 6.28564 3.1539 6.34585 3.26106 6.45301C3.36823 6.56018 3.42843 6.70552 3.42843 6.85707V10.2856C3.42843 10.4372 3.36823 10.5825 3.26106 10.6897C3.1539 10.7969 3.00856 10.8571 2.857 10.8571H1.71415C1.41104 10.8571 1.12035 10.7367 0.906024 10.5223C0.691697 10.308 0.571289 10.0173 0.571289 9.71422V7.4285C0.571289 7.1254 0.691697 6.83471 0.906024 6.62038C1.12035 6.40605 1.41104 6.28564 1.71415 6.28564V6.28564Z" stroke="#F6F6F6" stroke-linecap="round" stroke-linejoin="round"/>
<path d="M14.2854 10.8571H13.1425C12.991 10.8571 12.8456 10.7969 12.7384 10.6897C12.6313 10.5825 12.5711 10.4372 12.5711 10.2856V6.85706C12.5711 6.7055 12.6313 6.56016 12.7384 6.45299C12.8456 6.34583 12.991 6.28563 13.1425 6.28563H14.2854C14.5885 6.28563 14.8792 6.40603 15.0935 6.62036C15.3078 6.83469 15.4282 7.12538 15.4282 7.42848V9.7142C15.4282 10.0173 15.3078 10.308 15.0935 10.5223C14.8792 10.7366 14.5885 10.8571 14.2854 10.8571V10.8571Z" stroke="#F6F6F6" stroke-linecap="round" stroke-linejoin="round"/>
<path d="M10.2856 14C10.8919 14 11.4732 13.7591 11.9019 13.3305C12.3305 12.9018 12.5714 12.3205 12.5714 11.7143V9.14282" stroke="#F6F6F6" stroke-linecap="round" stroke-linejoin="round"/>
<path d="M10.2858 14C10.2858 14.3789 10.1353 14.7422 9.86737 15.0101C9.59946 15.278 9.23609 15.4286 8.85721 15.4286H7.14293C6.76405 15.4286 6.40068 15.278 6.13277 15.0101C5.86487 14.7422 5.71436 14.3789 5.71436 14C5.71436 13.6211 5.86487 13.2577 6.13277 12.9898C6.40068 12.7219 6.76405 12.5714 7.14293 12.5714H8.85721C9.23609 12.5714 9.59946 12.7219 9.86737 12.9898C10.1353 13.2577 10.2858 13.6211 10.2858 14Z" stroke="#F6F6F6" stroke-linecap="round" stroke-linejoin="round"/>
</g>
<defs>
<clipPath id="clip0_308_90321">
<rect width="16" height="16" fill="white"/>
</clipPath>
</defs>
</svg>
