<svg width="24" height="24" viewBox="0 0 24 24" fill="none" xmlns="http://www.w3.org/2000/svg">
<g clip-path="url(#clip0_308_90077)">
<path d="M10.2856 23.1257C11.2323 23.1257 11.9999 22.3582 11.9999 21.4114C11.9999 20.4647 11.2323 19.6971 10.2856 19.6971C9.3388 19.6971 8.57129 20.4647 8.57129 21.4114C8.57129 22.3582 9.3388 23.1257 10.2856 23.1257Z" stroke="#722B79" stroke-linecap="round" stroke-linejoin="round"/>
<path d="M17.9999 23.1257C18.9467 23.1257 19.7142 22.3582 19.7142 21.4114C19.7142 20.4647 18.9467 19.6971 17.9999 19.6971C17.0532 19.6971 16.2856 20.4647 16.2856 21.4114C16.2856 22.3582 17.0532 23.1257 17.9999 23.1257Z" stroke="#722B79" stroke-linecap="round" stroke-linejoin="round"/>
<path d="M14.3657 6.05139C14.1026 4.9946 13.5916 4.01567 12.875 3.19563C12.1584 2.3756 11.2567 1.73804 10.2447 1.33574C9.23272 0.933435 8.13944 0.77796 7.0554 0.882183C5.97136 0.986406 4.92773 1.34733 4.0109 1.93507C3.09408 2.52282 2.33043 3.32048 1.78317 4.26203C1.23591 5.20358 0.920779 6.26193 0.863864 7.34949C0.806949 8.43704 1.00989 9.52251 1.45588 10.516C1.90187 11.5096 2.57809 12.3826 3.42855 13.0628" stroke="#722B79" stroke-linecap="round" stroke-linejoin="round"/>
<path d="M7.71436 7.73134L10.2858 5.15991" stroke="#722B79" stroke-linecap="round" stroke-linejoin="round"/>
<path d="M11.1431 16.2857V14.5714H8.57164C7.66232 14.5714 6.79025 14.9326 6.14727 15.5756C5.50429 16.2186 5.14307 17.0907 5.14307 18V21.4286" stroke="#722B79" stroke-linecap="round" stroke-linejoin="round"/>
<path d="M23.1431 21.4114V12.84C23.1431 12.3854 22.9625 11.9493 22.641 11.6278C22.3195 11.3063 21.8834 11.1257 21.4288 11.1257H12.8574C12.4027 11.1257 11.9667 11.3063 11.6452 11.6278C11.3237 11.9493 11.1431 12.3854 11.1431 12.84V16.2686" stroke="#722B79" stroke-linecap="round" stroke-linejoin="round"/>
</g>
<defs>
<clipPath id="clip0_308_90077">
<rect width="24" height="24" fill="white"/>
</clipPath>
</defs>
</svg>
