<svg width="343" height="343" viewBox="0 0 343 343" fill="none" xmlns="http://www.w3.org/2000/svg">
<path d="M292.051 94.216H233.329C233.329 94.216 239.153 78.3076 248.112 78.3076C257.072 78.3076 259.884 89.2836 259.884 89.2836C259.884 89.2836 265.928 83.3223 270.894 83.3223C275.861 83.3223 280.176 91.2387 280.176 91.2387C280.176 91.2387 287.194 86.9649 292.051 94.216Z" fill="#EBEBEB"/>
<path d="M240.786 53.3164H213.346C213.346 53.3164 219.479 44.3984 224.322 44.3984C229.165 44.3984 230.585 50.3186 230.585 50.3186C230.585 50.3186 234.015 47.5746 237.15 48.0548C240.285 48.535 240.786 53.3164 240.786 53.3164Z" fill="#EBEBEB"/>
<path d="M93.6938 101.844H40.2476C40.2476 101.844 47.5672 85.5035 55.3944 84.4814C63.2217 83.4592 66.9741 96.6236 66.9741 96.6236C66.9741 96.6236 72.0231 91.9725 75.995 91.9725C79.967 91.9725 83.006 98.0985 83.006 98.0985C83.006 98.0985 90.9704 93.9002 93.6938 101.844Z" fill="#EBEBEB"/>
<path d="M149.143 33.1891H113.032C113.032 33.1891 119.206 21.3487 125.97 21.1772C132.734 21.0057 136.26 30.1364 136.26 30.1364C136.26 30.1364 146.701 21.7397 149.143 33.1891Z" fill="#EBEBEB"/>
<path d="M188.19 65.9459H163.823C163.823 65.9459 168.008 57.954 172.549 57.8442C177.09 57.7345 179.478 63.8879 179.478 63.8879C179.478 63.8879 186.544 58.2215 188.19 65.9459Z" fill="#EBEBEB"/>
<path d="M250.973 104.286H226.009V235.161H250.973V104.286Z" fill="#DBDBDB"/>
<path d="M234.735 108.539H229.885V113.533H234.735V108.539Z" fill="#EBEBEB"/>
<path d="M240.944 108.539H236.094V113.533H240.944V108.539Z" fill="#EBEBEB"/>
<path d="M234.735 117.025H229.885V122.019H234.735V117.025Z" fill="#EBEBEB"/>
<path d="M240.944 117.025H236.094V122.019H240.944V117.025Z" fill="#EBEBEB"/>
<path d="M234.735 125.511H229.885V130.505H234.735V125.511Z" fill="#EBEBEB"/>
<path d="M240.944 125.511H236.094V130.505H240.944V125.511Z" fill="#EBEBEB"/>
<path d="M234.735 133.99H229.885V138.984H234.735V133.99Z" fill="#EBEBEB"/>
<path d="M240.944 133.99H236.094V138.984H240.944V133.99Z" fill="#EBEBEB"/>
<path d="M234.735 142.476H229.885V147.47H234.735V142.476Z" fill="#EBEBEB"/>
<path d="M240.944 142.476H236.094V147.47H240.944V142.476Z" fill="#EBEBEB"/>
<path d="M234.735 150.962H229.885V155.956H234.735V150.962Z" fill="#EBEBEB"/>
<path d="M240.944 150.962H236.094V155.956H240.944V150.962Z" fill="#EBEBEB"/>
<path d="M234.735 159.447H229.885V164.441H234.735V159.447Z" fill="#EBEBEB"/>
<path d="M240.944 159.447H236.094V164.441H240.944V159.447Z" fill="#EBEBEB"/>
<path d="M234.735 167.927H229.885V172.921H234.735V167.927Z" fill="#EBEBEB"/>
<path d="M240.944 167.927H236.094V172.921H240.944V167.927Z" fill="#EBEBEB"/>
<path d="M234.735 176.412H229.885V181.406H234.735V176.412Z" fill="#EBEBEB"/>
<path d="M240.944 176.412H236.094V181.406H240.944V176.412Z" fill="#EBEBEB"/>
<path d="M234.735 184.898H229.885V189.893H234.735V184.898Z" fill="#EBEBEB"/>
<path d="M240.944 184.898H236.094V189.893H240.944V184.898Z" fill="#EBEBEB"/>
<path d="M234.735 193.377H229.885V198.371H234.735V193.377Z" fill="#EBEBEB"/>
<path d="M240.944 193.377H236.094V198.371H240.944V193.377Z" fill="#EBEBEB"/>
<path d="M234.735 201.862H229.885V206.856H234.735V201.862Z" fill="#EBEBEB"/>
<path d="M240.944 201.862H236.094V206.856H240.944V201.862Z" fill="#EBEBEB"/>
<path d="M234.735 210.349H229.885V215.343H234.735V210.349Z" fill="#EBEBEB"/>
<path d="M240.944 210.349H236.094V215.343H240.944V210.349Z" fill="#EBEBEB"/>
<path d="M234.735 218.834H229.885V223.828H234.735V218.834Z" fill="#EBEBEB"/>
<path d="M242.247 223.828H247.097V218.834H242.247V223.828Z" fill="#EBEBEB"/>
<path d="M242.247 215.343H247.097V210.349H242.247V215.343Z" fill="#EBEBEB"/>
<path d="M242.247 206.863H247.097V201.869H242.247V206.863Z" fill="#EBEBEB"/>
<path d="M242.247 198.378H247.097V193.384H242.247V198.378Z" fill="#EBEBEB"/>
<path d="M242.247 189.893H247.097V184.899H242.247V189.893Z" fill="#EBEBEB"/>
<path d="M242.247 181.406H247.097V176.412H242.247V181.406Z" fill="#EBEBEB"/>
<path d="M242.247 172.928H247.097V167.934H242.247V172.928Z" fill="#EBEBEB"/>
<path d="M242.247 164.435H247.097V159.44H242.247V164.435Z" fill="#EBEBEB"/>
<path d="M242.247 155.955H247.097V150.961H242.247V155.955Z" fill="#EBEBEB"/>
<path d="M242.247 147.477H247.097V142.482H242.247V147.477Z" fill="#EBEBEB"/>
<path d="M242.247 138.99H247.097V133.996H242.247V138.99Z" fill="#EBEBEB"/>
<path d="M242.247 130.505H247.097V125.511H242.247V130.505Z" fill="#EBEBEB"/>
<path d="M242.247 122.02H247.097V117.025H242.247V122.02Z" fill="#EBEBEB"/>
<path d="M242.247 113.54H247.097V108.546H242.247V113.54Z" fill="#EBEBEB"/>
<path d="M240.944 218.834H236.094V223.828H240.944V218.834Z" fill="#EBEBEB"/>
<path d="M270.654 104.286H250.973V235.161H270.654V104.286Z" fill="#A6A6A6"/>
<path d="M264.617 223.828H268.624V218.834H264.617V223.828Z" fill="#C7C7C7"/>
<path d="M259.5 223.828H263.506V218.834H259.5V223.828Z" fill="#C7C7C7"/>
<path d="M264.617 215.343H268.624V210.349H264.617V215.343Z" fill="#C7C7C7"/>
<path d="M259.5 215.343H263.506V210.349H259.5V215.343Z" fill="#C7C7C7"/>
<path d="M264.617 206.863H268.624V201.869H264.617V206.863Z" fill="#C7C7C7"/>
<path d="M259.5 206.863H263.506V201.869H259.5V206.863Z" fill="#C7C7C7"/>
<path d="M264.617 198.378H268.624V193.384H264.617V198.378Z" fill="#C7C7C7"/>
<path d="M259.5 198.378H263.506V193.384H259.5V198.378Z" fill="#C7C7C7"/>
<path d="M264.617 189.893H268.624V184.899H264.617V189.893Z" fill="#C7C7C7"/>
<path d="M259.5 189.893H263.506V184.899H259.5V189.893Z" fill="#C7C7C7"/>
<path d="M264.617 181.406H268.624V176.412H264.617V181.406Z" fill="#C7C7C7"/>
<path d="M259.5 181.406H263.506V176.412H259.5V181.406Z" fill="#C7C7C7"/>
<path d="M264.617 172.928H268.624V167.934H264.617V172.928Z" fill="#C7C7C7"/>
<path d="M259.5 172.928H263.506V167.934H259.5V172.928Z" fill="#C7C7C7"/>
<path d="M264.617 164.435H268.624V159.44H264.617V164.435Z" fill="#C7C7C7"/>
<path d="M259.5 164.435H263.506V159.44H259.5V164.435Z" fill="#C7C7C7"/>
<path d="M264.617 155.955H268.624V150.961H264.617V155.955Z" fill="#C7C7C7"/>
<path d="M259.5 155.955H263.506V150.961H259.5V155.955Z" fill="#C7C7C7"/>
<path d="M264.617 147.477H268.624V142.482H264.617V147.477Z" fill="#C7C7C7"/>
<path d="M259.5 147.477H263.506V142.482H259.5V147.477Z" fill="#C7C7C7"/>
<path d="M264.617 138.99H268.624V133.996H264.617V138.99Z" fill="#C7C7C7"/>
<path d="M259.5 138.99H263.506V133.996H259.5V138.99Z" fill="#C7C7C7"/>
<path d="M264.617 130.505H268.624V125.511H264.617V130.505Z" fill="#C7C7C7"/>
<path d="M259.5 130.505H263.506V125.511H259.5V130.505Z" fill="#C7C7C7"/>
<path d="M264.617 122.02H268.624V117.025H264.617V122.02Z" fill="#C7C7C7"/>
<path d="M259.5 122.02H263.506V117.025H259.5V122.02Z" fill="#C7C7C7"/>
<path d="M264.617 113.54H268.624V108.546H264.617V113.54Z" fill="#C7C7C7"/>
<path d="M258.416 108.539H254.41V113.533H258.416V108.539Z" fill="#C7C7C7"/>
<path d="M258.416 117.025H254.41V122.019H258.416V117.025Z" fill="#C7C7C7"/>
<path d="M258.416 125.511H254.41V130.505H258.416V125.511Z" fill="#C7C7C7"/>
<path d="M258.416 133.99H254.41V138.984H258.416V133.99Z" fill="#C7C7C7"/>
<path d="M258.416 142.476H254.41V147.47H258.416V142.476Z" fill="#C7C7C7"/>
<path d="M258.416 150.962H254.41V155.956H258.416V150.962Z" fill="#C7C7C7"/>
<path d="M258.416 159.447H254.41V164.441H258.416V159.447Z" fill="#C7C7C7"/>
<path d="M258.416 167.927H254.41V172.921H258.416V167.927Z" fill="#C7C7C7"/>
<path d="M258.416 176.412H254.41V181.406H258.416V176.412Z" fill="#C7C7C7"/>
<path d="M258.416 184.898H254.41V189.893H258.416V184.898Z" fill="#C7C7C7"/>
<path d="M258.416 193.377H254.41V198.371H258.416V193.377Z" fill="#C7C7C7"/>
<path d="M258.416 201.862H254.41V206.856H258.416V201.862Z" fill="#C7C7C7"/>
<path d="M258.416 210.349H254.41V215.343H258.416V210.349Z" fill="#C7C7C7"/>
<path d="M258.416 218.834H254.41V223.828H258.416V218.834Z" fill="#C7C7C7"/>
<path d="M259.5 113.54H263.506V108.546H259.5V113.54Z" fill="#C7C7C7"/>
<path d="M97.2882 97.2344H67.7559V235.162H97.2882V97.2344Z" fill="#EBEBEB"/>
<path d="M97.2882 94.2158H67.0425V97.2342H97.2882V94.2158Z" fill="#C7C7C7"/>
<path d="M73.4158 101.687H70.4248V235.168H73.4158V101.687Z" fill="white"/>
<path d="M78.7117 101.687H75.7207V235.168H78.7117V101.687Z" fill="white"/>
<path d="M84.0144 101.687H81.0234V235.168H84.0144V101.687Z" fill="white"/>
<path d="M89.3171 101.687H86.3262V235.168H89.3171V101.687Z" fill="white"/>
<path d="M94.613 101.687H91.6221V235.168H94.613V101.687Z" fill="white"/>
<path d="M73.4158 105.5H70.4248V111.461H73.4158V105.5Z" fill="#EBEBEB"/>
<path d="M78.7117 105.5H75.7207V111.461H78.7117V105.5Z" fill="#EBEBEB"/>
<path d="M84.0144 105.5H81.0234V111.461H84.0144V105.5Z" fill="#EBEBEB"/>
<path d="M89.3171 105.5H86.3262V111.461H89.3171V105.5Z" fill="#EBEBEB"/>
<path d="M94.613 105.5H91.6221V111.461H94.613V105.5Z" fill="#EBEBEB"/>
<path d="M73.4158 115.187H70.4248V121.148H73.4158V115.187Z" fill="#EBEBEB"/>
<path d="M78.7117 115.187H75.7207V121.148H78.7117V115.187Z" fill="#EBEBEB"/>
<path d="M84.0144 115.187H81.0234V121.148H84.0144V115.187Z" fill="#EBEBEB"/>
<path d="M89.3171 115.187H86.3262V121.148H89.3171V115.187Z" fill="#EBEBEB"/>
<path d="M94.613 115.187H91.6221V121.148H94.613V115.187Z" fill="#EBEBEB"/>
<path d="M73.4158 124.873H70.4248V130.834H73.4158V124.873Z" fill="#EBEBEB"/>
<path d="M78.7117 124.873H75.7207V130.834H78.7117V124.873Z" fill="#EBEBEB"/>
<path d="M84.0144 124.873H81.0234V130.834H84.0144V124.873Z" fill="#EBEBEB"/>
<path d="M89.3171 124.873H86.3262V130.834H89.3171V124.873Z" fill="#EBEBEB"/>
<path d="M94.613 124.873H91.6221V130.834H94.613V124.873Z" fill="#EBEBEB"/>
<path d="M73.4158 134.566H70.4248V140.528H73.4158V134.566Z" fill="#EBEBEB"/>
<path d="M78.7117 134.566H75.7207V140.528H78.7117V134.566Z" fill="#EBEBEB"/>
<path d="M84.0144 134.566H81.0234V140.528H84.0144V134.566Z" fill="#EBEBEB"/>
<path d="M89.3171 134.566H86.3262V140.528H89.3171V134.566Z" fill="#EBEBEB"/>
<path d="M94.613 134.566H91.6221V140.528H94.613V134.566Z" fill="#EBEBEB"/>
<path d="M73.4158 144.253H70.4248V150.214H73.4158V144.253Z" fill="#EBEBEB"/>
<path d="M78.7117 144.253H75.7207V150.214H78.7117V144.253Z" fill="#EBEBEB"/>
<path d="M84.0144 144.253H81.0234V150.214H84.0144V144.253Z" fill="#EBEBEB"/>
<path d="M89.3171 144.253H86.3262V150.214H89.3171V144.253Z" fill="#EBEBEB"/>
<path d="M94.613 144.253H91.6221V150.214H94.613V144.253Z" fill="#EBEBEB"/>
<path d="M73.4158 153.938H70.4248V159.9H73.4158V153.938Z" fill="#EBEBEB"/>
<path d="M78.7117 153.938H75.7207V159.9H78.7117V153.938Z" fill="#EBEBEB"/>
<path d="M84.0144 153.938H81.0234V159.9H84.0144V153.938Z" fill="#EBEBEB"/>
<path d="M89.3171 153.938H86.3262V159.9H89.3171V153.938Z" fill="#EBEBEB"/>
<path d="M94.613 153.938H91.6221V159.9H94.613V153.938Z" fill="#EBEBEB"/>
<path d="M73.4158 163.625H70.4248V169.586H73.4158V163.625Z" fill="#EBEBEB"/>
<path d="M78.7117 163.625H75.7207V169.586H78.7117V163.625Z" fill="#EBEBEB"/>
<path d="M84.0144 163.625H81.0234V169.586H84.0144V163.625Z" fill="#EBEBEB"/>
<path d="M89.3171 163.625H86.3262V169.586H89.3171V163.625Z" fill="#EBEBEB"/>
<path d="M94.613 163.625H91.6221V169.586H94.613V163.625Z" fill="#EBEBEB"/>
<path d="M73.4158 173.318H70.4248V179.28H73.4158V173.318Z" fill="#EBEBEB"/>
<path d="M78.7117 173.318H75.7207V179.28H78.7117V173.318Z" fill="#EBEBEB"/>
<path d="M84.0144 173.318H81.0234V179.28H84.0144V173.318Z" fill="#EBEBEB"/>
<path d="M89.3171 173.318H86.3262V179.28H89.3171V173.318Z" fill="#EBEBEB"/>
<path d="M94.613 173.318H91.6221V179.28H94.613V173.318Z" fill="#EBEBEB"/>
<path d="M73.4158 183.005H70.4248V188.966H73.4158V183.005Z" fill="#EBEBEB"/>
<path d="M78.7117 183.005H75.7207V188.966H78.7117V183.005Z" fill="#EBEBEB"/>
<path d="M84.0144 183.005H81.0234V188.966H84.0144V183.005Z" fill="#EBEBEB"/>
<path d="M89.3171 183.005H86.3262V188.966H89.3171V183.005Z" fill="#EBEBEB"/>
<path d="M94.613 183.005H91.6221V188.966H94.613V183.005Z" fill="#EBEBEB"/>
<path d="M73.4158 192.691H70.4248V198.653H73.4158V192.691Z" fill="#EBEBEB"/>
<path d="M78.7117 192.691H75.7207V198.653H78.7117V192.691Z" fill="#EBEBEB"/>
<path d="M84.0144 192.691H81.0234V198.653H84.0144V192.691Z" fill="#EBEBEB"/>
<path d="M89.3171 192.691H86.3262V198.653H89.3171V192.691Z" fill="#EBEBEB"/>
<path d="M94.613 192.691H91.6221V198.653H94.613V192.691Z" fill="#EBEBEB"/>
<path d="M73.4158 202.384H70.4248V208.345H73.4158V202.384Z" fill="#EBEBEB"/>
<path d="M78.7117 202.384H75.7207V208.345H78.7117V202.384Z" fill="#EBEBEB"/>
<path d="M84.0144 202.384H81.0234V208.345H84.0144V202.384Z" fill="#EBEBEB"/>
<path d="M89.3171 202.384H86.3262V208.345H89.3171V202.384Z" fill="#EBEBEB"/>
<path d="M94.613 202.384H91.6221V208.345H94.613V202.384Z" fill="#EBEBEB"/>
<path d="M73.4158 212.07H70.4248V218.032H73.4158V212.07Z" fill="#EBEBEB"/>
<path d="M78.7117 212.07H75.7207V218.032H78.7117V212.07Z" fill="#EBEBEB"/>
<path d="M84.0144 212.07H81.0234V218.032H84.0144V212.07Z" fill="#EBEBEB"/>
<path d="M89.3171 212.07H86.3262V218.032H89.3171V212.07Z" fill="#EBEBEB"/>
<path d="M94.613 212.07H91.6221V218.032H94.613V212.07Z" fill="#EBEBEB"/>
<path d="M73.4158 221.757H70.4248V227.718H73.4158V221.757Z" fill="#EBEBEB"/>
<path d="M78.7117 221.757H75.7207V227.718H78.7117V221.757Z" fill="#EBEBEB"/>
<path d="M84.0144 221.757H81.0234V227.718H84.0144V221.757Z" fill="#EBEBEB"/>
<path d="M89.3171 221.757H86.3262V227.718H89.3171V221.757Z" fill="#EBEBEB"/>
<path d="M94.613 221.757H91.6221V227.718H94.613V221.757Z" fill="#EBEBEB"/>
<path d="M73.4158 231.443H70.4248V235.161H73.4158V231.443Z" fill="#EBEBEB"/>
<path d="M78.7117 231.443H75.7207V235.161H78.7117V231.443Z" fill="#EBEBEB"/>
<path d="M84.0144 231.443H81.0234V235.161H84.0144V231.443Z" fill="#EBEBEB"/>
<path d="M89.3171 231.443H86.3262V235.161H89.3171V231.443Z" fill="#EBEBEB"/>
<path d="M94.613 231.443H91.6221V235.161H94.613V231.443Z" fill="#EBEBEB"/>
<path d="M116.249 97.2344H97.2881V235.162H116.249V97.2344Z" fill="#DBDBDB"/>
<path d="M117.072 94.2158H97.2881V97.2342H117.072V94.2158Z" fill="#C7C7C7"/>
<path d="M102.948 101.687H99.957V235.168H102.948V101.687Z" fill="#C7C7C7"/>
<path d="M108.251 101.687H105.26V235.168H108.251V101.687Z" fill="#C7C7C7"/>
<path d="M113.553 101.687H110.562V235.168H113.553V101.687Z" fill="#C7C7C7"/>
<path d="M102.948 105.5H99.957V111.461H102.948V105.5Z" fill="#DBDBDB"/>
<path d="M108.251 105.5H105.26V111.461H108.251V105.5Z" fill="#DBDBDB"/>
<path d="M113.553 105.5H110.562V111.461H113.553V105.5Z" fill="#DBDBDB"/>
<path d="M102.948 115.187H99.957V121.148H102.948V115.187Z" fill="#DBDBDB"/>
<path d="M108.251 115.187H105.26V121.148H108.251V115.187Z" fill="#DBDBDB"/>
<path d="M113.553 115.187H110.562V121.148H113.553V115.187Z" fill="#DBDBDB"/>
<path d="M102.948 124.873H99.957V130.834H102.948V124.873Z" fill="#DBDBDB"/>
<path d="M108.251 124.873H105.26V130.834H108.251V124.873Z" fill="#DBDBDB"/>
<path d="M113.553 124.873H110.562V130.834H113.553V124.873Z" fill="#DBDBDB"/>
<path d="M102.948 134.566H99.957V140.528H102.948V134.566Z" fill="#DBDBDB"/>
<path d="M108.251 134.566H105.26V140.528H108.251V134.566Z" fill="#DBDBDB"/>
<path d="M113.553 134.566H110.562V140.528H113.553V134.566Z" fill="#DBDBDB"/>
<path d="M102.948 144.253H99.957V150.214H102.948V144.253Z" fill="#DBDBDB"/>
<path d="M108.251 144.253H105.26V150.214H108.251V144.253Z" fill="#DBDBDB"/>
<path d="M113.553 144.253H110.562V150.214H113.553V144.253Z" fill="#DBDBDB"/>
<path d="M102.948 153.938H99.957V159.9H102.948V153.938Z" fill="#DBDBDB"/>
<path d="M108.251 153.938H105.26V159.9H108.251V153.938Z" fill="#DBDBDB"/>
<path d="M113.553 153.938H110.562V159.9H113.553V153.938Z" fill="#DBDBDB"/>
<path d="M102.948 163.625H99.957V169.586H102.948V163.625Z" fill="#DBDBDB"/>
<path d="M108.251 163.625H105.26V169.586H108.251V163.625Z" fill="#DBDBDB"/>
<path d="M113.553 163.625H110.562V169.586H113.553V163.625Z" fill="#DBDBDB"/>
<path d="M102.948 173.318H99.957V179.28H102.948V173.318Z" fill="#DBDBDB"/>
<path d="M108.251 173.318H105.26V179.28H108.251V173.318Z" fill="#DBDBDB"/>
<path d="M113.553 173.318H110.562V179.28H113.553V173.318Z" fill="#DBDBDB"/>
<path d="M102.948 183.005H99.957V188.966H102.948V183.005Z" fill="#DBDBDB"/>
<path d="M108.251 183.005H105.26V188.966H108.251V183.005Z" fill="#DBDBDB"/>
<path d="M113.553 183.005H110.562V188.966H113.553V183.005Z" fill="#DBDBDB"/>
<path d="M102.948 192.691H99.957V198.653H102.948V192.691Z" fill="#DBDBDB"/>
<path d="M108.251 192.691H105.26V198.653H108.251V192.691Z" fill="#DBDBDB"/>
<path d="M113.553 192.691H110.562V198.653H113.553V192.691Z" fill="#DBDBDB"/>
<path d="M102.948 202.384H99.957V208.345H102.948V202.384Z" fill="#DBDBDB"/>
<path d="M108.251 202.384H105.26V208.345H108.251V202.384Z" fill="#DBDBDB"/>
<path d="M113.553 202.384H110.562V208.345H113.553V202.384Z" fill="#DBDBDB"/>
<path d="M102.948 212.07H99.957V218.032H102.948V212.07Z" fill="#DBDBDB"/>
<path d="M108.251 212.07H105.26V218.032H108.251V212.07Z" fill="#DBDBDB"/>
<path d="M113.553 212.07H110.562V218.032H113.553V212.07Z" fill="#DBDBDB"/>
<path d="M102.948 221.757H99.957V227.718H102.948V221.757Z" fill="#DBDBDB"/>
<path d="M108.251 221.757H105.26V227.718H108.251V221.757Z" fill="#DBDBDB"/>
<path d="M113.553 221.757H110.562V227.718H113.553V221.757Z" fill="#DBDBDB"/>
<path d="M102.948 231.443H99.957V235.161H102.948V231.443Z" fill="#DBDBDB"/>
<path d="M108.251 231.443H105.26V235.161H108.251V231.443Z" fill="#DBDBDB"/>
<path d="M113.553 231.443H110.562V235.161H113.553V231.443Z" fill="#DBDBDB"/>
<path d="M60.0866 147.923H30.6777V235.161H60.0866V147.923Z" fill="#EBEBEB"/>
<path d="M60.0797 140.527H34.8555V147.922H60.0797V140.527Z" fill="#C7C7C7"/>
<path d="M56.8623 151.785H33.9019V235.162H56.8623V151.785Z" fill="#DBDBDB"/>
<path d="M56.8623 159.742H33.9019V161.711H56.8623V159.742Z" fill="white"/>
<path d="M56.8623 167.898H33.9019V169.867H56.8623V167.898Z" fill="white"/>
<path d="M56.8623 176.062H33.9019V178.031H56.8623V176.062Z" fill="white"/>
<path d="M56.8623 184.226H33.9019V186.194H56.8623V184.226Z" fill="white"/>
<path d="M56.8623 192.382H33.9019V194.351H56.8623V192.382Z" fill="white"/>
<path d="M56.8623 200.546H33.9019V202.515H56.8623V200.546Z" fill="white"/>
<path d="M56.8623 208.709H33.9019V210.678H56.8623V208.709Z" fill="white"/>
<path d="M56.8623 216.865H33.9019V218.834H56.8623V216.865Z" fill="white"/>
<path d="M56.8623 225.029H33.9019V226.998H56.8623V225.029Z" fill="white"/>
<path d="M56.8623 233.192H33.9019V235.161H56.8623V233.192Z" fill="white"/>
<path d="M78.5055 147.923H60.0864V235.161H78.5055V147.923Z" fill="#DBDBDB"/>
<path d="M75.7409 140.527H60.0864V147.922H75.7409V140.527Z" fill="#A6A6A6"/>
<path d="M76.7904 151.785H62.6245V235.162H76.7904V151.785Z" fill="#C7C7C7"/>
<path d="M76.7904 159.742H62.6245V161.711H76.7904V159.742Z" fill="white"/>
<path d="M76.7904 167.898H62.6245V169.867H76.7904V167.898Z" fill="white"/>
<path d="M76.7904 176.062H62.6245V178.031H76.7904V176.062Z" fill="white"/>
<path d="M76.7904 184.226H62.6245V186.194H76.7904V184.226Z" fill="white"/>
<path d="M76.7904 192.382H62.6245V194.351H76.7904V192.382Z" fill="white"/>
<path d="M76.7904 200.546H62.6245V202.515H76.7904V200.546Z" fill="white"/>
<path d="M76.7904 208.709H62.6245V210.678H76.7904V208.709Z" fill="white"/>
<path d="M76.7904 216.865H62.6245V218.834H76.7904V216.865Z" fill="white"/>
<path d="M76.7904 225.029H62.6245V226.998H76.7904V225.029Z" fill="white"/>
<path d="M76.7904 233.192H62.6245V235.161H76.7904V233.192Z" fill="white"/>
<path d="M134.648 184.089H111.914V235.162H134.648V184.089Z" fill="#DBDBDB"/>
<path d="M119.508 188.513H115.488V191.641H119.508V188.513Z" fill="#C7C7C7"/>
<path d="M119.508 195.195H115.488V198.323H119.508V195.195Z" fill="#C7C7C7"/>
<path d="M119.508 201.876H115.488V205.004H119.508V201.876Z" fill="#C7C7C7"/>
<path d="M119.508 208.559H115.488V211.687H119.508V208.559Z" fill="#C7C7C7"/>
<path d="M119.508 215.247H115.488V218.375H119.508V215.247Z" fill="#C7C7C7"/>
<path d="M119.508 221.929H115.488V225.057H119.508V221.929Z" fill="#C7C7C7"/>
<path d="M119.508 228.61H115.488V231.739H119.508V228.61Z" fill="#C7C7C7"/>
<path d="M125.305 188.513H121.278V191.641H125.305V188.513Z" fill="#C7C7C7"/>
<path d="M125.305 195.195H121.278V198.323H125.305V195.195Z" fill="#C7C7C7"/>
<path d="M125.305 201.876H121.278V205.004H125.305V201.876Z" fill="#C7C7C7"/>
<path d="M125.305 208.559H121.278V211.687H125.305V208.559Z" fill="#C7C7C7"/>
<path d="M125.305 215.247H121.278V218.375H125.305V215.247Z" fill="#C7C7C7"/>
<path d="M125.305 221.929H121.278V225.057H125.305V221.929Z" fill="#C7C7C7"/>
<path d="M125.305 228.61H121.278V231.739H125.305V228.61Z" fill="#C7C7C7"/>
<path d="M131.081 188.513H127.054V191.641H131.081V188.513Z" fill="#C7C7C7"/>
<path d="M131.081 195.195H127.054V198.323H131.081V195.195Z" fill="#C7C7C7"/>
<path d="M131.081 201.876H127.054V205.004H131.081V201.876Z" fill="#C7C7C7"/>
<path d="M131.081 208.559H127.054V211.687H131.081V208.559Z" fill="#C7C7C7"/>
<path d="M131.081 215.247H127.054V218.375H131.081V215.247Z" fill="#C7C7C7"/>
<path d="M131.081 221.929H127.054V225.057H131.081V221.929Z" fill="#C7C7C7"/>
<path d="M131.081 228.61H127.054V231.739H131.081V228.61Z" fill="#C7C7C7"/>
<path d="M150.597 184.089H134.648V235.162H150.597V184.089Z" fill="#A6A6A6"/>
<path d="M145.699 231.244H148.972V228.116H145.699V231.244Z" fill="#C7C7C7"/>
<path d="M145.699 224.556H148.972V221.428H145.699V224.556Z" fill="#C7C7C7"/>
<path d="M145.699 217.874H148.972V214.746H145.699V217.874Z" fill="#C7C7C7"/>
<path d="M145.699 211.186H148.972V208.057H145.699V211.186Z" fill="#C7C7C7"/>
<path d="M145.699 204.511H148.972V201.383H145.699V204.511Z" fill="#C7C7C7"/>
<path d="M145.699 197.822H148.972V194.694H145.699V197.822Z" fill="#C7C7C7"/>
<path d="M145.699 191.141H148.972V188.012H145.699V191.141Z" fill="#C7C7C7"/>
<path d="M140.987 231.244H144.259V228.116H140.987V231.244Z" fill="#C7C7C7"/>
<path d="M140.987 224.556H144.259V221.428H140.987V224.556Z" fill="#C7C7C7"/>
<path d="M140.987 217.874H144.259V214.746H140.987V217.874Z" fill="#C7C7C7"/>
<path d="M140.987 211.186H144.259V208.057H140.987V211.186Z" fill="#C7C7C7"/>
<path d="M140.987 204.511H144.259V201.383H140.987V204.511Z" fill="#C7C7C7"/>
<path d="M140.987 197.822H144.259V194.694H140.987V197.822Z" fill="#C7C7C7"/>
<path d="M140.987 191.141H144.259V188.012H140.987V191.141Z" fill="#C7C7C7"/>
<path d="M136.287 231.244H139.56V228.116H136.287V231.244Z" fill="#C7C7C7"/>
<path d="M136.287 224.556H139.56V221.428H136.287V224.556Z" fill="#C7C7C7"/>
<path d="M136.287 217.874H139.56V214.746H136.287V217.874Z" fill="#C7C7C7"/>
<path d="M136.287 211.186H139.56V208.057H136.287V211.186Z" fill="#C7C7C7"/>
<path d="M136.287 204.511H139.56V201.383H136.287V204.511Z" fill="#C7C7C7"/>
<path d="M136.287 197.822H139.56V194.694H136.287V197.822Z" fill="#C7C7C7"/>
<path d="M136.287 191.141H139.56V188.012H136.287V191.141Z" fill="#C7C7C7"/>
<path d="M288.079 125.511H272.369V144.067H288.079V125.511Z" fill="#DBDBDB"/>
<path d="M298.039 125.511H288.079V144.746H298.039V125.511Z" fill="#C7C7C7"/>
<path d="M298.698 133.701H288.812V144.746H298.698V133.701Z" fill="#DBDBDB"/>
<path d="M304.865 133.701H298.698V144.746H304.865V133.701Z" fill="#C7C7C7"/>
<path d="M291.742 142.853H266.346V235.161H291.742V142.853Z" fill="#EBEBEB"/>
<path d="M277.233 146.825H269.248V150.091H277.233V146.825Z" fill="white"/>
<path d="M287.447 146.825H279.462V150.091H287.447V146.825Z" fill="white"/>
<path d="M277.233 152.368H269.248V155.634H277.233V152.368Z" fill="white"/>
<path d="M287.447 152.368H279.462V155.634H287.447V152.368Z" fill="white"/>
<path d="M277.233 157.904H269.248V161.17H277.233V157.904Z" fill="white"/>
<path d="M287.447 157.904H279.462V161.17H287.447V157.904Z" fill="white"/>
<path d="M277.233 163.446H269.248V166.712H277.233V163.446Z" fill="white"/>
<path d="M287.447 163.446H279.462V166.712H287.447V163.446Z" fill="white"/>
<path d="M277.233 168.982H269.248V172.248H277.233V168.982Z" fill="white"/>
<path d="M287.447 168.982H279.462V172.248H287.447V168.982Z" fill="white"/>
<path d="M277.233 174.525H269.248V177.791H277.233V174.525Z" fill="white"/>
<path d="M287.447 174.525H279.462V177.791H287.447V174.525Z" fill="white"/>
<path d="M277.233 180.068H269.248V183.334H277.233V180.068Z" fill="white"/>
<path d="M287.447 180.068H279.462V183.334H287.447V180.068Z" fill="white"/>
<path d="M277.233 185.604H269.248V188.87H277.233V185.604Z" fill="white"/>
<path d="M287.447 185.604H279.462V188.87H287.447V185.604Z" fill="white"/>
<path d="M277.233 191.147H269.248V194.413H277.233V191.147Z" fill="white"/>
<path d="M287.447 191.147H279.462V194.413H287.447V191.147Z" fill="white"/>
<path d="M277.233 196.69H269.248V199.956H277.233V196.69Z" fill="white"/>
<path d="M287.447 196.69H279.462V199.956H287.447V196.69Z" fill="white"/>
<path d="M277.233 202.227H269.248V205.492H277.233V202.227Z" fill="white"/>
<path d="M287.447 202.227H279.462V205.492H287.447V202.227Z" fill="white"/>
<path d="M277.233 207.77H269.248V211.035H277.233V207.77Z" fill="white"/>
<path d="M287.447 207.77H279.462V211.035H287.447V207.77Z" fill="white"/>
<path d="M277.233 213.312H269.248V216.578H277.233V213.312Z" fill="white"/>
<path d="M287.447 213.312H279.462V216.578H287.447V213.312Z" fill="white"/>
<path d="M277.233 218.848H269.248V222.113H277.233V218.848Z" fill="white"/>
<path d="M287.447 218.848H279.462V222.113H287.447V218.848Z" fill="white"/>
<path d="M312.322 142.853H291.742V235.161H312.322V142.853Z" fill="#C7C7C7"/>
<path d="M303.699 222.113H310.257V218.848H303.699V222.113Z" fill="#EBEBEB"/>
<path d="M295.316 222.113H301.874V218.848H295.316V222.113Z" fill="#EBEBEB"/>
<path d="M303.699 216.57H310.257V213.305H303.699V216.57Z" fill="#EBEBEB"/>
<path d="M295.316 216.57H301.874V213.305H295.316V216.57Z" fill="#EBEBEB"/>
<path d="M303.699 211.034H310.257V207.769H303.699V211.034Z" fill="#EBEBEB"/>
<path d="M295.316 211.034H301.874V207.769H295.316V211.034Z" fill="#EBEBEB"/>
<path d="M303.699 205.491H310.257V202.226H303.699V205.491Z" fill="#EBEBEB"/>
<path d="M295.316 205.491H301.874V202.226H295.316V205.491Z" fill="#EBEBEB"/>
<path d="M303.699 199.948H310.257V196.683H303.699V199.948Z" fill="#EBEBEB"/>
<path d="M295.316 199.948H301.874V196.683H295.316V199.948Z" fill="#EBEBEB"/>
<path d="M303.699 194.412H310.257V191.147H303.699V194.412Z" fill="#EBEBEB"/>
<path d="M295.316 194.412H301.874V191.147H295.316V194.412Z" fill="#EBEBEB"/>
<path d="M303.699 188.877H310.257V185.612H303.699V188.877Z" fill="#EBEBEB"/>
<path d="M295.316 188.877H301.874V185.612H295.316V188.877Z" fill="#EBEBEB"/>
<path d="M303.699 183.327H310.257V180.062H303.699V183.327Z" fill="#EBEBEB"/>
<path d="M295.316 183.327H301.874V180.062H295.316V183.327Z" fill="#EBEBEB"/>
<path d="M303.699 177.791H310.257V174.526H303.699V177.791Z" fill="#EBEBEB"/>
<path d="M295.316 177.791H301.874V174.526H295.316V177.791Z" fill="#EBEBEB"/>
<path d="M303.699 172.255H310.257V168.99H303.699V172.255Z" fill="#EBEBEB"/>
<path d="M295.316 172.255H301.874V168.99H295.316V172.255Z" fill="#EBEBEB"/>
<path d="M303.699 166.705H310.257V163.44H303.699V166.705Z" fill="#EBEBEB"/>
<path d="M295.316 166.705H301.874V163.44H295.316V166.705Z" fill="#EBEBEB"/>
<path d="M303.699 161.169H310.257V157.904H303.699V161.169Z" fill="#EBEBEB"/>
<path d="M295.316 161.169H301.874V157.904H295.316V161.169Z" fill="#EBEBEB"/>
<path d="M303.699 155.626H310.257V152.361H303.699V155.626Z" fill="#EBEBEB"/>
<path d="M295.316 155.626H301.874V152.361H295.316V155.626Z" fill="#EBEBEB"/>
<path d="M303.699 150.083H310.257V146.818H303.699V150.083Z" fill="#EBEBEB"/>
<path d="M295.316 150.083H301.874V146.818H295.316V150.083Z" fill="#EBEBEB"/>
<path d="M200.003 175.013H170.045V235.161H200.003V175.013Z" fill="#C7C7C7"/>
<path d="M180.061 180.22H174.758V183.904H180.061V180.22Z" fill="#DBDBDB"/>
<path d="M180.061 188.095H174.758V191.779H180.061V188.095Z" fill="#DBDBDB"/>
<path d="M180.061 195.963H174.758V199.647H180.061V195.963Z" fill="#DBDBDB"/>
<path d="M180.061 203.831H174.758V207.515H180.061V203.831Z" fill="#DBDBDB"/>
<path d="M180.061 211.707H174.758V215.391H180.061V211.707Z" fill="#DBDBDB"/>
<path d="M180.061 219.575H174.758V223.259H180.061V219.575Z" fill="#DBDBDB"/>
<path d="M180.061 227.443H174.758V231.127H180.061V227.443Z" fill="#DBDBDB"/>
<path d="M187.69 180.22H182.387V183.904H187.69V180.22Z" fill="#DBDBDB"/>
<path d="M187.69 188.095H182.387V191.779H187.69V188.095Z" fill="#DBDBDB"/>
<path d="M187.69 195.963H182.387V199.647H187.69V195.963Z" fill="#DBDBDB"/>
<path d="M187.69 203.831H182.387V207.515H187.69V203.831Z" fill="#DBDBDB"/>
<path d="M187.69 211.707H182.387V215.391H187.69V211.707Z" fill="#DBDBDB"/>
<path d="M187.69 219.575H182.387V223.259H187.69V219.575Z" fill="#DBDBDB"/>
<path d="M187.69 227.443H182.387V231.127H187.69V227.443Z" fill="#DBDBDB"/>
<path d="M195.297 180.22H189.994V183.904H195.297V180.22Z" fill="#DBDBDB"/>
<path d="M195.297 188.095H189.994V191.779H195.297V188.095Z" fill="#DBDBDB"/>
<path d="M195.297 195.963H189.994V199.647H195.297V195.963Z" fill="#DBDBDB"/>
<path d="M195.297 203.831H189.994V207.515H195.297V203.831Z" fill="#DBDBDB"/>
<path d="M195.297 211.707H189.994V215.391H195.297V211.707Z" fill="#DBDBDB"/>
<path d="M195.297 219.575H189.994V223.259H195.297V219.575Z" fill="#DBDBDB"/>
<path d="M195.297 227.443H189.994V231.127H195.297V227.443Z" fill="#DBDBDB"/>
<path d="M200.003 168.75H180.061V175.02H200.003V168.75Z" fill="#DBDBDB"/>
<path d="M200.003 164.867H187.36V168.75H200.003V164.867Z" fill="#EBEBEB"/>
<path d="M221.022 175.013H200.003V235.161H221.022V175.013Z" fill="#A6A6A6"/>
<path d="M214.56 230.544H218.875V226.86H214.56V230.544Z" fill="#C7C7C7"/>
<path d="M214.56 222.676H218.875V218.992H214.56V222.676Z" fill="#C7C7C7"/>
<path d="M214.56 214.801H218.875V211.117H214.56V214.801Z" fill="#C7C7C7"/>
<path d="M214.56 206.926H218.875V203.242H214.56V206.926Z" fill="#C7C7C7"/>
<path d="M214.56 199.063H218.875V195.38H214.56V199.063Z" fill="#C7C7C7"/>
<path d="M214.56 191.188H218.875V187.505H214.56V191.188Z" fill="#C7C7C7"/>
<path d="M214.56 183.32H218.875V179.637H214.56V183.32Z" fill="#C7C7C7"/>
<path d="M208.352 230.544H212.667V226.86H208.352V230.544Z" fill="#C7C7C7"/>
<path d="M208.352 222.676H212.667V218.992H208.352V222.676Z" fill="#C7C7C7"/>
<path d="M208.352 214.801H212.667V211.117H208.352V214.801Z" fill="#C7C7C7"/>
<path d="M208.352 206.926H212.667V203.242H208.352V206.926Z" fill="#C7C7C7"/>
<path d="M208.352 199.063H212.667V195.38H208.352V199.063Z" fill="#C7C7C7"/>
<path d="M208.352 191.188H212.667V187.505H208.352V191.188Z" fill="#C7C7C7"/>
<path d="M208.352 183.32H212.667V179.637H208.352V183.32Z" fill="#C7C7C7"/>
<path d="M202.157 230.544H206.472V226.86H202.157V230.544Z" fill="#C7C7C7"/>
<path d="M202.157 222.676H206.472V218.992H202.157V222.676Z" fill="#C7C7C7"/>
<path d="M202.157 214.801H206.472V211.117H202.157V214.801Z" fill="#C7C7C7"/>
<path d="M202.157 206.926H206.472V203.242H202.157V206.926Z" fill="#C7C7C7"/>
<path d="M202.157 199.063H206.472V195.38H202.157V199.063Z" fill="#C7C7C7"/>
<path d="M202.157 191.188H206.472V187.505H202.157V191.188Z" fill="#C7C7C7"/>
<path d="M202.157 183.32H206.472V179.637H202.157V183.32Z" fill="#C7C7C7"/>
<path d="M217.839 168.75H200.003V175.02H217.839V168.75Z" fill="#C7C7C7"/>
<path d="M209.669 164.867H200.003V168.75H209.669V164.867Z" fill="#DBDBDB"/>
<path d="M171.5 319.43C243.341 319.43 301.58 314.697 301.58 308.858C301.58 303.02 243.341 298.287 171.5 298.287C99.6594 298.287 41.4209 303.02 41.4209 308.858C41.4209 314.697 99.6594 319.43 171.5 319.43Z" fill="#EBEBEB"/>
<path d="M26.8296 240.149L62.9955 239.984L99.1683 239.922L171.5 239.806L243.832 239.922L280.005 239.977L316.171 240.149L280.005 240.313L243.832 240.375L171.5 240.492L99.1683 240.375L62.9955 240.313L26.8296 240.149Z" fill="#263238"/>
<path d="M314.62 235.161H28.373V240.148H314.62V235.161Z" fill="#C7C7C7"/>
<path d="M48.4457 235.161C48.8938 236.793 48.8938 238.516 48.4457 240.148C48.2045 239.341 48.0888 238.501 48.1027 237.658C48.0913 236.813 48.207 235.972 48.4457 235.161Z" fill="#263238"/>
<path d="M70.8161 235.161C71.0548 235.972 71.1704 236.813 71.1591 237.658C71.1729 238.501 71.0572 239.341 70.8161 240.148C70.368 238.516 70.368 236.793 70.8161 235.161Z" fill="#263238"/>
<path d="M93.1932 235.161C93.6413 236.793 93.6413 238.516 93.1932 240.148C92.9521 239.341 92.8364 238.501 92.8502 237.658C92.8389 236.813 92.9545 235.972 93.1932 235.161Z" fill="#263238"/>
<path d="M115.564 235.161C115.802 235.972 115.918 236.813 115.907 237.658C115.92 238.501 115.805 239.341 115.564 240.148C115.116 238.516 115.116 236.793 115.564 235.161Z" fill="#263238"/>
<path d="M137.941 235.161C138.389 236.793 138.389 238.516 137.941 240.148C137.7 239.341 137.584 238.501 137.598 237.658C137.586 236.813 137.702 235.972 137.941 235.161Z" fill="#263238"/>
<path d="M160.312 235.161C160.55 235.972 160.666 236.813 160.655 237.658C160.668 238.501 160.553 239.341 160.312 240.148C159.864 238.516 159.864 236.793 160.312 235.161Z" fill="#263238"/>
<path d="M182.689 235.161C183.137 236.793 183.137 238.516 182.689 240.148C182.448 239.341 182.332 238.501 182.346 237.658C182.335 236.813 182.45 235.972 182.689 235.161Z" fill="#263238"/>
<path d="M205.059 235.161C205.298 235.972 205.414 236.813 205.402 237.658C205.416 238.501 205.3 239.341 205.059 240.148C204.611 238.516 204.611 236.793 205.059 235.161Z" fill="#263238"/>
<path d="M227.436 235.161C227.884 236.793 227.884 238.516 227.436 240.148C227.195 239.341 227.08 238.501 227.093 237.658C227.082 236.813 227.198 235.972 227.436 235.161Z" fill="#263238"/>
<path d="M249.807 235.161C250.045 235.972 250.161 236.813 250.15 237.658C250.164 238.501 250.048 239.341 249.807 240.148C249.359 238.516 249.359 236.793 249.807 235.161Z" fill="#263238"/>
<path d="M272.184 235.161C272.633 236.793 272.633 238.516 272.184 240.148C271.943 239.341 271.828 238.501 271.841 237.658C271.83 236.813 271.946 235.972 272.184 235.161Z" fill="#263238"/>
<path d="M294.555 235.161C294.794 235.972 294.909 236.813 294.898 237.658C294.912 238.501 294.796 239.341 294.555 240.148C294.107 238.516 294.107 236.793 294.555 235.161Z" fill="#263238"/>
<path d="M60.6565 235.161C60.6565 235.161 60.0802 232.465 58.9278 232.054C57.7753 231.642 57.0687 232.849 57.0687 232.849C57.0687 232.849 56.8012 230.27 55.1616 229.502C53.5221 228.733 52.301 230.311 52.301 230.311C52.301 230.311 51.0456 227.066 48.8024 227.066C46.5592 227.066 45.4341 231.868 45.4341 231.868C45.4341 231.868 44.1102 230.448 42.7519 231.251C41.3936 232.054 41.3799 235.209 41.3799 235.209L60.6565 235.161Z" fill="#37474F"/>
<path d="M251.941 235.161C251.941 235.161 251.364 232.465 250.212 232.054C249.059 231.642 248.36 232.849 248.36 232.849C248.36 232.849 248.085 230.27 246.453 229.502C244.82 228.733 243.592 230.311 243.592 230.311C243.592 230.311 242.337 227.066 240.1 227.066C237.864 227.066 236.725 231.868 236.725 231.868C236.725 231.868 235.408 230.448 234.05 231.251C232.691 232.054 232.678 235.209 232.678 235.209L251.941 235.161Z" fill="#455A64"/>
<path d="M111.612 235.161H91.3408C91.3408 235.161 92.0268 232.307 93.3508 232.101C93.7614 232.061 94.1745 232.149 94.5333 232.353C94.892 232.556 95.1787 232.867 95.3539 233.24C95.3539 233.24 95.2922 229.254 97.803 228.575C100.314 227.896 102.413 231.415 102.413 231.415C102.413 231.415 103.991 229.405 106.131 229.536C108.271 229.666 108.827 232.966 108.827 232.966C108.827 232.966 110.748 231.82 111.612 235.161Z" fill="#37474F"/>
<path d="M42.6419 235.161H31.9746C31.9746 235.161 31.9746 233.577 33.0448 233.151C33.33 233.028 33.6474 233.001 33.9492 233.074C34.2511 233.147 34.5211 233.316 34.7186 233.556C34.7186 233.556 35.1439 230.634 37.099 230.634C39.0541 230.634 39.9939 233.151 39.9939 233.151C40.1598 232.911 40.3924 232.724 40.663 232.615C40.9336 232.505 41.2305 232.477 41.5169 232.534C42.6007 232.671 42.6419 235.161 42.6419 235.161Z" fill="#455A64"/>
<path d="M119.982 235.161H109.314C109.314 235.161 109.314 233.577 110.385 233.151C110.67 233.028 110.987 233.001 111.289 233.074C111.591 233.147 111.861 233.316 112.058 233.556C112.058 233.556 112.491 230.634 114.446 230.634C116.401 230.634 117.334 233.151 117.334 233.151C117.5 232.911 117.732 232.724 118.003 232.615C118.273 232.505 118.57 232.477 118.857 232.534C119.941 232.671 119.982 235.161 119.982 235.161Z" fill="#455A64"/>
<path d="M295.46 235.161H284.793C284.793 235.161 284.793 233.577 285.863 233.151C286.148 233.028 286.466 233.001 286.768 233.074C287.069 233.147 287.339 233.316 287.537 233.556C287.537 233.556 287.962 230.634 289.917 230.634C291.873 230.634 292.812 233.151 292.812 233.151C292.978 232.91 293.21 232.723 293.481 232.614C293.752 232.504 294.049 232.476 294.335 232.534C295.419 232.671 295.46 235.161 295.46 235.161Z" fill="#455A64"/>
<path d="M311.026 235.161H293.437C293.437 235.161 293.478 232.54 295.206 231.847C295.676 231.65 296.198 231.61 296.693 231.734C297.187 231.857 297.629 232.138 297.95 232.533C297.95 232.533 298.636 227.731 301.881 227.731C305.126 227.731 306.642 231.868 306.642 231.868C306.915 231.471 307.299 231.163 307.745 230.982C308.191 230.8 308.68 230.753 309.153 230.846C310.957 231.059 311.026 235.161 311.026 235.161Z" fill="#37474F"/>
<path d="M231.765 33.168H220.035V39.8153H231.765V33.168Z" fill="#263238"/>
<path d="M233.419 30.9316H218.375V35.2809H233.419V30.9316Z" fill="#455A64"/>
<path d="M205.536 39.7379L202.34 42.9346L207.389 47.9842L210.586 44.7876L205.536 39.7379Z" fill="#263238"/>
<path d="M204.781 37.0951L199.702 42.1738L203.001 45.4723L208.079 40.3936L204.781 37.0951Z" fill="#455A64"/>
<path d="M241.213 44.7819L244.41 47.9785L249.459 42.9289L246.263 39.7322L241.213 44.7819Z" fill="#263238"/>
<path d="M243.706 40.3969L248.785 45.4756L252.084 42.1771L247.005 37.0984L243.706 40.3969Z" fill="#455A64"/>
<path d="M253.647 73.9975C257.244 58.6641 247.729 43.3185 232.396 39.7221C217.062 36.1257 201.717 45.6404 198.12 60.9738C194.524 76.3071 204.039 91.6528 219.372 95.2492C234.705 98.8456 250.051 89.3309 253.647 73.9975Z" fill="#455A64"/>
<path d="M225.55 94.229C240.576 94.229 252.757 82.0481 252.757 67.0222C252.757 51.9963 240.576 39.8154 225.55 39.8154C210.524 39.8154 198.343 51.9963 198.343 67.0222C198.343 82.0481 210.524 94.229 225.55 94.229Z" fill="#263238"/>
<path d="M249.668 70.8399C251.589 57.7079 242.5 45.5055 229.368 43.585C216.236 41.6646 204.033 50.7534 202.113 63.8854C200.193 77.0175 209.281 89.2199 222.413 91.1403C235.545 93.0608 247.748 83.972 249.668 70.8399Z" fill="white"/>
<path opacity="0.5" d="M249.93 67.3723H225.92V43.3623C232.288 43.3623 238.395 45.8919 242.898 50.3947C247.401 54.8974 249.93 61.0045 249.93 67.3723Z" fill="#A866A7"/>
<path d="M226.133 45.084H225.667V48.7266H226.133V45.084Z" fill="#C7C7C7"/>
<path d="M214.952 47.9377L214.548 48.1709L216.369 51.3255L216.773 51.0923L214.952 47.9377Z" fill="#C7C7C7"/>
<path d="M206.704 56.0159L206.471 56.4199L209.625 58.2413L209.859 57.8373L206.704 56.0159Z" fill="#C7C7C7"/>
<path d="M207.255 67.1387H203.612V67.6051H207.255V67.1387Z" fill="#C7C7C7"/>
<path d="M210.452 76.7236L207.283 78.5449L207.516 78.9508L210.685 77.1294L210.452 76.7236Z" fill="#C7C7C7"/>
<path d="M216.371 83.404L214.551 86.5596L214.955 86.7926L216.775 83.637L216.371 83.404Z" fill="#C7C7C7"/>
<path d="M226.133 86.0176H225.667V89.6602H226.133V86.0176Z" fill="#C7C7C7"/>
<path d="M235.418 83.3908L235.014 83.624L236.835 86.7787L237.239 86.5454L235.418 83.3908Z" fill="#C7C7C7"/>
<path d="M242.158 76.4759L241.925 76.8799L245.079 78.7012L245.313 78.2972L242.158 76.4759Z" fill="#C7C7C7"/>
<path d="M248.188 67.1387H244.545V67.6051H248.188V67.1387Z" fill="#C7C7C7"/>
<path d="M245.081 56.0127L241.926 57.834L242.16 58.238L245.314 56.4166L245.081 56.0127Z" fill="#C7C7C7"/>
<path d="M236.836 47.9473L235.016 51.1025L235.42 51.3356L237.24 48.1804L236.836 47.9473Z" fill="#C7C7C7"/>
<path d="M226.064 49.9824L227.134 68.7994L224.72 68.7651L225.413 49.9756L226.064 49.9824Z" fill="#A866A7"/>
<path d="M226.723 67.3721C226.723 67.5365 226.674 67.6973 226.583 67.8339C226.491 67.9706 226.361 68.077 226.209 68.1396C226.057 68.2022 225.89 68.2182 225.729 68.1856C225.567 68.153 225.419 68.0733 225.304 67.9565C225.188 67.8398 225.109 67.6912 225.078 67.5298C225.047 67.3683 225.064 67.2012 225.128 67.0496C225.192 66.8981 225.299 66.7689 225.437 66.6786C225.574 66.5882 225.735 66.5407 225.9 66.542C226.009 66.542 226.116 66.5635 226.217 66.6053C226.317 66.6471 226.408 66.7084 226.484 66.7855C226.561 66.8627 226.621 66.9543 226.662 67.0549C226.703 67.1556 226.724 67.2634 226.723 67.3721Z" fill="#A866A7"/>
<path d="M243.317 67.6532L224.5 68.7165L224.535 66.3018L243.324 66.9946L243.317 67.6532Z" fill="#263238"/>
<path d="M226.723 67.3721C226.723 67.5365 226.674 67.6973 226.583 67.8339C226.491 67.9706 226.361 68.077 226.209 68.1396C226.057 68.2022 225.89 68.2182 225.729 68.1856C225.567 68.153 225.419 68.0733 225.304 67.9565C225.188 67.8398 225.109 67.6912 225.078 67.5298C225.047 67.3683 225.064 67.2012 225.128 67.0496C225.192 66.8981 225.299 66.7689 225.437 66.6786C225.574 66.5882 225.735 66.5407 225.9 66.542C226.009 66.542 226.116 66.5635 226.217 66.6053C226.317 66.6471 226.408 66.7084 226.484 66.7855C226.561 66.8627 226.621 66.9543 226.662 67.0549C226.703 67.1556 226.724 67.2634 226.723 67.3721Z" fill="#A866A7"/>
<path d="M128.193 119.021C131.726 132.501 136.329 141.303 139.416 144.348C146.811 151.647 162.74 153.266 171.699 156.985C174.614 158.199 182.675 139.704 179.691 138.085C177.489 136.885 151.915 133.647 149.74 132.981C148.622 132.638 140.136 121.587 135.334 115.372C127.596 105.411 126.258 111.661 128.193 119.021Z" fill="#F7A9A0"/>
<path d="M185.7 159.577C184.328 159.543 184.28 160.263 186.194 161.848C188.108 163.433 197.019 168.022 195.146 171.006C193.273 173.99 180.795 167.295 177.811 164.427C174.827 161.56 170.992 155.88 170.992 155.88C173.688 156.696 180.418 158.048 185.7 159.577Z" fill="#F7A9A0"/>
<path d="M177.537 137.502C190.818 139.56 196.1 142.16 201.917 148.951C202.581 149.685 202.982 150.619 203.056 151.606C205.718 154.597 205.114 156.758 205.114 156.758C206.733 160.305 205.8 162.424 205.8 162.424C205.8 162.424 208.887 165.971 207.048 168.194C204.99 170.691 201.066 165.216 197.067 163.529C187.895 159.653 173.743 156.717 170.999 155.866L177.537 137.502Z" fill="#F7A9A0"/>
<path d="M190.283 152.731C192.982 153.829 195.601 155.113 198.124 156.572C200.782 158.338 203.305 160.301 205.67 162.444C205.686 162.454 205.704 162.457 205.723 162.454C205.741 162.452 205.758 162.443 205.771 162.429C205.783 162.416 205.791 162.399 205.793 162.38C205.794 162.362 205.79 162.343 205.779 162.328C201.618 157.736 196.277 154.374 190.337 152.607C190.2 152.566 190.145 152.669 190.283 152.731Z" fill="#263238"/>
<path d="M191.812 146.852C194.357 148.156 198.803 150.481 205.025 156.834C205.025 156.834 205.086 156.834 205.066 156.834C201.689 152.315 197.121 148.826 191.874 146.756C191.709 146.66 191.648 146.763 191.812 146.852Z" fill="#263238"/>
<path d="M192.697 143.711C196.93 146.098 199.297 148.135 203.022 151.62C203.022 151.62 203.077 151.62 203.056 151.586C199.249 147.182 197.369 146.016 192.766 143.553C192.601 143.47 192.533 143.615 192.697 143.711Z" fill="#263238"/>
<path d="M143.258 125.133L131.026 136.596C131.026 136.596 126.087 118.815 126.121 113.19C126.121 106.844 129.387 108.244 133.667 112.504C137.948 116.764 143.258 125.133 143.258 125.133Z" fill="#A866A7"/>
<path opacity="0.1" d="M143.258 125.133L131.026 136.596C131.026 136.596 126.087 118.815 126.121 113.19C126.121 106.844 129.387 108.244 133.667 112.504C137.948 116.764 143.258 125.133 143.258 125.133Z" fill="black"/>
<path d="M140.753 123.323C138.997 124.571 134.257 129.058 133.461 129.792C133.043 130.183 131.451 131.795 131.033 132.179C130.978 132.227 131.033 132.303 131.115 132.255C131.918 131.527 132.796 130.883 133.598 130.149C134.401 129.415 139.395 125.031 140.808 123.385C140.843 123.35 140.795 123.295 140.753 123.323Z" fill="#263238"/>
<path d="M208.078 262.69C206.417 263.232 158.617 261.318 156.827 260.159C156.607 260.028 155.756 250.836 155.756 250.836L161.286 215.514L192.67 215.932L186.613 246.116C186.613 246.116 193.528 249.299 199.228 252.077C202.741 253.779 205.793 255.336 206.493 255.905C208.331 257.373 209.745 262.155 208.078 262.69Z" fill="#F7A9A0"/>
<path d="M208.084 262.69C206.424 263.232 158.61 261.318 156.827 260.166C156.614 260.028 155.75 250.836 155.75 250.836L157.458 239.956L187.566 241.328L186.592 246.089C186.592 246.089 193.5 249.272 199.208 252.043C202.72 253.745 205.773 255.302 206.472 255.871C208.325 257.38 209.738 262.162 208.084 262.69Z" fill="#EBEBEB"/>
<path d="M208.057 262.738C206.363 263.266 158.247 262.148 156.442 260.941C155.756 260.495 155.503 253.47 155.448 244.977V244.717L186.503 245.094V245.615C186.503 245.615 204.73 254.287 206.575 255.823C208.421 257.36 209.751 262.23 208.057 262.738Z" fill="#C7C7C7"/>
<path d="M205.313 262.875C194.783 262.985 157.979 261.997 156.442 260.948C155.756 260.502 155.503 253.477 155.448 244.984V244.724L174.896 244.957L205.313 262.875Z" fill="#A6A6A6"/>
<path d="M207.556 260.872C199.447 260.481 166.711 259.679 158.672 259.912C158.603 259.912 158.603 259.96 158.672 259.967C166.698 260.522 199.434 261.057 207.549 261.003C207.721 261.003 207.727 260.879 207.556 260.872Z" fill="#263238"/>
<path d="M189.082 245.78C185.906 245.094 181.989 245.506 179.478 247.728C179.382 247.811 179.478 247.948 179.608 247.914C182.682 247.002 185.844 246.422 189.041 246.185C189.09 246.182 189.136 246.162 189.172 246.128C189.208 246.095 189.23 246.049 189.235 246C189.24 245.951 189.227 245.902 189.199 245.862C189.171 245.821 189.13 245.792 189.082 245.78Z" fill="#263238"/>
<path d="M191.353 247.221C188.177 246.535 184.26 246.954 181.749 249.17C181.653 249.252 181.749 249.389 181.879 249.362C184.96 248.453 188.129 247.878 191.332 247.647C191.389 247.649 191.444 247.63 191.486 247.592C191.528 247.554 191.553 247.501 191.555 247.444C191.558 247.388 191.538 247.333 191.5 247.291C191.462 247.249 191.409 247.224 191.353 247.221Z" fill="#263238"/>
<path d="M193.623 248.662C190.447 247.976 186.53 248.394 184.019 250.61C183.923 250.699 184.019 250.83 184.15 250.802C187.223 249.888 190.385 249.307 193.582 249.066C193.631 249.064 193.678 249.044 193.714 249.01C193.749 248.976 193.771 248.931 193.776 248.882C193.781 248.833 193.769 248.784 193.741 248.743C193.713 248.703 193.671 248.674 193.623 248.662Z" fill="#263238"/>
<path d="M189.247 241.548L154.213 239.956C154.213 239.956 166.321 190.79 165.031 189.192C163.659 187.477 112.936 200.168 102.797 187.587C92.4109 174.697 97.6176 156.141 97.6176 156.141H132.213C132.213 156.141 131.527 160.785 131.993 163.001C131.993 163.001 180.699 155.551 191.291 161.162C193.349 162.267 200.895 168.468 201.018 174.347C201.684 200.312 189.247 241.548 189.247 241.548Z" fill="#455A64"/>
<path d="M189.596 235.202C185.439 234.681 181.275 234.366 177.098 234.05C172.92 233.734 168.742 233.487 164.564 233.33C162.204 233.234 159.845 233.254 157.485 233.172C157.473 233.176 157.462 233.184 157.455 233.194C157.447 233.205 157.443 233.217 157.443 233.23C157.443 233.243 157.447 233.256 157.455 233.266C157.462 233.276 157.473 233.284 157.485 233.289C159.584 233.439 161.676 233.707 163.775 233.872L169.991 234.324C174.168 234.599 178.346 234.832 182.524 235.086C184.877 235.23 187.23 235.305 189.59 235.36C189.607 235.356 189.622 235.346 189.634 235.332C189.645 235.319 189.651 235.302 189.652 235.284C189.653 235.266 189.648 235.249 189.638 235.234C189.628 235.219 189.613 235.208 189.596 235.202Z" fill="#263238"/>
<path d="M170.43 185.701C163.7 185.92 157.005 186.503 150.31 187.162C143.614 187.82 136.878 188.534 130.128 188.973C126.78 189.186 123.418 189.323 120.057 189.343C117.265 189.463 114.471 189.172 111.763 188.479C109.075 187.693 106.778 185.932 105.322 183.54C103.858 181.116 102.899 178.421 102.502 175.617C101.617 169.943 102.502 164.147 103.538 158.549C103.669 157.863 103.799 157.177 103.922 156.436C103.922 156.374 103.833 156.347 103.813 156.436C102.441 162.082 101.158 167.892 101.569 173.723C101.738 176.584 102.435 179.39 103.627 181.996C104.702 184.529 106.551 186.657 108.91 188.074C111.317 189.446 114.164 189.851 116.929 189.988C120.153 190.153 123.418 189.988 126.643 189.844C133.544 189.508 140.418 188.795 147.278 188.081C154.138 187.368 160.963 186.668 167.858 186.325C168.619 186.284 169.38 186.256 170.142 186.229C169.099 192.403 160.27 229.159 159.776 232.067C159.728 232.356 160.003 232.445 160.078 232.15C161.588 226.422 170.156 189.618 170.725 186.023C170.734 185.981 170.733 185.938 170.722 185.897C170.711 185.855 170.69 185.817 170.661 185.786C170.632 185.754 170.596 185.73 170.556 185.715C170.516 185.7 170.473 185.695 170.43 185.701Z" fill="#263238"/>
<path d="M197.437 264.124H122.567V272.404H197.437V264.124Z" fill="#A866A7"/>
<path d="M56.7734 191.483H61.0198L88.4598 222.875H84.2134L56.7734 191.483Z" fill="#A6A6A6"/>
<path d="M110.254 188.993H51.2441V191.476H110.254V188.993Z" fill="#A6A6A6"/>
<path d="M72.7847 191.483H77.031L104.471 222.875H100.225L72.7847 191.483Z" fill="#A6A6A6"/>
<path d="M100.087 249.354C121.408 249.354 133.763 264.165 133.763 281.597C133.763 299.028 122.321 313.502 101.528 313.502C78.5195 313.502 67.5298 295.2 67.5298 281.439C67.5298 267.678 78.5058 249.354 100.087 249.354Z" fill="#37474F"/>
<path d="M96.8083 249.354C117.08 249.354 128.817 264.165 128.817 281.597C128.817 299.028 117.944 313.502 98.1666 313.502C76.29 313.502 65.856 295.172 65.856 281.411C65.856 267.65 76.29 249.354 96.8083 249.354Z" fill="#263238"/>
<path d="M97.0139 261.874C109.362 261.874 116.517 270.902 116.517 281.521C116.517 292.14 109.89 300.955 97.844 300.955C84.5082 300.955 78.1421 289.801 78.1421 281.411C78.1421 273.022 84.5082 261.874 97.0139 261.874Z" fill="#C7C7C7"/>
<path d="M160.442 210.273V207.467L88.693 209.779V216.09C88.693 216.09 67.9141 239.037 65.8149 262.889L137.763 264.412L149.322 264.124H163.515V249.704C163.515 249.704 152.786 241.883 154.666 225.906C155.29 220.604 160.442 210.273 160.442 210.273Z" fill="#A866A7"/>
<path d="M131.06 261.071C130.312 262.443 119.398 264.412 98.7084 264.967C80.0835 265.468 66.1715 265.057 65.0944 263.856C64.0174 262.656 66.7614 241.424 79.3701 229.927C91.9788 218.429 109.828 216.776 121.6 223.636C131.952 229.652 139.676 244.943 131.06 261.071Z" fill="#A866A7"/>
<path opacity="0.1" d="M134.573 240.971C133.466 235.944 130.915 231.349 127.232 227.752C123.541 224.053 118.931 221.404 113.876 220.076C108.238 218.669 102.333 218.732 96.726 220.261C93.9201 220.997 91.2068 222.049 88.638 223.396C85.9259 224.854 83.3698 226.584 81.0097 228.562C80.3786 229.083 79.7406 229.604 79.1163 230.139C79.0614 230.181 79.1163 230.256 79.1986 230.215C81.5733 228.127 84.144 226.273 86.875 224.679C89.367 223.256 92.011 222.117 94.7571 221.283C100.202 219.58 105.984 219.255 111.585 220.337C116.647 221.354 121.339 223.725 125.161 227.197C128.843 230.512 131.552 234.77 132.995 239.51C134.71 245.286 134.147 251.646 132.439 257.346C132.213 258.115 131.966 258.869 131.712 259.624C131.712 259.706 131.808 259.734 131.835 259.658C134.14 253.738 135.862 247.358 134.573 240.971Z" fill="black"/>
<path d="M84.7004 267.156C72.2083 267.156 65.5953 266.771 62.2407 265.441L63.7979 261.524C67.7219 263.081 80.0081 263.053 99.7787 262.827C114.384 262.655 125.161 261.277 131.883 258.711L133.386 262.649C126.114 265.393 115.138 266.847 99.8267 267.025C94.0163 267.108 89.0084 267.156 84.7004 267.156Z" fill="#DBDBDB"/>
<path d="M161.622 209.312C161.622 209.312 162.102 193.616 161.622 192.999C161.141 192.381 88.5078 191.071 86.3331 191.263C84.1585 191.455 83.939 209.785 84.1036 210.643C84.2683 211.5 159.728 209.476 161.622 209.312Z" fill="#37474F"/>
<path d="M168.427 193.315C168.214 193.068 159.008 192.808 158.5 192.794C157.993 192.78 157.814 209.512 158.089 209.498C158.363 209.484 168.091 209.622 168.413 209.265C168.736 208.908 168.886 193.85 168.427 193.315Z" fill="#455A64"/>
<path d="M117.553 191.277C117.293 191.549 117.123 191.894 117.066 192.265C116.98 192.657 116.918 193.053 116.881 193.452C116.791 194.248 116.743 195.057 116.702 195.86C116.634 197.479 116.592 199.105 116.565 200.737C116.538 202.37 116.496 203.989 116.565 205.601C116.571 206.399 116.626 207.197 116.73 207.988C116.771 208.371 116.861 208.747 116.997 209.106C117.047 209.268 117.136 209.415 117.256 209.534C117.375 209.654 117.522 209.742 117.683 209.792C117.502 209.787 117.326 209.73 117.177 209.628C117.027 209.526 116.91 209.383 116.839 209.216C116.647 208.857 116.498 208.478 116.394 208.084C116.199 207.28 116.073 206.461 116.016 205.635C115.89 203.992 115.848 202.344 115.893 200.696C115.934 199.057 116.003 197.41 116.188 195.771C116.277 194.951 116.407 194.135 116.579 193.328C116.675 192.929 116.791 192.535 116.929 192.149C117.038 191.812 117.23 191.394 117.553 191.277Z" fill="#455A64"/>
<path d="M53.9743 188.959H122.567V146.317H53.9743V188.959Z" fill="#37474F"/>
<path d="M53.9746 188.959H103.531V146.317H53.9746L53.9746 188.959Z" fill="#263238"/>
<path d="M81.421 146.311H76.0908V188.952H81.421V146.311Z" fill="#A866A7"/>
<path d="M103.538 142.365H52.582V146.31H103.538V142.365Z" fill="#37474F"/>
<path d="M124.104 142.365H103.531V146.31H124.104V142.365Z" fill="#263238"/>
<path d="M81.8671 142.365H75.6382V146.31H81.8671V142.365Z" fill="#A866A7"/>
<path d="M61.2389 142.544H111.31V111.413H61.2389L61.2389 142.544Z" fill="#37474F"/>
<path d="M61.2393 142.544H97.4121V111.413H61.2393L61.2393 142.544Z" fill="#263238"/>
<path d="M81.2705 111.42H77.3809V142.551H81.2705V111.42Z" fill="#A866A7"/>
<path d="M97.4117 108.539H60.2168V111.42H97.4117V108.539Z" fill="#37474F"/>
<path d="M112.429 108.539H97.4121V111.42H112.429V108.539Z" fill="#263238"/>
<path d="M81.5995 108.539H77.0513V111.42H81.5995V108.539Z" fill="#A866A7"/>
<path d="M256.687 249.094C278.015 249.094 290.363 263.904 290.363 281.336C290.363 298.767 278.921 313.221 258.121 313.221C235.106 313.221 224.116 294.919 224.116 281.164C224.116 267.41 235.106 249.094 256.687 249.094Z" fill="#37474F"/>
<path d="M253.408 249.094C273.68 249.094 285.424 263.904 285.424 281.336C285.424 298.767 274.544 313.221 254.774 313.221C232.897 313.221 222.449 294.919 222.449 281.164C222.449 267.41 232.897 249.094 253.408 249.094Z" fill="#263238"/>
<path d="M253.614 261.613C265.962 261.613 273.124 270.641 273.124 281.26C273.124 291.88 266.497 300.695 254.444 300.695C241.115 300.695 234.749 289.54 234.749 281.157C234.749 272.775 241.115 261.613 253.614 261.613Z" fill="#C7C7C7"/>
<path d="M222.188 176.275H213.798L208.05 167.837H217.88L222.188 176.275Z" fill="#A866A7"/>
<path d="M208.05 167.837L211.418 172.776L213.798 176.275H222.188L219.918 171.829L217.873 167.837H208.05Z" fill="#A866A7"/>
<path opacity="0.1" d="M208.05 167.837L211.418 172.776L219.918 171.829L217.873 167.837H208.05Z" fill="black"/>
<path d="M242.576 239.242L234.406 241.122L226.915 234.18L236.492 231.984L242.576 239.242Z" fill="#A866A7"/>
<path d="M226.915 234.18L231.299 238.248L234.399 241.122L242.583 239.242L239.373 235.421L236.492 231.984L226.915 234.18Z" fill="#A866A7"/>
<path opacity="0.1" d="M226.915 234.18L231.299 238.248L239.373 235.421L236.492 231.984L226.915 234.18Z" fill="black"/>
<path d="M288.511 253.21L280.574 257.381C280.574 257.381 257.586 253.21 242.844 256.365C228.102 259.521 224.123 267.396 224.123 267.396H216.673C216.673 267.396 223.066 244.683 233.912 236.437C244.758 228.191 262.189 230.037 271.827 235.23C281.466 240.423 288.511 253.21 288.511 253.21Z" fill="#A866A7"/>
<path opacity="0.1" d="M279.737 255.81C278.2 254.204 276.534 252.727 274.757 251.392C272.996 250.023 271.133 248.789 269.186 247.701C265.412 245.604 261.272 244.244 256.989 243.695C248.606 242.666 239.839 245.108 233.665 251.55C230.194 255.199 227.725 259.679 225.378 264.199C225.344 264.268 225.44 264.323 225.474 264.254C227.462 260.279 229.972 256.588 232.938 253.278C235.796 250.158 239.353 247.76 243.317 246.281C251.227 243.379 259.781 244.491 267.382 247.996C269.559 248.983 271.659 250.129 273.666 251.426C275.718 252.808 277.699 254.294 279.6 255.878C279.612 255.889 279.627 255.896 279.644 255.899C279.66 255.901 279.677 255.898 279.692 255.891C279.707 255.883 279.719 255.872 279.727 255.857C279.735 255.843 279.739 255.826 279.737 255.81Z" fill="black"/>
<path d="M192.512 171.733C192.389 172.021 175.822 175.067 175.822 175.067C175.822 175.067 173.078 173.215 174.772 170.869L191.394 167.281C192.033 167.805 192.487 168.521 192.688 169.323C192.889 170.124 192.828 170.969 192.512 171.733Z" fill="#263238"/>
<path d="M227.286 150.316V169.97C227.286 169.97 216.673 169.044 213.847 168.948C211.021 168.852 198.46 170.478 198.46 170.478L197.486 166.074C197.486 166.074 207.172 162.692 211.288 160.051C215.404 157.41 220.144 152.361 222.689 151.243C224.13 150.584 225.703 150.267 227.286 150.316Z" fill="#A866A7"/>
<path d="M198.501 165.519C199.132 166.167 199.608 166.951 199.893 167.81C200.178 168.669 200.265 169.581 200.147 170.478C200.147 170.478 192.238 171.926 192.142 171.926C192.207 170.995 191.982 170.067 191.496 169.271C191.011 168.474 190.289 167.849 189.432 167.481L198.501 165.519Z" fill="#DBDBDB"/>
<path d="M227.388 169.97C230.26 169.97 232.588 165.572 232.588 160.147C232.588 154.721 230.26 150.323 227.388 150.323C224.517 150.323 222.188 154.721 222.188 160.147C222.188 165.572 224.517 169.97 227.388 169.97Z" fill="#DBDBDB"/>
<path d="M227.711 168.914C230.17 168.914 232.163 164.989 232.163 160.147C232.163 155.305 230.17 151.38 227.711 151.38C225.252 151.38 223.259 155.305 223.259 160.147C223.259 164.989 225.252 168.914 227.711 168.914Z" fill="white"/>
<path d="M229.062 176.302C230.791 178.833 237.713 213.257 239.071 214.985C240.429 216.714 243.029 216.837 243.029 216.837L247.605 228.211C247.605 228.211 236.238 231.799 229.927 236.985C221.77 243.688 214.231 265.907 214.231 265.907C212.996 266.771 197.671 273.076 193.466 273.323C193.466 273.323 213.01 251.865 214.601 222.168C215.219 210.663 208.139 194.46 207.68 186.434C207.172 177.818 209.779 176.302 214.355 176.302H229.062Z" fill="#A866A7"/>
<path d="M192.526 275.772L189.466 272.877C206.616 254.726 212.941 226.126 212.44 218.32C212.18 214.32 210.897 209.848 209.532 205.107C208.077 200.052 206.431 194.323 205.731 188.101C205.08 182.325 205.731 178.593 207.7 176.364C209.669 174.134 212.372 174.141 214.169 174.148H230.496V178.36H214.162C212.591 178.36 211.521 178.415 210.842 179.177C210.163 179.938 209.278 181.921 209.923 187.635C210.609 193.5 212.111 198.81 213.586 203.941C215.013 208.908 216.33 213.593 216.646 218.045C217.181 226.38 210.602 256.722 192.526 275.772Z" fill="#DBDBDB"/>
<path d="M239.153 224.376C240.114 227.916 243.139 230.166 245.91 229.412C248.682 228.657 250.157 225.179 249.189 221.646C248.222 218.113 245.197 215.849 242.425 216.604C239.654 217.359 238.186 220.844 239.153 224.376Z" fill="#DBDBDB"/>
<path d="M240.182 224.096C241.04 227.251 243.66 229.282 246.034 228.637C248.407 227.992 249.629 224.912 248.778 221.777C247.927 218.642 245.3 216.591 242.933 217.236C240.566 217.881 239.325 220.94 240.182 224.096Z" fill="white"/>
<path opacity="0.1" d="M227.018 223.807C226.256 220.247 225.433 216.701 224.72 213.133C224.006 209.566 223.348 205.992 222.792 202.404C222.25 199.063 221.667 195.688 221.455 192.306C221.242 188.773 221.455 185.206 223.17 182.016C223.173 182.01 223.175 182.003 223.176 181.996C223.177 181.989 223.177 181.981 223.175 181.974C223.173 181.967 223.17 181.961 223.165 181.955C223.161 181.949 223.155 181.944 223.149 181.941C223.143 181.937 223.136 181.935 223.128 181.934C223.121 181.933 223.114 181.934 223.107 181.936C223.1 181.937 223.093 181.941 223.088 181.945C223.082 181.95 223.077 181.955 223.073 181.961C221.31 184.534 220.734 187.628 220.638 190.694C220.647 194.075 220.946 197.449 221.53 200.778C222.531 208.09 223.905 215.346 225.646 222.518C226.641 226.572 227.923 230.558 229.295 234.495C229.295 234.508 229.301 234.52 229.31 234.529C229.319 234.538 229.331 234.543 229.343 234.543C229.356 234.543 229.368 234.538 229.377 234.529C229.386 234.52 229.392 234.508 229.392 234.495C228.573 230.914 227.782 227.352 227.018 223.807Z" fill="black"/>
<path opacity="0.1" d="M163.515 249.704V264.11H151.222V253.202C151.222 253.202 144.362 249.738 142.99 237.136C141.755 225.721 150.865 210.485 152.594 207.721L160.421 207.467V210.273C160.421 210.273 155.269 220.604 154.645 225.906C152.786 241.883 163.515 249.704 163.515 249.704Z" fill="black"/>
<path d="M194.433 267.478C192.773 268.013 144.966 266.106 143.175 264.947C142.962 264.816 142.112 255.617 142.112 255.617L147.641 220.295L179.025 220.713L172.968 250.897C172.968 250.897 179.876 254.074 185.584 256.852C189.096 258.56 192.149 260.117 192.848 260.68C194.68 262.162 196.093 266.943 194.433 267.478Z" fill="#F7A9A0"/>
<path d="M194.44 267.478C192.773 268.013 144.966 266.106 143.182 264.947C142.962 264.817 142.105 255.624 142.105 255.624L143.813 244.737L173.922 246.109L172.968 250.856C172.968 250.856 179.876 254.039 185.584 256.811C189.089 258.519 192.149 260.076 192.848 260.639C194.68 262.169 196.093 266.943 194.44 267.478Z" fill="#EBEBEB"/>
<path d="M194.406 267.54C192.718 268.068 144.595 266.943 142.791 265.736C142.105 265.29 141.858 258.272 141.803 249.779V249.512L172.852 249.889V250.417C172.852 250.417 191.079 259.081 192.924 260.618C194.769 262.155 196.1 267.012 194.406 267.54Z" fill="#C7C7C7"/>
<path d="M193.905 265.654C185.803 265.269 153.067 264.467 145.027 264.7C144.958 264.7 144.958 264.748 145.027 264.748C153.053 265.311 185.789 265.846 193.905 265.791C194.076 265.784 194.076 265.66 193.905 265.654Z" fill="#263238"/>
<path d="M175.437 250.562C172.261 249.876 168.344 250.295 165.833 252.51C165.731 252.6 165.833 252.73 165.964 252.702C169.037 251.788 172.199 251.206 175.396 250.967C175.445 250.964 175.492 250.944 175.528 250.91C175.563 250.877 175.586 250.831 175.591 250.782C175.596 250.733 175.583 250.684 175.555 250.644C175.527 250.603 175.485 250.574 175.437 250.562Z" fill="#263238"/>
<path d="M177.708 252.009C174.532 251.323 170.615 251.734 168.104 253.95C168.008 254.039 168.104 254.177 168.235 254.142C171.31 253.228 174.475 252.646 177.674 252.407C177.7 252.409 177.727 252.406 177.752 252.398C177.777 252.39 177.8 252.377 177.82 252.361C177.84 252.344 177.856 252.323 177.868 252.3C177.881 252.276 177.888 252.251 177.89 252.225C177.892 252.199 177.89 252.172 177.882 252.147C177.874 252.122 177.861 252.099 177.844 252.079C177.827 252.059 177.807 252.043 177.783 252.03C177.76 252.018 177.735 252.011 177.708 252.009Z" fill="#263238"/>
<path d="M179.979 253.449C176.803 252.763 172.886 253.175 170.375 255.397C170.279 255.48 170.375 255.617 170.505 255.583C173.579 254.674 176.741 254.094 179.938 253.854C179.987 253.851 180.033 253.831 180.069 253.797C180.105 253.764 180.127 253.718 180.132 253.669C180.137 253.62 180.124 253.571 180.096 253.531C180.068 253.49 180.026 253.461 179.979 253.449Z" fill="#263238"/>
<path d="M175.616 246.336L140.582 244.737C140.582 244.737 152.697 195.572 151.407 193.973C150.035 192.251 103.84 204.949 93.6937 192.368C83.3076 179.478 93.6937 157.903 93.6937 157.903H129.208C129.208 157.903 129.208 161.855 126.793 167.768C126.793 167.768 167.061 160.311 177.674 165.923C179.766 167.034 187.278 173.235 187.401 179.114C188.019 205.114 175.616 246.336 175.616 246.336Z" fill="#455A64"/>
<path d="M175.952 239.991C171.795 239.469 167.624 239.147 163.446 238.838C159.269 238.529 155.098 238.276 150.913 238.111C148.56 238.022 146.2 238.042 143.841 237.953C143.824 237.953 143.808 237.96 143.797 237.971C143.785 237.983 143.779 237.998 143.779 238.015C143.779 238.031 143.785 238.047 143.797 238.059C143.808 238.07 143.824 238.077 143.841 238.077C145.94 238.228 148.032 238.488 150.131 238.653C152.23 238.818 154.247 238.968 156.346 239.106C160.517 239.387 164.695 239.613 168.873 239.874C171.233 240.018 173.586 240.093 175.945 240.148C175.963 240.144 175.978 240.134 175.989 240.121C176.001 240.107 176.007 240.09 176.008 240.072C176.009 240.054 176.004 240.037 175.994 240.022C175.984 240.007 175.969 239.996 175.952 239.991Z" fill="#263238"/>
<path d="M108.546 160.874C108.499 161.018 108.439 161.158 108.367 161.292C108.36 161.302 108.355 161.314 108.355 161.326C108.355 161.339 108.36 161.351 108.367 161.361C107.956 162.644 107.784 164.002 107.386 165.292C107.008 166.661 106.17 167.857 105.013 168.68C102.584 170.368 99.6688 171.129 96.8425 171.829C96.8255 171.834 96.8106 171.845 96.8 171.859C96.7894 171.873 96.7837 171.89 96.7837 171.908C96.7837 171.926 96.7894 171.943 96.8 171.957C96.8106 171.971 96.8255 171.982 96.8425 171.987C98.4718 171.996 100.092 171.748 101.644 171.253C103.103 170.849 104.478 170.189 105.706 169.305C106.859 168.432 107.681 167.194 108.038 165.792C108.211 165.047 108.346 164.294 108.443 163.535C108.602 162.663 108.696 161.78 108.724 160.894C108.714 160.881 108.701 160.87 108.687 160.861C108.672 160.853 108.656 160.847 108.639 160.846C108.623 160.844 108.606 160.845 108.59 160.85C108.573 160.855 108.559 160.863 108.546 160.874Z" fill="#263238"/>
<path d="M132.508 166.012C130.576 166.569 128.694 167.288 126.883 168.159L126.793 168.2C126.831 168.089 126.858 167.974 126.876 167.857C126.876 167.72 126.917 167.59 126.944 167.453C126.972 167.316 126.944 167.171 126.985 167.027V166.808C127.219 166.793 127.447 166.73 127.654 166.622C127.862 166.515 128.046 166.365 128.193 166.184C128.572 165.657 128.827 165.052 128.941 164.414C129.153 163.618 129.352 162.808 129.524 161.999C129.695 161.19 129.88 160.195 130.024 159.255C130.199 158.366 130.302 157.464 130.333 156.559C130.333 156.526 130.32 156.495 130.297 156.472C130.274 156.449 130.242 156.436 130.21 156.436C130.177 156.436 130.145 156.449 130.122 156.472C130.099 156.495 130.086 156.526 130.086 156.559C129.873 157.389 129.777 158.247 129.62 159.084C129.462 159.92 129.284 160.764 129.091 161.601C128.899 162.438 128.694 163.275 128.46 164.098C128.227 164.921 128.049 165.902 127.198 166.156C125.442 166.657 126.231 162.726 126.306 161.944C126.485 160.161 126.594 158.336 126.91 156.566C126.91 156.497 126.807 156.463 126.793 156.566C126.409 158.192 125.977 159.79 125.689 161.436C125.545 162.246 125.442 163.062 125.353 163.872C125.21 164.573 125.267 165.3 125.517 165.971C125.626 166.197 125.789 166.394 125.991 166.543C126.193 166.693 126.428 166.791 126.677 166.828L126.622 167.014C126.581 167.144 126.54 167.274 126.505 167.405C126.471 167.535 126.443 167.672 126.416 167.803C126.356 167.957 126.334 168.125 126.354 168.29C126.37 168.336 126.401 168.375 126.443 168.399C125.696 168.722 124.941 169.044 124.2 169.394C123.269 169.76 122.367 170.198 121.504 170.704C121.401 170.752 121.504 170.89 121.58 170.869C122.546 170.598 123.49 170.256 124.406 169.847C125.346 169.49 126.272 169.106 127.205 168.715C129.053 168.036 130.841 167.203 132.549 166.225C132.577 166.219 132.602 166.203 132.618 166.179C132.634 166.155 132.64 166.126 132.635 166.098C132.629 166.07 132.613 166.045 132.589 166.029C132.565 166.013 132.536 166.007 132.508 166.012Z" fill="#263238"/>
<path d="M186.359 174.649C185.143 171.076 182.684 168.059 179.43 166.149C176.089 164.304 172.193 163.81 168.454 163.693C164.105 163.563 159.728 163.789 155.386 164.064C150.762 164.352 146.138 164.791 141.542 165.436C136.946 166.08 132.432 166.869 127.911 167.843C126.827 168.077 125.75 168.365 124.673 168.667C124.591 168.667 124.605 168.845 124.673 168.831C129.167 168.2 133.639 167.459 138.133 166.842C142.626 166.224 147.167 165.737 151.709 165.394C156.25 165.051 160.743 164.859 165.264 164.791C168.968 164.736 172.81 164.791 176.329 165.984C178.069 166.54 179.681 167.438 181.069 168.625C182.433 169.845 183.551 171.314 184.362 172.954C186.214 176.597 186.386 180.775 186.571 184.808C187.106 196.779 178.497 234.818 176.967 240.93C176.963 240.983 176.978 241.036 177.009 241.079C177.04 241.122 177.086 241.153 177.137 241.166C177.189 241.179 177.243 241.174 177.291 241.151C177.339 241.127 177.378 241.088 177.399 241.04C179.121 234.138 187.689 198.206 187.689 187.408C187.696 183.1 187.854 178.71 186.359 174.649Z" fill="#263238"/>
<path d="M156.552 189.83C150.275 190.049 144.033 190.632 137.79 191.291C131.547 191.95 125.257 192.663 118.973 193.102C115.845 193.315 112.71 193.452 109.575 193.473C106.968 193.595 104.359 193.303 101.844 192.608C99.289 191.783 97.1418 190.02 95.8342 187.676C94.4617 185.219 93.57 182.523 93.2068 179.732C92.3836 174.059 93.2068 168.262 94.1741 162.664C94.2976 161.978 94.4142 161.292 94.5377 160.558C94.5377 160.49 94.4485 160.462 94.4348 160.558C93.1245 166.204 91.9514 172.014 92.3768 177.845C92.5326 180.695 93.1801 183.496 94.2907 186.125C95.2589 188.614 96.9811 190.736 99.2162 192.197C101.518 193.428 104.083 194.085 106.694 194.111C109.715 194.224 112.74 194.176 115.756 193.966C122.19 193.63 128.598 192.917 134.998 192.203C141.398 191.49 147.758 190.79 154.165 190.447C154.851 190.413 155.585 190.379 156.291 190.358C155.324 196.498 147.092 233.281 146.632 236.19C146.584 236.478 146.845 236.567 146.914 236.279C148.286 230.544 156.312 193.747 156.84 190.145C156.849 190.104 156.849 190.062 156.838 190.021C156.827 189.981 156.807 189.944 156.778 189.913C156.75 189.882 156.715 189.858 156.675 189.844C156.636 189.829 156.594 189.824 156.552 189.83Z" fill="#263238"/>
<path d="M91.6562 162.287C91.7523 162.425 138.682 166.033 139.175 165.594C139.861 164.97 135.217 116.888 131.026 109.836C130.127 108.333 126.69 107.545 123.679 107.572C122.895 107.568 122.112 107.635 121.339 107.771H121.264C120.641 107.877 120.04 108.088 119.487 108.395C110.473 114.02 100.855 136.233 98.4339 142.956C94.4208 154.042 91.3064 161.793 91.6562 162.287Z" fill="#A866A7"/>
<path d="M128.865 115.968C126.532 115.968 122.595 112.202 121.813 108.669C121.758 108.422 122.725 106.316 123.768 103.696C124.399 102.097 125.064 100.314 125.551 98.6398C125.648 98.29 135.313 104.244 135.313 104.244C134.106 106.166 133.138 108.228 132.432 110.384C132.368 110.609 132.325 110.838 132.302 111.07C132.304 111.109 132.304 111.148 132.302 111.187C132.116 112.579 131.355 116.003 128.865 115.968Z" fill="#F7A9A0"/>
<path d="M132.302 111.091C132.305 111.13 132.305 111.169 132.302 111.208C131.932 111.154 131.567 111.069 131.211 110.954C125.037 109.019 125.682 100.801 125.943 98.75C127.733 99.5595 135.334 104.238 135.334 104.238C134.127 106.161 133.158 108.222 132.446 110.378C132.379 110.611 132.331 110.85 132.302 111.091Z" fill="#263238"/>
<path d="M126.409 85.7841C124.715 89.4748 125.236 100.876 127.63 103.702C131.108 107.818 137.557 109.06 141.254 104.711C144.835 100.492 143.895 85.6675 141.151 82.999C137.097 79.075 128.92 80.3442 126.409 85.7841Z" fill="#F7A9A0"/>
<path d="M136.342 93.9072C136.342 93.9072 136.288 93.9484 136.288 93.9827C136.342 94.7441 136.288 95.6359 135.602 95.9172C135.602 95.9172 135.602 95.9652 135.602 95.9584C136.445 95.8074 136.514 94.6275 136.342 93.9072Z" fill="#263238"/>
<path d="M135.622 93.1384C134.387 93.0904 134.394 95.5737 135.54 95.6148C136.685 95.656 136.665 93.1727 135.622 93.1384Z" fill="#263238"/>
<path d="M140.788 94.0303C140.788 94.0303 140.85 94.0646 140.843 94.0989C140.843 94.8603 140.925 95.7453 141.618 95.9991C141.618 95.9991 141.618 96.0471 141.618 96.0403C140.767 95.9236 140.63 94.7506 140.788 94.0303Z" fill="#263238"/>
<path d="M141.473 93.2273C142.701 93.1313 142.804 95.6078 141.659 95.6901C140.513 95.7724 140.438 93.2959 141.473 93.2273Z" fill="#263238"/>
<path d="M134.648 92.0065C134.972 91.9096 135.29 91.7951 135.602 91.6635C135.957 91.5952 136.278 91.4091 136.514 91.1353C136.572 91.0347 136.596 90.9177 136.581 90.8023C136.566 90.687 136.514 90.5798 136.432 90.4973C136.245 90.3606 136.025 90.2764 135.794 90.2534C135.564 90.2305 135.332 90.2697 135.121 90.367C134.664 90.4956 134.272 90.792 134.024 91.1971C133.974 91.2923 133.952 91.4 133.962 91.5072C133.971 91.6144 134.011 91.7166 134.077 91.8018C134.142 91.8871 134.231 91.9516 134.332 91.9879C134.434 92.0242 134.543 92.0307 134.648 92.0065Z" fill="#263238"/>
<path d="M142.427 91.972C142.093 91.9076 141.763 91.8228 141.439 91.7181C141.08 91.682 140.744 91.5247 140.486 91.2722C140.416 91.1804 140.378 91.0684 140.378 90.9532C140.378 90.8381 140.416 90.7261 140.486 90.6343C140.66 90.4808 140.872 90.3769 141.1 90.3334C141.328 90.29 141.564 90.3086 141.782 90.3873C142.248 90.4751 142.664 90.7346 142.948 91.1145C143.006 91.2023 143.037 91.3047 143.039 91.4097C143.041 91.5147 143.013 91.6181 142.958 91.7079C142.904 91.7976 142.825 91.8701 142.731 91.9168C142.637 91.9636 142.531 91.9827 142.427 91.972Z" fill="#263238"/>
<path d="M135.643 101.034C135.828 101.213 136.013 101.46 136.329 101.487C136.614 101.478 136.894 101.411 137.152 101.288C137.152 101.288 137.2 101.288 137.186 101.329C137.077 101.48 136.928 101.599 136.757 101.672C136.585 101.746 136.397 101.772 136.212 101.748C136.054 101.707 135.912 101.62 135.804 101.498C135.696 101.376 135.628 101.223 135.608 101.062C135.56 101.027 135.615 101.007 135.643 101.034Z" fill="#263238"/>
<path d="M138.785 99.6351C138.462 100.06 138.034 100.394 137.543 100.602C137.274 100.707 136.98 100.726 136.699 100.657C136.089 100.499 136.068 99.9712 136.178 99.4498C136.243 99.1962 136.335 98.9502 136.452 98.7158C137.111 99.2639 137.929 99.5861 138.785 99.6351Z" fill="#263238"/>
<path d="M137.543 100.602C137.274 100.706 136.98 100.725 136.699 100.657C136.089 100.499 136.068 99.9706 136.178 99.4492C136.502 99.4597 136.813 99.5791 137.061 99.7883C137.308 99.9974 137.478 100.284 137.543 100.602Z" fill="#FF9BBC"/>
<path d="M142.791 86.7652C142.373 85.791 141.886 84.8101 141.296 84.6111C140.706 84.4122 140.328 85.8528 138.991 85.942C137.193 86.0654 136.322 84.4122 133.804 84.2338C130.182 83.9869 128.591 86.9778 128.509 92.1365C128.433 96.719 125.662 97.1512 125.662 97.1512C125.662 97.1512 123.981 87.0464 126.828 83.6987C129.675 80.3511 136.212 78.8967 140.603 82.0661C142.201 83.2254 142.791 86.7652 142.791 86.7652Z" fill="#263238"/>
<path d="M127.973 95.3538C127.973 95.3538 125.867 91.4642 124.132 92.1708C122.396 92.8773 123.686 98.3448 125.504 99.2571C125.731 99.394 125.985 99.4833 126.248 99.5198C126.511 99.5562 126.779 99.5389 127.035 99.4691C127.292 99.3992 127.531 99.2782 127.74 99.1132C127.948 98.9483 128.121 98.7429 128.248 98.5094L127.973 95.3538Z" fill="#F7A9A0"/>
<path d="M124.543 93.7148V93.7629C125.826 94.4489 126.389 95.8209 126.739 97.1449C126.676 97.0011 126.583 96.8726 126.466 96.7684C126.349 96.6641 126.211 96.5864 126.061 96.5408C125.911 96.4951 125.752 96.4825 125.597 96.5039C125.442 96.5253 125.293 96.5802 125.161 96.6647C125.12 96.6647 125.161 96.747 125.161 96.7401C125.406 96.6931 125.66 96.7224 125.888 96.8243C126.116 96.9261 126.308 97.0954 126.437 97.3095C126.645 97.673 126.815 98.0569 126.944 98.4551C126.992 98.5786 127.219 98.5443 127.185 98.4002V98.3659C127.418 96.6509 126.361 94.099 124.543 93.7148Z" fill="#263238"/>
<path d="M142.358 83.7538C141.295 83.5 135.402 83.6784 132.754 84.8171C130.106 85.9559 125.401 89.7632 125.16 89.9621C124.92 90.1611 123.706 80.4473 131.588 78.6774C140.17 76.7429 142.358 83.7538 142.358 83.7538Z" fill="#A866A7"/>
<path d="M125.613 89.5648C125.613 89.5648 130.82 82.7048 133.715 81.127C136.61 79.5492 143.093 78.6711 147.106 80.441C150.227 81.813 142.599 85.8329 142.599 85.8329C142.526 85.5038 142.378 85.196 142.167 84.934C141.955 84.672 141.684 84.463 141.378 84.3237C139.429 83.5485 135.725 84.1454 133.612 84.8519C130.95 85.7506 125.613 89.5648 125.613 89.5648Z" fill="#A866A7"/>
<path opacity="0.2" d="M125.613 89.5981C125.613 89.5981 130.82 82.697 133.715 81.126C136.61 79.5551 143.093 78.6701 147.106 80.44C150.227 81.812 142.599 85.832 142.599 85.832C142.526 85.5028 142.378 85.195 142.167 84.9331C141.955 84.6711 141.684 84.4621 141.378 84.3228C139.429 83.5476 135.725 84.1444 133.612 84.851C130.95 85.7497 125.613 89.5981 125.613 89.5981Z" fill="black"/>
<path d="M116.517 121.223C116.078 134.751 121.072 160.085 124.749 161.806C136.617 167.349 156.587 167.699 163.426 167.761C166.376 167.761 170.903 146.783 167.981 145.603C166.04 144.821 136.761 144.814 136.247 143.771C135.732 142.729 128.756 127.664 125.744 119.322C121.745 108.23 116.771 113.279 116.517 121.223Z" fill="#F7A9A0"/>
<path d="M164.839 145.322C164.839 145.322 173.805 145.871 179.643 146.502C182.908 146.852 188.444 147.957 190.715 149.308C194.145 151.366 207.069 161.985 204.558 165.182C202.281 168.07 192.32 157.512 192.32 157.512C192.32 157.512 203.296 167.274 199.934 170.258C196.573 173.242 186.9 159.804 186.9 159.804C186.9 159.804 197.972 170.094 194 172.618C191.003 174.518 181.556 162.85 181.556 162.85C181.556 162.85 191.016 171.768 188.012 173.826C184.691 176.137 175.3 165.909 175.3 165.909C166.773 169.943 161.066 168.372 157.135 166.773C156.168 166.417 164.839 145.322 164.839 145.322Z" fill="#F7A9A0"/>
<path d="M188.732 153.891C190.063 154.988 191.421 156.093 192.649 157.321C193.877 158.549 195.071 159.797 196.182 161.121C197.669 162.824 198.958 164.691 200.024 166.685C197.877 163.255 193.541 158.864 192.306 157.65C191.071 156.436 189.912 155.16 188.684 153.946C188.65 153.904 188.698 153.863 188.732 153.891Z" fill="#263238"/>
<path d="M184.267 158.254C185.906 159.728 187.587 161.142 189.165 162.692C190.742 164.242 192.087 165.841 193.548 167.494C193.658 167.617 193.548 167.638 193.431 167.494C191.909 165.909 190.379 164.558 188.842 162.987C187.305 161.416 185.817 159.783 184.225 158.274C184.198 158.267 184.239 158.233 184.267 158.254Z" fill="#263238"/>
<path d="M179.732 161.307C182.305 163.513 184.643 165.98 186.709 168.667C186.812 168.798 186.675 168.811 186.558 168.667C184.287 166.177 182.524 164.208 179.657 161.389C179.636 161.355 179.732 161.265 179.732 161.307Z" fill="#263238"/>
<path d="M189.583 148.224C187.452 147.313 185.189 146.746 182.881 146.543C177.9 145.933 172.892 145.535 167.885 145.171C162.877 144.808 157.794 144.485 152.745 144.3C149.905 144.19 147.065 144.106 144.225 144.046C141.384 143.991 140.795 144.094 137.941 144.128C137.865 144.128 137.872 144.231 137.941 144.238C142.914 144.499 145.658 144.705 150.632 144.965C155.605 145.226 160.565 145.521 165.525 145.864C170.485 146.207 175.362 146.55 180.26 147.099C182.629 147.26 184.978 147.638 187.278 148.231C189.531 149.058 191.62 150.275 193.452 151.825C195.551 153.479 203.419 161.045 204.14 162.026C204.229 162.143 204.263 162.108 204.215 161.958C203.646 159.906 194.186 150.371 189.583 148.224Z" fill="#263238"/>
<path d="M130.683 129.956L116.092 138.229C116.092 138.229 115.475 119.789 116.826 114.315C118.349 108.141 121.161 110.281 124.331 115.412C127.5 120.544 130.683 129.956 130.683 129.956Z" fill="#A866A7"/>
<path opacity="0.1" d="M130.683 129.956L116.092 138.229C116.092 138.229 115.475 119.789 116.826 114.315C118.349 108.141 121.161 110.281 124.331 115.412C127.5 120.544 130.683 129.956 130.683 129.956Z" fill="black"/>
<path d="M128.673 127.597C126.677 128.399 121.01 131.651 120.07 132.179C119.577 132.453 117.642 133.654 117.148 133.928C117.086 133.963 117.148 134.052 117.21 134.018C118.163 133.496 119.165 133.071 120.125 132.556C121.086 132.042 126.985 128.941 128.714 127.665C128.721 127.659 128.725 127.65 128.726 127.641C128.727 127.632 128.725 127.623 128.72 127.615C128.716 127.607 128.708 127.601 128.7 127.597C128.691 127.594 128.682 127.594 128.673 127.597Z" fill="#263238"/>
<path d="M128.385 123.13C128.158 122.272 127.925 121.422 127.664 120.571C127.808 121.202 127.973 121.833 128.138 122.464C127.61 121.271 127.068 120.091 126.478 118.945H126.443C127.081 120.804 127.815 122.629 128.501 124.474C129.187 126.32 129.873 128.083 130.559 129.887C130.251 130.127 129.949 130.36 129.633 130.573C129.621 130.581 129.612 130.594 129.608 130.609C129.605 130.624 129.608 130.639 129.616 130.652C129.624 130.665 129.637 130.674 129.652 130.677C129.667 130.68 129.682 130.677 129.695 130.669C130.072 130.477 130.45 130.285 130.841 130.113C130.886 130.096 130.923 130.063 130.945 130.02C130.966 129.976 130.971 129.927 130.957 129.88C130.189 127.637 129.338 125.359 128.385 123.13Z" fill="#263238"/>
<g opacity="0.5">
<path opacity="0.5" d="M291.289 114.967C291.289 115.604 291.1 116.226 290.746 116.756C290.393 117.285 289.89 117.697 289.301 117.94C288.713 118.184 288.066 118.247 287.442 118.122C286.817 117.998 286.244 117.691 285.794 117.24C285.345 116.789 285.039 116.215 284.915 115.591C284.792 114.966 284.857 114.319 285.101 113.731C285.346 113.144 285.759 112.642 286.289 112.289C286.819 111.936 287.442 111.749 288.079 111.75C288.501 111.75 288.919 111.833 289.309 111.995C289.699 112.157 290.053 112.394 290.351 112.693C290.649 112.992 290.886 113.346 291.047 113.737C291.208 114.127 291.29 114.545 291.289 114.967Z" fill="#A866A7"/>
<path opacity="0.5" d="M288.079 120.421C286.991 120.428 285.925 120.111 285.017 119.511C284.109 118.91 283.401 118.053 282.981 117.049C282.561 116.045 282.45 114.939 282.66 113.871C282.871 112.803 283.394 111.822 284.164 111.053C284.934 110.283 285.915 109.76 286.982 109.549C288.05 109.338 289.156 109.45 290.161 109.87C291.165 110.289 292.022 110.998 292.622 111.906C293.222 112.813 293.539 113.879 293.533 114.968C293.524 116.411 292.946 117.793 291.925 118.814C290.904 119.835 289.522 120.412 288.079 120.421ZM288.079 110.2C287.137 110.2 286.217 110.479 285.434 111.001C284.65 111.523 284.039 112.266 283.677 113.135C283.316 114.004 283.219 114.961 283.4 115.885C283.582 116.809 284.032 117.659 284.696 118.327C285.359 118.995 286.205 119.452 287.128 119.639C288.05 119.827 289.008 119.738 289.88 119.382C290.751 119.026 291.498 118.421 292.026 117.641C292.554 116.862 292.84 115.943 292.847 115.002C292.851 114.373 292.731 113.749 292.494 113.167C292.256 112.584 291.905 112.055 291.462 111.608C291.019 111.162 290.492 110.808 289.911 110.566C289.331 110.324 288.708 110.2 288.079 110.2Z" fill="#A866A7"/>
<path opacity="0.5" d="M94.5577 84.1997C94.5591 84.8364 94.3716 85.4591 94.0189 85.9891C93.6662 86.519 93.1641 86.9325 92.5764 87.1771C91.9886 87.4216 91.3415 87.4863 90.7169 87.3629C90.0924 87.2396 89.5185 86.9337 89.0678 86.484C88.6172 86.0343 88.3101 85.4611 88.1854 84.8368C88.0607 84.2125 88.124 83.5653 88.3673 82.977C88.6106 82.3887 89.023 81.8858 89.5522 81.532C90.0815 81.1781 90.7038 80.9893 91.3404 80.9893C92.1925 80.9893 93.0098 81.3273 93.613 81.9292C94.2161 82.5311 94.5559 83.3476 94.5577 84.1997Z" fill="#A866A7"/>
<path opacity="0.5" d="M91.3406 89.6605C90.2538 89.6673 89.1894 89.3512 88.2824 88.7523C87.3754 88.1534 86.6667 87.2987 86.246 86.2965C85.8254 85.2943 85.7118 84.1898 85.9197 83.123C86.1275 82.0562 86.6475 81.0751 87.4136 80.3042C88.1797 79.5332 89.1575 79.0071 90.223 78.7926C91.2885 78.578 92.3937 78.6847 93.3985 79.099C94.4033 79.5134 95.2624 80.2167 95.867 81.12C96.4716 82.0232 96.7943 83.0856 96.7943 84.1725C96.7944 85.6221 96.2209 87.0128 95.1991 88.041C94.1773 89.0692 92.7902 89.6514 91.3406 89.6605ZM91.3406 79.4322C90.388 79.4254 89.4549 79.7022 88.66 80.2272C87.8651 80.7522 87.2443 81.5018 86.8766 82.3807C86.5089 83.2595 86.4109 84.2278 86.5951 85.1625C86.7793 86.0972 87.2373 86.956 87.911 87.6296C88.5846 88.3032 89.4434 88.7613 90.378 88.9455C91.3127 89.1297 92.2811 89.0317 93.1599 88.664C94.0387 88.2963 94.7883 87.6755 95.3134 86.8806C95.8384 86.0857 96.1151 85.1525 96.1083 84.1999C96.0994 82.9382 95.5942 81.7307 94.702 80.8386C93.8098 79.9464 92.6023 79.4412 91.3406 79.4322Z" fill="#A866A7"/>
<path opacity="0.5" d="M212.728 131.952H171.157V67.688H116.297V84.543H96.4512V83.857H115.611V67.002H171.843V131.266H212.042V113.465H259.095V96.1295H288.421V109.856H287.735V96.8155H259.781V114.151H212.728V131.952Z" fill="#A866A7"/>
</g>
<path d="M102.763 50.7636C102.193 45.0561 98.2556 39.3691 91.3407 39.3691C84.4258 39.3691 80.495 45.0835 79.9257 50.7636C79.0544 59.5787 84.9952 67.5637 91.3407 74.8491C97.6862 67.5912 103.634 59.6061 102.763 50.7636ZM91.3407 57.1022C90.103 57.1022 88.8932 56.7351 87.8642 56.0474C86.8352 55.3596 86.0333 54.3821 85.56 53.2385C85.0866 52.0949 84.9631 50.8366 85.2051 49.6228C85.4471 48.4091 86.0436 47.2943 86.9192 46.4196C87.7949 45.5449 88.9103 44.9496 90.1244 44.709C91.3384 44.4684 92.5966 44.5932 93.7396 45.0678C94.8827 45.5424 95.8593 46.3453 96.546 47.3751C97.2326 48.4048 97.5984 49.6151 97.597 50.8528C97.6006 51.6764 97.4414 52.4925 97.1285 53.2544C96.8157 54.0162 96.3553 54.7087 95.7739 55.292C95.1925 55.8753 94.5015 56.338 93.7407 56.6533C92.9799 56.9687 92.1643 57.1306 91.3407 57.1297V57.1022Z" fill="#A866A7"/>
</svg>
