<svg width="16" height="16" viewBox="0 0 16 16" fill="none" xmlns="http://www.w3.org/2000/svg">
<g clip-path="url(#clip0_308_173319)">
<path d="M8.5731 10.2859L5.14453 10.903L5.71596 7.42871L12.2645 0.902997C12.3708 0.795878 12.4972 0.710856 12.6364 0.652835C12.7757 0.594814 12.9251 0.564941 13.076 0.564941C13.2268 0.564941 13.3762 0.594814 13.5155 0.652835C13.6547 0.710856 13.7811 0.795878 13.8874 0.902997L15.0988 2.11443C15.2059 2.22067 15.291 2.34707 15.349 2.48634C15.407 2.62561 15.4369 2.77498 15.4369 2.92585C15.4369 3.07672 15.407 3.2261 15.349 3.36537C15.291 3.50464 15.2059 3.63104 15.0988 3.73728L8.5731 10.2859Z" stroke="#A866A7" stroke-linecap="round" stroke-linejoin="round"/>
<path d="M13.7151 10.8571V14.2856C13.7151 14.5887 13.5947 14.8794 13.3804 15.0938C13.1661 15.3081 12.8754 15.4285 12.5723 15.4285H1.71512C1.41202 15.4285 1.12133 15.3081 0.907001 15.0938C0.692673 14.8794 0.572266 14.5887 0.572266 14.2856V3.4285C0.572266 3.1254 0.692673 2.83471 0.907001 2.62038C1.12133 2.40605 1.41202 2.28564 1.71512 2.28564H5.14369" stroke="#A866A7" stroke-linecap="round" stroke-linejoin="round"/>
</g>
<defs>
<clipPath id="clip0_308_173319">
<rect width="16" height="16" fill="white"/>
</clipPath>
</defs>
</svg>
