<svg width="16" height="16" viewBox="0 0 16 16" fill="none" xmlns="http://www.w3.org/2000/svg">
<g clip-path="url(#clip0_308_90256)">
<path d="M8.57115 10.2856L5.14258 10.9028L5.71401 7.42847L12.2626 0.902753C12.3688 0.795634 12.4952 0.710612 12.6345 0.652591C12.7738 0.59457 12.9231 0.564697 13.074 0.564697C13.2249 0.564697 13.3743 0.59457 13.5135 0.652591C13.6528 0.710612 13.7792 0.795634 13.8854 0.902753L15.0969 2.11418C15.204 2.22042 15.289 2.34683 15.347 2.48609C15.405 2.62536 15.4349 2.77474 15.4349 2.92561C15.4349 3.07648 15.405 3.22586 15.347 3.36513C15.289 3.50439 15.204 3.63079 15.0969 3.73704L8.57115 10.2856Z" stroke="#F6F6F6" stroke-linecap="round" stroke-linejoin="round"/>
<path d="M13.7141 10.8571V14.2856C13.7141 14.5887 13.5937 14.8794 13.3794 15.0938C13.1651 15.3081 12.8744 15.4285 12.5713 15.4285H1.71415C1.41104 15.4285 1.12035 15.3081 0.906024 15.0938C0.691697 14.8794 0.571289 14.5887 0.571289 14.2856V3.4285C0.571289 3.1254 0.691697 2.83471 0.906024 2.62038C1.12035 2.40605 1.41104 2.28564 1.71415 2.28564H5.14272" stroke="#F6F6F6" stroke-linecap="round" stroke-linejoin="round"/>
</g>
<defs>
<clipPath id="clip0_308_90256">
<rect width="16" height="16" fill="white"/>
</clipPath>
</defs>
</svg>
