<svg width="16" height="16" viewBox="0 0 16 16" fill="none" xmlns="http://www.w3.org/2000/svg">
<g clip-path="url(#clip0_1516_9463)">
<path d="M11.486 8.00034C11.486 8.67599 11.2862 9.33655 10.912 9.89908C10.5377 10.4616 10.0056 10.901 9.38239 11.1621C8.75923 11.4232 8.07281 11.4943 7.40934 11.3666C6.74587 11.2389 6.13492 10.918 5.65323 10.4442C5.17154 9.97038 4.84058 9.36483 4.7019 8.70356C4.56323 8.04229 4.62302 7.35479 4.87378 6.72739C5.12454 6.09999 5.55509 5.56067 6.11134 5.17716C6.6676 4.79364 7.32478 4.58303 8.00034 4.57177C8.45537 4.56418 8.90736 4.64726 9.32995 4.81616C9.75254 4.98507 10.1373 5.23641 10.4617 5.55554C10.7862 5.87467 11.0438 6.2552 11.2197 6.67495C11.3956 7.09469 11.4861 7.54524 11.486 8.00034V8.00034Z" stroke="#666666" stroke-linecap="round" stroke-linejoin="round"/>
<path d="M11.4851 7.99986V9.48558C11.4851 13.4741 17.7365 9.71415 14.4565 4.297C13.7961 3.16906 12.8534 2.23242 11.7213 1.57918C10.5891 0.925938 9.30645 0.578591 7.99938 0.571289C6.90128 0.57468 5.8176 0.821477 4.82632 1.29391C3.83504 1.76635 2.96083 2.45268 2.26662 3.30349C1.5724 4.15431 1.07544 5.14845 0.81151 6.21436C0.547581 7.28028 0.523246 8.39144 0.740257 9.46789C0.957268 10.5443 1.41023 11.5593 2.06653 12.4397C2.72284 13.3201 3.56616 14.044 4.5358 14.5594C5.50545 15.0748 6.57729 15.3688 7.67418 15.4202C8.77108 15.4717 9.86574 15.2793 10.8794 14.857" stroke="#666666" stroke-linecap="round" stroke-linejoin="round"/>
</g>
<defs>
<clipPath id="clip0_1516_9463">
<rect width="16" height="16" fill="white"/>
</clipPath>
</defs>
</svg>
