<svg width="16" height="16" viewBox="0 0 16 16" fill="none" xmlns="http://www.w3.org/2000/svg">
<path d="M11.486 7.99997C11.486 8.67562 11.2862 9.33619 10.912 9.89871C10.5377 10.4612 10.0056 10.9006 9.38239 11.1617C8.75923 11.4228 8.07281 11.494 7.40934 11.3662C6.74587 11.2385 6.13492 10.9176 5.65323 10.4438C5.17154 9.97002 4.84058 9.36446 4.7019 8.70319C4.56323 8.04192 4.62302 7.35442 4.87378 6.72702C5.12454 6.09963 5.55509 5.56031 6.11134 5.17679C6.6676 4.79327 7.32478 4.58266 8.00034 4.5714C8.45537 4.56381 8.90736 4.6469 9.32995 4.8158C9.75254 4.9847 10.1373 5.23605 10.4617 5.55518C10.7862 5.87431 11.0438 6.25484 11.2197 6.67458C11.3956 7.09432 11.4861 7.54488 11.486 7.99997V7.99997Z" stroke="#666666" stroke-linecap="round" stroke-linejoin="round"/>
<path d="M11.4861 7.99998V9.4857C11.4861 13.4743 17.7375 9.71427 14.4575 4.29713C13.797 3.16918 12.8544 2.23254 11.7222 1.5793C10.5901 0.92606 9.30742 0.578714 8.00036 0.571411C6.90226 0.574802 5.81857 0.821599 4.8273 1.29404C3.83602 1.76647 2.96181 2.4528 2.26759 3.30362C1.57337 4.15443 1.07642 5.14858 0.812486 6.21449C0.548557 7.2804 0.524223 8.39157 0.741234 9.46801C0.958245 10.5445 1.4112 11.5594 2.06751 12.4398C2.72381 13.3202 3.56714 14.0441 4.53678 14.5595C5.50642 15.0749 6.57827 15.3689 7.67516 15.4204C8.77206 15.4718 9.86672 15.2795 10.8804 14.8571" stroke="#666666" stroke-linecap="round" stroke-linejoin="round"/>
</svg>
