<svg width="15" height="14" viewBox="0 0 15 14" fill="none" xmlns="http://www.w3.org/2000/svg">
<g clip-path="url(#clip0_1059_5942)">
<path d="M8.75 13.49C8.19771 13.49 7.75 13.0423 7.75 12.49C7.75 11.9377 8.19771 11.49 8.75 11.49C9.30228 11.49 9.75 11.9377 9.75 12.49C9.75 13.0423 9.30228 13.49 8.75 13.49Z" stroke="#F6F6F6" stroke-linecap="round" stroke-linejoin="round"/>
<path d="M4.25 13.49C3.69772 13.49 3.25 13.0423 3.25 12.49C3.25 11.9377 3.69772 11.49 4.25 11.49C4.80228 11.49 5.25 11.9377 5.25 12.49C5.25 13.0423 4.80228 13.49 4.25 13.49Z" stroke="#F6F6F6" stroke-linecap="round" stroke-linejoin="round"/>
<path d="M6.36993 3.52994C6.52339 2.91349 6.82147 2.34244 7.23951 1.86409C7.65754 1.38573 8.18349 1.01382 8.77383 0.779149C9.36417 0.544473 10.0019 0.45378 10.6343 0.514576C11.2666 0.575373 11.8754 0.785911 12.4102 1.12876C12.945 1.47161 13.3905 1.93692 13.7097 2.48615C14.029 3.03539 14.2128 3.65276 14.246 4.28717C14.2792 4.92158 14.1608 5.55477 13.9007 6.13432C13.6405 6.71388 13.246 7.22314 12.7499 7.61994" stroke="#F6F6F6" stroke-linecap="round" stroke-linejoin="round"/>
<path d="M10.25 4.50989L8.75 3.00989" stroke="#F6F6F6" stroke-linecap="round" stroke-linejoin="round"/>
<path d="M8.25 9.5V8.5H9.75C10.2804 8.5 10.7891 8.71071 11.1642 9.08579C11.5393 9.46086 11.75 9.96957 11.75 10.5V12.5" stroke="#F6F6F6" stroke-linecap="round" stroke-linejoin="round"/>
<path d="M1.25 12.49V7.48999C1.25 7.22477 1.35536 6.97042 1.54289 6.78288C1.73043 6.59535 1.98478 6.48999 2.25 6.48999H7.25C7.51522 6.48999 7.76957 6.59535 7.95711 6.78288C8.14464 6.97042 8.25 7.22477 8.25 7.48999V9.48999" stroke="#F6F6F6" stroke-linecap="round" stroke-linejoin="round"/>
</g>
<defs>
<clipPath id="clip0_1059_5942">
<rect width="14" height="14" fill="white" transform="matrix(-1 0 0 1 14.75 0)"/>
</clipPath>
</defs>
</svg>
