<svg width="25" height="24" viewBox="0 0 25 24" fill="none" xmlns="http://www.w3.org/2000/svg">
<path d="M9.59668 3.31494C10.8498 2.34421 12.8348 2.23606 14.2236 3.02881L14.4932 3.19971L20.2539 7.22998C20.723 7.55844 21.1668 8.09711 21.4941 8.72412C21.8216 9.3513 22.0097 10.0244 22.0098 10.6001V17.3804C22.0097 19.654 20.1642 21.5003 17.8906 21.5005H7.11035C4.83804 21.5005 2.99046 19.6457 2.99023 17.3706V10.4702C2.99023 9.93578 3.1608 9.29654 3.45898 8.69092C3.71975 8.16134 4.0616 7.69017 4.42871 7.35791L4.58789 7.22412L9.59668 3.31494ZM12.5 13.7505C11.814 13.7506 11.25 14.3144 11.25 15.0005V18.0005C11.2502 18.6864 11.8141 19.2504 12.5 19.2505C13.186 19.2505 13.7498 18.6865 13.75 18.0005V15.0005C13.75 14.3143 13.1861 13.7505 12.5 13.7505Z" stroke="#666666"/>
</svg>
