<svg width="16" height="16" viewBox="0 0 16 16" fill="none" xmlns="http://www.w3.org/2000/svg">
<path d="M12.5714 6.28516H3.4285C2.79732 6.28516 2.28564 6.79683 2.28564 7.42801V14.2852C2.28564 14.9163 2.79732 15.428 3.4285 15.428H12.5714C13.2025 15.428 13.7142 14.9163 13.7142 14.2852V7.42801C13.7142 6.79683 13.2025 6.28516 12.5714 6.28516Z" stroke="#666666" stroke-linecap="round" stroke-linejoin="round"/>
<path d="M12 6.28558V4.57129C12 3.51042 11.5786 2.49301 10.8284 1.74286C10.0783 0.992716 9.06087 0.571289 8 0.571289C6.93913 0.571289 5.92172 0.992716 5.17157 1.74286C4.42143 2.49301 4 3.51042 4 4.57129V6.28558" stroke="#666666" stroke-linecap="round" stroke-linejoin="round"/>
<path d="M8.00014 11.428C8.31573 11.428 8.57157 11.1722 8.57157 10.8566C8.57157 10.541 8.31573 10.2852 8.00014 10.2852C7.68455 10.2852 7.42871 10.541 7.42871 10.8566C7.42871 11.1722 7.68455 11.428 8.00014 11.428Z" stroke="#121212" stroke-linecap="round" stroke-linejoin="round"/>
</svg>
