<svg width="40" height="27" viewBox="0 0 40 27" fill="none" xmlns="http://www.w3.org/2000/svg">
<rect x="0.25" y="0.650391" width="39.5" height="25.5" rx="1.75" fill="white"/>
<rect x="0.25" y="0.650391" width="39.5" height="25.5" rx="1.75" stroke="#B2B2B2" stroke-width="0.5" style="mix-blend-mode:multiply"/>
<path fill-rule="evenodd" clip-rule="evenodd" d="M19.521 18.9467C18.1948 20.0925 16.4745 20.7842 14.5947 20.7842C10.4003 20.7842 7 17.3404 7 13.0923C7 8.84417 10.4003 5.40039 14.5947 5.40039C16.4745 5.40039 18.1948 6.09208 19.521 7.23787C20.8472 6.09209 22.5675 5.4004 24.4473 5.4004C28.6418 5.4004 32.0421 8.84418 32.0421 13.0923C32.0421 17.3404 28.6418 20.7842 24.4473 20.7842C22.5675 20.7842 20.8472 20.0925 19.521 18.9467Z" fill="#ED0006"/>
<path fill-rule="evenodd" clip-rule="evenodd" d="M19.521 18.9467C21.154 17.5359 22.1895 15.4366 22.1895 13.0923C22.1895 10.748 21.154 8.64869 19.521 7.23785C20.8472 6.09207 22.5675 5.40039 24.4473 5.40039C28.6417 5.40039 32.042 8.84417 32.042 13.0923C32.042 17.3404 28.6417 20.7842 24.4473 20.7842C22.5675 20.7842 20.8472 20.0925 19.521 18.9467Z" fill="#F9A000"/>
<path fill-rule="evenodd" clip-rule="evenodd" d="M19.5209 18.9465C21.1539 17.5357 22.1893 15.4364 22.1893 13.0922C22.1893 10.7479 21.1539 8.64863 19.5209 7.23779C17.888 8.64863 16.8525 10.7479 16.8525 13.0922C16.8525 15.4364 17.888 17.5357 19.5209 18.9465Z" fill="#FF5E00"/>
</svg>
