<svg width="125" height="124" viewBox="0 0 125 124" fill="none" xmlns="http://www.w3.org/2000/svg">
<g clip-path="url(#clip0_308_89788)">
<path d="M4.92847 39.8572H120.071V110.714C120.071 113.063 119.138 115.316 117.477 116.977C115.816 118.638 113.563 119.571 111.214 119.571H13.7856C11.4365 119.571 9.1837 118.638 7.52266 116.977C5.86163 115.316 4.92847 113.063 4.92847 110.714V39.8572Z" stroke="#722B79" stroke-width="8" stroke-linecap="round" stroke-linejoin="round"/>
<path d="M75.7854 97.4286H97.9283" stroke="#722B79" stroke-width="8" stroke-linecap="round" stroke-linejoin="round"/>
<path d="M4.92847 39.8572L18.2142 14.26C19.6465 11.375 21.8382 8.93508 24.5537 7.20278C27.2692 5.47048 30.4057 4.51135 33.6256 4.42859H91.3742C94.6698 4.43034 97.8995 5.3514 100.7 7.08821C103.501 8.82502 105.762 11.3087 107.228 14.26L120.071 39.8572" stroke="#722B79" stroke-width="8" stroke-linecap="round" stroke-linejoin="round"/>
<path d="M62.499 4.42859V39.8572" stroke="#722B79" stroke-width="8" stroke-linecap="round" stroke-linejoin="round"/>
</g>
<defs>
<clipPath id="clip0_308_89788">
<rect width="124" height="124" fill="white" transform="translate(0.5)"/>
</clipPath>
</defs>
</svg>
