<svg width="16" height="16" viewBox="0 0 16 16" fill="none" xmlns="http://www.w3.org/2000/svg">
<path d="M7.99986 0.571289C9.30018 0.571289 10.5472 1.08784 11.4667 2.0073C12.3862 2.92677 12.9027 4.17383 12.9027 5.47415C12.9027 10.9256 14.8913 11.9999 15.4284 11.9999H0.571289C1.11986 11.9999 3.097 10.9141 3.097 5.47415C3.097 4.17383 3.61355 2.92677 4.53302 2.0073C5.45248 1.08784 6.69954 0.571289 7.99986 0.571289V0.571289Z" stroke="#722B79" stroke-linecap="round" stroke-linejoin="round"/>
<path d="M6.28564 14.0908C6.38443 14.4703 6.60633 14.8062 6.91656 15.046C7.22679 15.2859 7.60782 15.4159 7.99993 15.4159C8.39204 15.4159 8.77307 15.2859 9.0833 15.046C9.39353 14.8062 9.61543 14.4703 9.71422 14.0908" stroke="#722B79" stroke-linecap="round" stroke-linejoin="round"/>
</svg>
