<svg width="16" height="16" viewBox="0 0 16 16" fill="none" xmlns="http://www.w3.org/2000/svg">
<g clip-path="url(#clip0_308_90315)">
<path d="M8.4113 15.3486C8.14652 15.4507 7.85321 15.4507 7.58844 15.3486V15.3486C5.52246 14.5554 3.74569 13.1542 2.49283 11.33C1.23997 9.50576 0.569956 7.34441 0.571296 5.13141V2.14855C0.570669 2.02341 0.610337 1.90139 0.684432 1.80053C0.758527 1.69968 0.863115 1.62536 0.982725 1.58855C5.56201 0.228784 10.4377 0.228784 15.017 1.58855C15.1366 1.62536 15.2412 1.69968 15.3153 1.80053C15.3894 1.90139 15.4291 2.02341 15.4284 2.14855V5.13141C15.4298 7.34441 14.7598 9.50576 13.5069 11.33C12.254 13.1542 10.4773 14.5554 8.4113 15.3486V15.3486Z" stroke="#F6F6F6" stroke-linecap="round" stroke-linejoin="round"/>
</g>
<defs>
<clipPath id="clip0_308_90315">
<rect width="16" height="16" fill="white"/>
</clipPath>
</defs>
</svg>
