<svg width="16" height="16" viewBox="0 0 16 16" fill="none" xmlns="http://www.w3.org/2000/svg">
<g clip-path="url(#clip0_308_90309)">
<path d="M7.99986 15.4286C12.1025 15.4286 15.4284 12.1027 15.4284 7.99998C15.4284 3.8973 12.1025 0.571411 7.99986 0.571411C3.89717 0.571411 0.571289 3.8973 0.571289 7.99998C0.571289 12.1027 3.89717 15.4286 7.99986 15.4286Z" stroke="#F6F6F6" stroke-linecap="round" stroke-linejoin="round"/>
<path d="M6.28564 6.2857C6.28564 5.94664 6.38619 5.6152 6.57455 5.33329C6.76292 5.05138 7.03066 4.83165 7.3439 4.7019C7.65715 4.57215 8.00183 4.53821 8.33437 4.60435C8.66691 4.6705 8.97237 4.83377 9.21211 5.07351C9.45186 5.31326 9.61513 5.61872 9.68128 5.95126C9.74742 6.2838 9.71347 6.62848 9.58372 6.94173C9.45397 7.25497 9.23425 7.52271 8.95234 7.71107C8.67042 7.89944 8.33898 7.99998 7.99993 7.99998V9.14284" stroke="#F6F6F6" stroke-linecap="round" stroke-linejoin="round"/>
<path d="M8.00007 12C7.84227 12 7.71436 11.8721 7.71436 11.7143C7.71436 11.5565 7.84227 11.4286 8.00007 11.4286" stroke="#F6F6F6" stroke-linecap="round" stroke-linejoin="round"/>
<path d="M8 12C8.1578 12 8.28571 11.8721 8.28571 11.7143C8.28571 11.5565 8.1578 11.4286 8 11.4286" stroke="#F6F6F6" stroke-linecap="round" stroke-linejoin="round"/>
</g>
<defs>
<clipPath id="clip0_308_90309">
<rect width="16" height="16" fill="white"/>
</clipPath>
</defs>
</svg>
