<svg width="16" height="16" viewBox="0 0 16 16" fill="none" xmlns="http://www.w3.org/2000/svg">
<g clip-path="url(#clip0_308_90303)">
<path d="M5.97733 2.57141L6.46876 1.30284C6.55164 1.08806 6.69745 0.903309 6.8871 0.772797C7.07675 0.642284 7.3014 0.572091 7.53162 0.571411H8.46876C8.69898 0.572091 8.92362 0.642284 9.11327 0.772797C9.30292 0.903309 9.44874 1.08806 9.53162 1.30284L10.023 2.57141L11.6916 3.53141L13.0402 3.3257C13.2647 3.29522 13.4933 3.33218 13.6968 3.43189C13.9003 3.53161 14.0695 3.68957 14.183 3.8857L14.6402 4.6857C14.7573 4.88495 14.8113 5.11504 14.795 5.34561C14.7787 5.57617 14.6928 5.79636 14.5488 5.97713L13.7145 7.03998V8.95998L14.5716 10.0228C14.7157 10.2036 14.8015 10.4238 14.8178 10.6544C14.8342 10.8849 14.7802 11.115 14.663 11.3143L14.2059 12.1143C14.0924 12.3104 13.9231 12.4684 13.7196 12.5681C13.5161 12.6678 13.2876 12.7047 13.063 12.6743L11.7145 12.4686L10.0459 13.4286L9.55447 14.6971C9.47159 14.9119 9.32578 15.0967 9.13613 15.2272C8.94648 15.3577 8.72183 15.4279 8.49162 15.4286H7.53162C7.3014 15.4279 7.07675 15.3577 6.8871 15.2272C6.69745 15.0967 6.55164 14.9119 6.46876 14.6971L5.97733 13.4286L4.30876 12.4686L2.96019 12.6743C2.73564 12.7047 2.50709 12.6678 2.3036 12.5681C2.1001 12.4684 1.93084 12.3104 1.81733 12.1143L1.36019 11.3143C1.24305 11.115 1.18908 10.8849 1.2054 10.6544C1.22172 10.4238 1.30757 10.2036 1.45162 10.0228L2.2859 8.95998V7.03998L1.42876 5.97713C1.28471 5.79636 1.19886 5.57617 1.18254 5.34561C1.16622 5.11504 1.22019 4.88495 1.33733 4.6857L1.79447 3.8857C1.90799 3.68957 2.07724 3.53161 2.28074 3.43189C2.48423 3.33218 2.71278 3.29522 2.93733 3.3257L4.2859 3.53141L5.97733 2.57141ZM5.71447 7.99998C5.71447 8.45205 5.84853 8.89397 6.09969 9.26986C6.35084 9.64574 6.70782 9.93871 7.12548 10.1117C7.54314 10.2847 8.00272 10.33 8.44611 10.2418C8.88949 10.1536 9.29677 9.93589 9.61643 9.61623C9.93609 9.29656 10.1538 8.88929 10.242 8.4459C10.3302 8.00252 10.2849 7.54294 10.1119 7.12528C9.93891 6.70762 9.64595 6.35064 9.27006 6.09948C8.89418 5.84832 8.45226 5.71427 8.00019 5.71427C7.39398 5.71427 6.8126 5.95508 6.38394 6.38374C5.95529 6.81239 5.71447 7.39377 5.71447 7.99998V7.99998Z" stroke="#F6F6F6" stroke-linecap="round" stroke-linejoin="round"/>
</g>
<defs>
<clipPath id="clip0_308_90303">
<rect width="16" height="16" fill="white"/>
</clipPath>
</defs>
</svg>
