<svg width="16" height="16" viewBox="0 0 16 16" fill="none" xmlns="http://www.w3.org/2000/svg">
<path d="M6.10203 3.60526C6.94646 2.09042 7.36868 1.33301 7.99992 1.33301C8.63116 1.33301 9.05338 2.09042 9.89781 3.60526L10.1163 3.99716C10.3562 4.42763 10.4762 4.64287 10.6633 4.78488C10.8504 4.92689 11.0834 4.97961 11.5493 5.08504L11.9736 5.18103C13.6133 5.55204 14.4332 5.73755 14.6283 6.36483C14.8234 6.9921 14.2644 7.64572 13.1465 8.95296L12.8573 9.29115C12.5396 9.66263 12.3808 9.84837 12.3093 10.0782C12.2379 10.3079 12.2619 10.5557 12.3099 11.0514L12.3537 11.5026C12.5227 13.2467 12.6072 14.1188 12.0965 14.5065C11.5858 14.8942 10.8181 14.5407 9.2828 13.8338L8.88559 13.6509C8.4493 13.45 8.23115 13.3496 7.99992 13.3496C7.76868 13.3496 7.55054 13.45 7.11424 13.6509L6.71703 13.8338C5.1817 14.5407 4.41404 14.8942 3.90335 14.5065C3.39267 14.1188 3.47717 13.2467 3.64618 11.5026L3.68991 11.0514C3.73794 10.5557 3.76195 10.3079 3.69049 10.0782C3.61904 9.84837 3.4602 9.66263 3.14253 9.29116L2.85332 8.95296C1.73542 7.64572 1.17647 6.9921 1.37153 6.36483C1.5666 5.73755 2.38649 5.55204 4.02628 5.18103L4.45051 5.08504C4.91649 4.97961 5.14947 4.92689 5.33655 4.78488C5.52362 4.64287 5.6436 4.42763 5.88356 3.99716L6.10203 3.60526Z" fill="#FFC107"/>
</svg>
