<svg width="25" height="24" viewBox="0 0 25 24" fill="none" xmlns="http://www.w3.org/2000/svg">
<g clip-path="url(#clip0_1486_3721)">
<path d="M3.07227 14.5713V22.2856C3.07227 22.5129 3.16257 22.7309 3.32332 22.8917C3.48406 23.0524 3.70208 23.1427 3.92941 23.1427H21.0723C21.2996 23.1427 21.5176 23.0524 21.6784 22.8917C21.8391 22.7309 21.9294 22.5129 21.9294 22.2856V14.5713" stroke="#666666" stroke-linecap="round" stroke-linejoin="round"/>
<path d="M14.2148 14.5713V23.1427" stroke="#666666" stroke-linecap="round" stroke-linejoin="round"/>
<path d="M3.07227 17.1426H14.2151" stroke="#666666" stroke-linecap="round" stroke-linejoin="round"/>
<path d="M1.35742 6.85693L3.92885 0.856934H21.0717L23.6431 6.85693H1.35742Z" stroke="#666666" stroke-linecap="round" stroke-linejoin="round"/>
<path d="M8.64378 6.85693V8.57122C8.64378 9.48053 8.28256 10.3526 7.63958 10.9956C6.9966 11.6386 6.12453 11.9998 5.21521 11.9998H4.73521C3.8259 11.9998 2.95383 11.6386 2.31085 10.9956C1.66786 10.3526 1.30664 9.48053 1.30664 8.57122V6.85693" stroke="#666666" stroke-linecap="round" stroke-linejoin="round"/>
<path d="M16.3588 6.85693V8.57122C16.3588 9.48053 15.9976 10.3526 15.3546 10.9956C14.7116 11.6386 13.8396 11.9998 12.9302 11.9998H12.0731C11.1638 11.9998 10.2917 11.6386 9.64874 10.9956C9.00575 10.3526 8.64453 9.48053 8.64453 8.57122V6.85693" stroke="#666666" stroke-linecap="round" stroke-linejoin="round"/>
<path d="M23.6431 6.85693V8.57122C23.6431 9.48053 23.2819 10.3526 22.6389 10.9956C21.9959 11.6386 21.1239 11.9998 20.2146 11.9998H19.786C18.8767 11.9998 18.0046 11.6386 17.3616 10.9956C16.7186 10.3526 16.3574 9.48053 16.3574 8.57122V6.85693" stroke="#666666" stroke-linecap="round" stroke-linejoin="round"/>
</g>
<defs>
<clipPath id="clip0_1486_3721">
<rect width="24" height="24" fill="white" transform="translate(0.5)"/>
</clipPath>
</defs>
</svg>
