<svg width="25" height="24" viewBox="0 0 25 24" fill="none" xmlns="http://www.w3.org/2000/svg">
<g clip-path="url(#clip0_1486_3705)">
<path d="M12.5003 23.1426C18.6543 23.1426 23.6431 18.1538 23.6431 11.9998C23.6431 5.84576 18.6543 0.856934 12.5003 0.856934C6.34625 0.856934 1.35742 5.84576 1.35742 11.9998C1.35742 18.1538 6.34625 23.1426 12.5003 23.1426Z" stroke="#666666" stroke-linecap="round" stroke-linejoin="round"/>
<path d="M5.17969 20.3995C5.94467 19.1439 7.01982 18.1061 8.30176 17.386C9.5837 16.6658 11.0293 16.2876 12.4997 16.2876C13.97 16.2876 15.4157 16.6658 16.6976 17.386C17.9796 18.1061 19.0547 19.1439 19.8197 20.3995" stroke="#666666" stroke-linecap="round" stroke-linejoin="round"/>
<path d="M12.5006 13.714C14.8675 13.714 16.7863 11.7952 16.7863 9.42829C16.7863 7.06136 14.8675 5.14258 12.5006 5.14258C10.1336 5.14258 8.21484 7.06136 8.21484 9.42829C8.21484 11.7952 10.1336 13.714 12.5006 13.714Z" stroke="#666666" stroke-linecap="round" stroke-linejoin="round"/>
</g>
<defs>
<clipPath id="clip0_1486_3705">
<rect width="24" height="24" fill="white" transform="translate(0.5)"/>
</clipPath>
</defs>
</svg>
