<svg width="16" height="16" viewBox="0 0 16 16" fill="none" xmlns="http://www.w3.org/2000/svg">
<g clip-path="url(#clip0_308_90272)">
<path d="M7.99986 15.4286C12.1025 15.4286 15.4284 12.1027 15.4284 7.99998C15.4284 3.8973 12.1025 0.571411 7.99986 0.571411C3.89717 0.571411 0.571289 3.8973 0.571289 7.99998C0.571289 12.1027 3.89717 15.4286 7.99986 15.4286Z" stroke="#F6F6F6" stroke-linecap="round" stroke-linejoin="round"/>
<path d="M3.12012 13.5998C3.63011 12.7627 4.34687 12.0708 5.2015 11.5908C6.05612 11.1107 7.01988 10.8585 8.00012 10.8585C8.98035 10.8585 9.94411 11.1107 10.7987 11.5908C11.6534 12.0708 12.3701 12.7627 12.8801 13.5998" stroke="#F6F6F6" stroke-linecap="round" stroke-linejoin="round"/>
<path d="M7.99972 9.14263C9.57768 9.14263 10.8569 7.86344 10.8569 6.28549C10.8569 4.70753 9.57768 3.42834 7.99972 3.42834C6.42176 3.42834 5.14258 4.70753 5.14258 6.28549C5.14258 7.86344 6.42176 9.14263 7.99972 9.14263Z" stroke="#F6F6F6" stroke-linecap="round" stroke-linejoin="round"/>
</g>
<defs>
<clipPath id="clip0_308_90272">
<rect width="16" height="16" fill="white"/>
</clipPath>
</defs>
</svg>
