<svg width="50" height="17" viewBox="0 0 50 17" fill="none" xmlns="http://www.w3.org/2000/svg">
<path d="M18.6592 0.924438L12.2251 15.9164H8.02722L4.86139 3.95044C4.6689 3.21444 4.50303 2.94444 3.91737 2.63444C2.96311 2.12844 1.38633 1.65444 0 1.35844L0.094197 0.924438H6.85181C7.2934 0.924006 7.72061 1.07777 8.05632 1.35797C8.39203 1.63817 8.61412 2.02635 8.68251 2.45244L10.3555 11.1284L14.4879 0.924438H18.6592ZM35.1089 11.0224C35.1252 7.06444 29.5062 6.84644 29.5451 5.07844C29.5574 4.54044 30.0816 3.96844 31.2284 3.82244C32.5723 3.69778 33.9257 3.92995 35.1457 4.49444L35.842 1.31444C34.6542 0.878328 33.3963 0.652791 32.1273 0.648438C28.2018 0.648438 25.4393 2.68844 25.4148 5.60644C25.3902 7.76444 27.3868 8.96644 28.8919 9.68644C30.44 10.4204 30.9601 10.8924 30.9519 11.5484C30.9417 12.5564 29.7192 12.9984 28.5765 13.0164C26.5799 13.0464 25.423 12.4904 24.4974 12.0704L23.7786 15.3544C24.7062 15.7704 26.4182 16.1344 28.1936 16.1504C32.3649 16.1504 35.0945 14.1384 35.1089 11.0224ZM45.4726 15.9164H49.1463L45.9415 0.924438H42.5504C42.1881 0.921159 41.8331 1.02428 41.5315 1.22042C41.2299 1.41655 40.9956 1.69667 40.859 2.02444L34.902 15.9164H39.0713L39.9006 13.6764H44.9955L45.4726 15.9164ZM41.0433 10.6044L43.132 4.97444L44.3361 10.6044H41.0433ZM24.3335 0.924438L21.051 15.9164H17.0783L20.365 0.924438H24.3335Z" fill="white"/>
</svg>
